<?xml version="1.0" encoding="UTF-8" standalone="no"?>
<!DOCTYPE svg PUBLIC "-//W3C//DTD SVG 1.1//EN"
 "http://www.w3.org/Graphics/SVG/1.1/DTD/svg11.dtd">
<!-- Generated by graphviz version 2.43.0 (0)
 -->
<!-- Title: dependency&#45;cruiser output Pages: 1 -->
<svg width="770pt" height="618pt"
 viewBox="0.00 0.00 770.00 618.00" xmlns="http://www.w3.org/2000/svg" xmlns:xlink="http://www.w3.org/1999/xlink">
<g id="graph0" class="graph" transform="scale(1 1) rotate(0) translate(4 614)">
<title>dependency&#45;cruiser output</title>
<polygon fill="white" stroke="transparent" points="-4,4 -4,-614 766,-614 766,4 -4,4"/>
<g id="clust1" class="cluster">
<title>cluster_src</title>
<path fill="#ffffff" stroke="black" stroke-width="2" d="M20,-26C20,-26 742,-26 742,-26 748,-26 754,-32 754,-38 754,-38 754,-590 754,-590 754,-596 748,-602 742,-602 742,-602 20,-602 20,-602 14,-602 8,-596 8,-590 8,-590 8,-38 8,-38 8,-32 14,-26 20,-26"/>
<text text-anchor="middle" x="381" y="-590.8" font-family="Helvetica,sans-Serif" font-weight="bold" font-size="9.00">src</text>
</g>
<g id="clust2" class="cluster">
<title>cluster_src/app</title>
<path fill="#ffffff" stroke="black" stroke-width="2" d="M28,-134C28,-134 189.5,-134 189.5,-134 195.5,-134 201.5,-140 201.5,-146 201.5,-146 201.5,-260 201.5,-260 201.5,-266 195.5,-272 189.5,-272 189.5,-272 28,-272 28,-272 22,-272 16,-266 16,-260 16,-260 16,-146 16,-146 16,-140 22,-134 28,-134"/>
<text text-anchor="middle" x="108.75" y="-260.8" font-family="Helvetica,sans-Serif" font-weight="bold" font-size="9.00">app</text>
</g>
<g id="clust3" class="cluster">
<title>cluster_src/app/timer</title>
<path fill="#ffffff" stroke="black" stroke-width="2" d="M36,-168C36,-168 84,-168 84,-168 90,-168 96,-174 96,-180 96,-180 96,-208 96,-208 96,-214 90,-220 84,-220 84,-220 36,-220 36,-220 30,-220 24,-214 24,-208 24,-208 24,-180 24,-180 24,-174 30,-168 36,-168"/>
<text text-anchor="middle" x="60" y="-208.8" font-family="Helvetica,sans-Serif" font-weight="bold" font-size="9.00">timer</text>
</g>
<g id="clust4" class="cluster">
<title>cluster_src/client</title>
<path fill="#ffffff" stroke="black" stroke-width="2" d="M116,-280C116,-280 572,-280 572,-280 578,-280 584,-286 584,-292 584,-292 584,-540 584,-540 584,-546 578,-552 572,-552 572,-552 116,-552 116,-552 110,-552 104,-546 104,-540 104,-540 104,-292 104,-292 104,-286 110,-280 116,-280"/>
<text text-anchor="middle" x="344" y="-540.8" font-family="Helvetica,sans-Serif" font-weight="bold" font-size="9.00">client</text>
</g>
<g id="clust5" class="cluster">
<title>cluster_src/client/components</title>
<path fill="#ffffff" stroke="black" stroke-width="2" d="M124,-348C124,-348 468.5,-348 468.5,-348 474.5,-348 480.5,-354 480.5,-360 480.5,-360 480.5,-452 480.5,-452 480.5,-458 474.5,-464 468.5,-464 468.5,-464 124,-464 124,-464 118,-464 112,-458 112,-452 112,-452 112,-360 112,-360 112,-354 118,-348 124,-348"/>
<text text-anchor="middle" x="296.25" y="-452.8" font-family="Helvetica,sans-Serif" font-weight="bold" font-size="9.00">components</text>
</g>
<g id="clust6" class="cluster">
<title>cluster_src/client/components/ui</title>
<path fill="#ffffff" stroke="black" stroke-width="2" d="M132,-356C132,-356 188,-356 188,-356 194,-356 200,-362 200,-368 200,-368 200,-426 200,-426 200,-432 194,-438 188,-438 188,-438 132,-438 132,-438 126,-438 120,-432 120,-426 120,-426 120,-368 120,-368 120,-362 126,-356 132,-356"/>
<text text-anchor="middle" x="160" y="-426.8" font-family="Helvetica,sans-Serif" font-weight="bold" font-size="9.00">ui</text>
</g>
<g id="clust7" class="cluster">
<title>cluster_src/client/hooks</title>
<path fill="#ffffff" stroke="black" stroke-width="2" d="M407,-472C407,-472 564,-472 564,-472 570,-472 576,-478 576,-484 576,-484 576,-512 576,-512 576,-518 570,-524 564,-524 564,-524 407,-524 407,-524 401,-524 395,-518 395,-512 395,-512 395,-484 395,-484 395,-478 401,-472 407,-472"/>
<text text-anchor="middle" x="485.5" y="-512.8" font-family="Helvetica,sans-Serif" font-weight="bold" font-size="9.00">hooks</text>
</g>
<g id="clust8" class="cluster">
<title>cluster_src/client/styles</title>
<path fill="#ffffff" stroke="black" stroke-width="2" d="M131.5,-288C131.5,-288 188.5,-288 188.5,-288 194.5,-288 200.5,-294 200.5,-300 200.5,-300 200.5,-328 200.5,-328 200.5,-334 194.5,-340 188.5,-340 188.5,-340 131.5,-340 131.5,-340 125.5,-340 119.5,-334 119.5,-328 119.5,-328 119.5,-300 119.5,-300 119.5,-294 125.5,-288 131.5,-288"/>
<text text-anchor="middle" x="160" y="-328.8" font-family="Helvetica,sans-Serif" font-weight="bold" font-size="9.00">styles</text>
</g>
<g id="clust9" class="cluster">
<title>cluster_src/lib</title>
<path fill="#ffffff" stroke="black" stroke-width="2" d="M508.5,-34C508.5,-34 554.5,-34 554.5,-34 560.5,-34 566.5,-40 566.5,-46 566.5,-46 566.5,-134 566.5,-134 566.5,-140 560.5,-146 554.5,-146 554.5,-146 508.5,-146 508.5,-146 502.5,-146 496.5,-140 496.5,-134 496.5,-134 496.5,-46 496.5,-46 496.5,-40 502.5,-34 508.5,-34"/>
<text text-anchor="middle" x="531.5" y="-134.8" font-family="Helvetica,sans-Serif" font-weight="bold" font-size="9.00">lib</text>
</g>
<g id="clust10" class="cluster">
<title>cluster_src/server</title>
<path fill="#ffffff" stroke="black" stroke-width="2" d="M500.5,-154C500.5,-154 734,-154 734,-154 740,-154 746,-160 746,-166 746,-166 746,-260 746,-260 746,-266 740,-272 734,-272 734,-272 500.5,-272 500.5,-272 494.5,-272 488.5,-266 488.5,-260 488.5,-260 488.5,-166 488.5,-166 488.5,-160 494.5,-154 500.5,-154"/>
<text text-anchor="middle" x="617.25" y="-260.8" font-family="Helvetica,sans-Serif" font-weight="bold" font-size="9.00">server</text>
</g>
<g id="clust11" class="cluster">
<title>cluster_src/server/actions</title>
<path fill="#ffffff" stroke="black" stroke-width="2" d="M508.5,-168C508.5,-168 554.5,-168 554.5,-168 560.5,-168 566.5,-174 566.5,-180 566.5,-180 566.5,-208 566.5,-208 566.5,-214 560.5,-220 554.5,-220 554.5,-220 508.5,-220 508.5,-220 502.5,-220 496.5,-214 496.5,-208 496.5,-208 496.5,-180 496.5,-180 496.5,-174 502.5,-168 508.5,-168"/>
<text text-anchor="middle" x="531.5" y="-208.8" font-family="Helvetica,sans-Serif" font-weight="bold" font-size="9.00">actions</text>
</g>
<g id="clust12" class="cluster">
<title>cluster_src/server/db</title>
<path fill="#ffffff" stroke="black" stroke-width="2" d="M604,-168C604,-168 726,-168 726,-168 732,-168 738,-174 738,-180 738,-180 738,-208 738,-208 738,-214 732,-220 726,-220 726,-220 604,-220 604,-220 598,-220 592,-214 592,-208 592,-208 592,-180 592,-180 592,-174 598,-168 604,-168"/>
<text text-anchor="middle" x="665" y="-208.8" font-family="Helvetica,sans-Serif" font-weight="bold" font-size="9.00">db</text>
</g>
<!-- assert -->
<g id="node1" class="node">
<title>assert</title>
<g id="a_node1"><a xlink:href="https://nodejs.org/api/assert.html" xlink:title="assert">
<path fill="#ffffcc" stroke="grey" d="M349.5,-18C349.5,-18 307.5,-18 307.5,-18 304.5,-18 301.5,-15 301.5,-12 301.5,-12 301.5,-6 301.5,-6 301.5,-3 304.5,0 307.5,0 307.5,0 349.5,0 349.5,0 352.5,0 355.5,-3 355.5,-6 355.5,-6 355.5,-12 355.5,-12 355.5,-15 352.5,-18 349.5,-18"/>
<text text-anchor="middle" x="328.5" y="-6.8" font-family="Helvetica,sans-Serif" font-size="9.00" fill="grey">assert</text>
</a>
</g>
</g>
<!-- src/app/layout.tsx -->
<g id="node2" class="node">
<title>src/app/layout.tsx</title>
<g id="a_node2"><a xlink:href="src/app/layout.tsx" xlink:title="layout.tsx">
<path fill="#bbfeff" stroke="black" d="M84.5,-160C84.5,-160 35.5,-160 35.5,-160 32.5,-160 29.5,-157 29.5,-154 29.5,-154 29.5,-148 29.5,-148 29.5,-145 32.5,-142 35.5,-142 35.5,-142 84.5,-142 84.5,-142 87.5,-142 90.5,-145 90.5,-148 90.5,-148 90.5,-154 90.5,-154 90.5,-157 87.5,-160 84.5,-160"/>
<text text-anchor="start" x="37.5" y="-148.8" font-family="Helvetica,sans-Serif" font-size="9.00">layout.tsx</text>
</a>
</g>
</g>
<!-- src/app/manifest.ts -->
<g id="node3" class="node">
<title>src/app/manifest.ts</title>
<g id="a_node3"><a xlink:href="src/app/manifest.ts" xlink:title="manifest.ts">
<path fill="#ddfeff" stroke="black" d="M187.5,-160C187.5,-160 132.5,-160 132.5,-160 129.5,-160 126.5,-157 126.5,-154 126.5,-154 126.5,-148 126.5,-148 126.5,-145 129.5,-142 132.5,-142 132.5,-142 187.5,-142 187.5,-142 190.5,-142 193.5,-145 193.5,-148 193.5,-148 193.5,-154 193.5,-154 193.5,-157 190.5,-160 187.5,-160"/>
<text text-anchor="start" x="134.5" y="-148.8" font-family="Helvetica,sans-Serif" font-size="9.00">manifest.ts</text>
</a>
</g>
</g>
<!-- src/app/layout.tsx&#45;&gt;src/app/manifest.ts -->
<g id="edge1" class="edge">
<title>src/app/layout.tsx&#45;&gt;src/app/manifest.ts</title>
<path fill="none" stroke="#000000" stroke-width="2" stroke-opacity="0.200000" d="M90.67,-151C100,-151 110.44,-151 120.31,-151"/>
<polygon fill="#000000" fill-opacity="0.200000" stroke="#000000" stroke-width="2" stroke-opacity="0.200000" points="120.35,-153.1 126.35,-151 120.35,-148.9 120.35,-153.1"/>
</g>
<!-- src/client/components/loading&#45;page.tsx -->
<g id="node4" class="node">
<title>src/client/components/loading&#45;page.tsx</title>
<g id="a_node4"><a xlink:href="src/client/components/loading-page.tsx" xlink:title="loading&#45;page.tsx">
<path fill="#bbfeff" stroke="black" d="M368.5,-438C368.5,-438 288.5,-438 288.5,-438 285.5,-438 282.5,-435 282.5,-432 282.5,-432 282.5,-426 282.5,-426 282.5,-423 285.5,-420 288.5,-420 288.5,-420 368.5,-420 368.5,-420 371.5,-420 374.5,-423 374.5,-426 374.5,-426 374.5,-432 374.5,-432 374.5,-435 371.5,-438 368.5,-438"/>
<text text-anchor="start" x="290.5" y="-426.8" font-family="Helvetica,sans-Serif" font-size="9.00">loading&#45;page.tsx</text>
</a>
</g>
</g>
<!-- src/app/layout.tsx&#45;&gt;src/client/components/loading&#45;page.tsx -->
<g id="edge2" class="edge">
<title>src/app/layout.tsx&#45;&gt;src/client/components/loading&#45;page.tsx</title>
<path fill="none" stroke="#000000" stroke-width="2" stroke-opacity="0.200000" d="M90.5,-159.5C92.62,-161.04 94.5,-162.85 96,-165 104.78,-177.58 93,-430.31 104,-441 157.59,-493.06 256.76,-460.15 302.81,-440.54"/>
<polygon fill="#000000" fill-opacity="0.200000" stroke="#000000" stroke-width="2" stroke-opacity="0.200000" points="303.75,-442.42 308.42,-438.1 302.08,-438.57 303.75,-442.42"/>
</g>
<!-- src/client/styles/globals.css -->
<g id="node5" class="node">
<title>src/client/styles/globals.css</title>
<g id="a_node5"><a xlink:href="src/client/styles/globals.css" xlink:title="globals.css">
<path fill="#ffffcc" stroke="black" d="M186.5,-314C186.5,-314 133.5,-314 133.5,-314 130.5,-314 127.5,-311 127.5,-308 127.5,-308 127.5,-302 127.5,-302 127.5,-299 130.5,-296 133.5,-296 133.5,-296 186.5,-296 186.5,-296 189.5,-296 192.5,-299 192.5,-302 192.5,-302 192.5,-308 192.5,-308 192.5,-311 189.5,-314 186.5,-314"/>
<text text-anchor="start" x="135.5" y="-302.8" font-family="Helvetica,sans-Serif" font-size="9.00">globals.css</text>
</a>
</g>
</g>
<!-- src/app/layout.tsx&#45;&gt;src/client/styles/globals.css -->
<g id="edge3" class="edge">
<title>src/app/layout.tsx&#45;&gt;src/client/styles/globals.css</title>
<path fill="none" stroke="#000000" stroke-width="2" stroke-opacity="0.200000" d="M90.72,-159.8C92.73,-161.27 94.53,-162.99 96,-165 110.47,-184.78 90.73,-254.39 104,-275 108.98,-282.73 116.66,-288.62 124.72,-293.05"/>
<polygon fill="#000000" fill-opacity="0.200000" stroke="#000000" stroke-width="2" stroke-opacity="0.200000" points="124.03,-295.06 130.33,-295.89 125.93,-291.31 124.03,-295.06"/>
</g>
<!-- src/app/page.tsx -->
<g id="node6" class="node">
<title>src/app/page.tsx</title>
<g id="a_node6"><a xlink:href="src/app/page.tsx" xlink:title="page.tsx">
<path fill="#bbfeff" stroke="black" d="M82,-246C82,-246 38,-246 38,-246 35,-246 32,-243 32,-240 32,-240 32,-234 32,-234 32,-231 35,-228 38,-228 38,-228 82,-228 82,-228 85,-228 88,-231 88,-234 88,-234 88,-240 88,-240 88,-243 85,-246 82,-246"/>
<text text-anchor="start" x="40" y="-234.8" font-family="Helvetica,sans-Serif" font-size="9.00">page.tsx</text>
</a>
</g>
</g>
<!-- src/client/components/router.tsx -->
<g id="node7" class="node">
<title>src/client/components/router.tsx</title>
<g id="a_node7"><a xlink:href="src/client/components/router.tsx" xlink:title="router.tsx">
<path fill="#bbfeff" stroke="black" d="M263.5,-412C263.5,-412 215.5,-412 215.5,-412 212.5,-412 209.5,-409 209.5,-406 209.5,-406 209.5,-400 209.5,-400 209.5,-397 212.5,-394 215.5,-394 215.5,-394 263.5,-394 263.5,-394 266.5,-394 269.5,-397 269.5,-400 269.5,-400 269.5,-406 269.5,-406 269.5,-409 266.5,-412 263.5,-412"/>
<text text-anchor="start" x="217.5" y="-400.8" font-family="Helvetica,sans-Serif" font-size="9.00">router.tsx</text>
</a>
</g>
</g>
<!-- src/app/page.tsx&#45;&gt;src/client/components/router.tsx -->
<g id="edge4" class="edge">
<title>src/app/page.tsx&#45;&gt;src/client/components/router.tsx</title>
<path fill="none" stroke="#000000" stroke-width="2" stroke-opacity="0.200000" d="M61.24,-246.22C62.49,-285.28 69.5,-436.4 104,-465 137.36,-492.66 163.82,-486.4 201.5,-465 219.05,-455.04 229.16,-433.08 234.25,-418.16"/>
<polygon fill="#000000" fill-opacity="0.200000" stroke="#000000" stroke-width="2" stroke-opacity="0.200000" points="236.31,-418.61 236.13,-412.25 232.31,-417.33 236.31,-418.61"/>
</g>
<!-- src/client/components/router.tsx&#45;&gt;assert -->
<g id="edge15" class="edge">
<title>src/client/components/router.tsx&#45;&gt;assert</title>
<path fill="none" stroke="#000000" stroke-dasharray="5,2" stroke-opacity="0.200000" d="M242.56,-393.65C254.03,-341.71 309.9,-88.72 324.17,-24.07"/>
<polygon fill="#000000" fill-opacity="0.200000" stroke="#000000" stroke-opacity="0.200000" points="326.25,-24.4 325.49,-18.09 322.15,-23.5 326.25,-24.4"/>
</g>
<!-- src/client/components/router.tsx&#45;&gt;src/client/components/loading&#45;page.tsx -->
<g id="edge12" class="edge">
<title>src/client/components/router.tsx&#45;&gt;src/client/components/loading&#45;page.tsx</title>
<path fill="none" stroke="#000000" stroke-width="2" stroke-opacity="0.200000" d="M269.95,-411.8C276.81,-413.85 284.19,-416.06 291.29,-418.18"/>
<polygon fill="#000000" fill-opacity="0.200000" stroke="#000000" stroke-width="2" stroke-opacity="0.200000" points="290.84,-420.23 297.19,-419.94 292.04,-416.21 290.84,-420.23"/>
</g>
<!-- src/client/components/home&#45;page.tsx -->
<g id="node10" class="node">
<title>src/client/components/home&#45;page.tsx</title>
<g id="a_node10"><a xlink:href="src/client/components/home-page.tsx" xlink:title="home&#45;page.tsx">
<path fill="#bbfeff" stroke="black" d="M364.5,-408C364.5,-408 292.5,-408 292.5,-408 289.5,-408 286.5,-405 286.5,-402 286.5,-402 286.5,-396 286.5,-396 286.5,-393 289.5,-390 292.5,-390 292.5,-390 364.5,-390 364.5,-390 367.5,-390 370.5,-393 370.5,-396 370.5,-396 370.5,-402 370.5,-402 370.5,-405 367.5,-408 364.5,-408"/>
<text text-anchor="start" x="294.5" y="-396.8" font-family="Helvetica,sans-Serif" font-size="9.00">home&#45;page.tsx</text>
</a>
</g>
</g>
<!-- src/client/components/router.tsx&#45;&gt;src/client/components/home&#45;page.tsx -->
<g id="edge11" class="edge">
<title>src/client/components/router.tsx&#45;&gt;src/client/components/home&#45;page.tsx</title>
<g id="a_edge11"><a xlink:title="no&#45;circular">
<path fill="none" stroke="orange" stroke-width="2" d="M269.95,-401.65C270.79,-401.61 271.63,-401.57 272.47,-401.53"/>
<polygon fill="orange" stroke="orange" stroke-width="2" points="280.6,-403.26 286.5,-400.89 280.41,-399.06 280.6,-403.26"/>
<polyline fill="none" stroke="orange" stroke-width="2" points="280.51,-401.16 277.51,-401.3 "/>
<ellipse fill="none" stroke="orange" stroke-width="2" cx="275.11" cy="-401.41" rx="2.4" ry="2.4"/>
</a>
</g>
<text text-anchor="middle" x="296.93" y="-404.33" font-family="Helvetica,sans-Serif" font-size="9.00" fill="orange">no&#45;circular</text>
</g>
<!-- src/client/hooks/sync.ts -->
<g id="node12" class="node">
<title>src/client/hooks/sync.ts</title>
<g id="a_node12"><a xlink:href="src/client/hooks/sync.ts" xlink:title="sync.ts">
<path fill="#ddfeff" stroke="black" d="M451,-498C451,-498 409,-498 409,-498 406,-498 403,-495 403,-492 403,-492 403,-486 403,-486 403,-483 406,-480 409,-480 409,-480 451,-480 451,-480 454,-480 457,-483 457,-486 457,-486 457,-492 457,-492 457,-495 454,-498 451,-498"/>
<text text-anchor="start" x="413.5" y="-486.8" font-family="Helvetica,sans-Serif" font-size="9.00">sync.ts</text>
</a>
</g>
</g>
<!-- src/client/components/router.tsx&#45;&gt;src/client/hooks/sync.ts -->
<g id="edge8" class="edge">
<title>src/client/components/router.tsx&#45;&gt;src/client/hooks/sync.ts</title>
<path fill="none" stroke="#000000" stroke-width="2" stroke-opacity="0.200000" d="M247.59,-412.12C255.26,-421.39 268.3,-435.57 282.5,-444 318.64,-465.45 365.96,-477.57 396.9,-483.7"/>
<polygon fill="#000000" fill-opacity="0.200000" stroke="#000000" stroke-width="2" stroke-opacity="0.200000" points="396.58,-485.77 402.87,-484.84 397.37,-481.65 396.58,-485.77"/>
</g>
<!-- src/client/hooks/useUserId.ts -->
<g id="node13" class="node">
<title>src/client/hooks/useUserId.ts</title>
<g id="a_node13"><a xlink:href="src/client/hooks/useUserId.ts" xlink:title="useUserId.ts">
<path fill="#ddfeff" stroke="black" d="M562,-498C562,-498 501,-498 501,-498 498,-498 495,-495 495,-492 495,-492 495,-486 495,-486 495,-483 498,-480 501,-480 501,-480 562,-480 562,-480 565,-480 568,-483 568,-486 568,-486 568,-492 568,-492 568,-495 565,-498 562,-498"/>
<text text-anchor="start" x="503" y="-486.8" font-family="Helvetica,sans-Serif" font-size="9.00">useUserId.ts</text>
</a>
</g>
</g>
<!-- src/client/components/router.tsx&#45;&gt;src/client/hooks/useUserId.ts -->
<g id="edge9" class="edge">
<title>src/client/components/router.tsx&#45;&gt;src/client/hooks/useUserId.ts</title>
<path fill="none" stroke="#000000" stroke-width="2" stroke-opacity="0.200000" d="M244.71,-412.12C251.2,-425.29 264.75,-449.75 282.5,-465 321.7,-498.69 337.08,-503.61 387.5,-515 427.82,-524.11 440.35,-524.82 480.5,-515 491.52,-512.31 502.81,-506.72 511.87,-501.41"/>
<polygon fill="#000000" fill-opacity="0.200000" stroke="#000000" stroke-width="2" stroke-opacity="0.200000" points="513.16,-503.08 517.2,-498.17 510.98,-499.5 513.16,-503.08"/>
</g>
<!-- src/client/nav.ts -->
<g id="node14" class="node">
<title>src/client/nav.ts</title>
<g id="a_node14"><a xlink:href="src/client/nav.ts" xlink:title="nav.ts">
<path fill="#ddfeff" stroke="black" d="M349.5,-334C349.5,-334 307.5,-334 307.5,-334 304.5,-334 301.5,-331 301.5,-328 301.5,-328 301.5,-322 301.5,-322 301.5,-319 304.5,-316 307.5,-316 307.5,-316 349.5,-316 349.5,-316 352.5,-316 355.5,-319 355.5,-322 355.5,-322 355.5,-328 355.5,-328 355.5,-331 352.5,-334 349.5,-334"/>
<text text-anchor="start" x="314.5" y="-322.8" font-family="Helvetica,sans-Serif" font-size="9.00">nav.ts</text>
</a>
</g>
</g>
<!-- src/client/components/router.tsx&#45;&gt;src/client/nav.ts -->
<g id="edge10" class="edge">
<title>src/client/components/router.tsx&#45;&gt;src/client/nav.ts</title>
<g id="a_edge10"><a xlink:title="no&#45;circular">
<path fill="none" stroke="orange" stroke-width="2" d="M254.48,-393.97C259.85,-391.54 265.62,-388.52 269.5,-384 283.62,-367.56 268.05,-353.15 282.5,-337 284.35,-334.93 286.47,-333.1 288.77,-331.48"/>
<polygon fill="orange" stroke="orange" stroke-width="2" points="296.77,-329.78 301.18,-325.2 294.88,-326.03 296.77,-329.78"/>
<polyline fill="none" stroke="orange" stroke-width="2" points="295.82,-327.91 293.15,-329.26 "/>
<ellipse fill="none" stroke="orange" stroke-width="2" cx="291.01" cy="-330.35" rx="2.4" ry="2.4"/>
</a>
</g>
<text text-anchor="middle" x="251.35" y="-352.47" font-family="Helvetica,sans-Serif" font-size="9.00" fill="orange">no&#45;circular</text>
</g>
<!-- src/client/components/timer&#45;page.tsx -->
<g id="node15" class="node">
<title>src/client/components/timer&#45;page.tsx</title>
<g id="a_node15"><a xlink:href="src/client/components/timer-page.tsx" xlink:title="timer&#45;page.tsx">
<path fill="#bbfeff" stroke="black" d="M363.5,-378C363.5,-378 293.5,-378 293.5,-378 290.5,-378 287.5,-375 287.5,-372 287.5,-372 287.5,-366 287.5,-366 287.5,-363 290.5,-360 293.5,-360 293.5,-360 363.5,-360 363.5,-360 366.5,-360 369.5,-363 369.5,-366 369.5,-366 369.5,-372 369.5,-372 369.5,-375 366.5,-378 363.5,-378"/>
<text text-anchor="start" x="295.5" y="-366.8" font-family="Helvetica,sans-Serif" font-size="9.00">timer&#45;page.tsx</text>
</a>
</g>
</g>
<!-- src/client/components/router.tsx&#45;&gt;src/client/components/timer&#45;page.tsx -->
<g id="edge13" class="edge">
<title>src/client/components/router.tsx&#45;&gt;src/client/components/timer&#45;page.tsx</title>
<g id="a_edge13"><a xlink:title="no&#45;circular">
<path fill="none" stroke="orange" stroke-width="2" d="M259.56,-393.88C266.69,-390.6 274.9,-386.98 282.5,-384 283.56,-383.59 284.63,-383.17 285.72,-382.76"/>
<polygon fill="orange" stroke="orange" stroke-width="2" points="293.83,-382.08 298.77,-378.08 292.42,-378.13 293.83,-382.08"/>
<polyline fill="none" stroke="orange" stroke-width="2" points="293.13,-380.11 290.3,-381.12 "/>
<ellipse fill="none" stroke="orange" stroke-width="2" cx="288.04" cy="-381.93" rx="2.4" ry="2.4"/>
</a>
</g>
<text text-anchor="middle" x="258.05" y="-386.78" font-family="Helvetica,sans-Serif" font-size="9.00" fill="orange">no&#45;circular</text>
</g>
<!-- src/client/db.ts -->
<g id="node16" class="node">
<title>src/client/db.ts</title>
<g id="a_node16"><a xlink:href="src/client/db.ts" xlink:title="db.ts">
<path fill="#ddfeff" stroke="black" d="M552.5,-378C552.5,-378 510.5,-378 510.5,-378 507.5,-378 504.5,-375 504.5,-372 504.5,-372 504.5,-366 504.5,-366 504.5,-363 507.5,-360 510.5,-360 510.5,-360 552.5,-360 552.5,-360 555.5,-360 558.5,-363 558.5,-366 558.5,-366 558.5,-372 558.5,-372 558.5,-375 555.5,-378 552.5,-378"/>
<text text-anchor="start" x="519.5" y="-366.8" font-family="Helvetica,sans-Serif" font-size="9.00">db.ts</text>
</a>
</g>
</g>
<!-- src/client/components/router.tsx&#45;&gt;src/client/db.ts -->
<g id="edge14" class="edge">
<title>src/client/components/router.tsx&#45;&gt;src/client/db.ts</title>
<path fill="none" stroke="#000000" stroke-width="2" stroke-opacity="0.200000" d="M264.95,-393.93C266.6,-392.76 268.15,-391.46 269.5,-390 281.07,-377.53 268.58,-363.77 282.5,-354 318.51,-328.72 436.97,-347.61 480.5,-354 486.75,-354.92 493.31,-356.45 499.54,-358.19"/>
<polygon fill="#000000" fill-opacity="0.200000" stroke="#000000" stroke-width="2" stroke-opacity="0.200000" points="499.29,-360.31 505.64,-359.99 500.48,-356.28 499.29,-360.31"/>
</g>
<!-- src/app/timer/page.tsx -->
<g id="node8" class="node">
<title>src/app/timer/page.tsx</title>
<g id="a_node8"><a xlink:href="src/app/timer/page.tsx" xlink:title="page.tsx">
<path fill="#bbfeff" stroke="black" d="M82,-194C82,-194 38,-194 38,-194 35,-194 32,-191 32,-188 32,-188 32,-182 32,-182 32,-179 35,-176 38,-176 38,-176 82,-176 82,-176 85,-176 88,-179 88,-182 88,-182 88,-188 88,-188 88,-191 85,-194 82,-194"/>
<text text-anchor="start" x="40" y="-182.8" font-family="Helvetica,sans-Serif" font-size="9.00">page.tsx</text>
</a>
</g>
</g>
<!-- src/app/timer/page.tsx&#45;&gt;src/client/components/router.tsx -->
<g id="edge5" class="edge">
<title>src/app/timer/page.tsx&#45;&gt;src/client/components/router.tsx</title>
<path fill="none" stroke="#000000" stroke-width="2" stroke-opacity="0.200000" d="M88.16,-191.2C91.22,-192.94 93.95,-195.16 96,-198 111.79,-219.92 84.59,-422.21 104,-441 135.14,-471.13 161.58,-457.85 201.5,-441 212.88,-436.2 222.49,-425.99 229.07,-417.37"/>
<polygon fill="#000000" fill-opacity="0.200000" stroke="#000000" stroke-width="2" stroke-opacity="0.200000" points="230.94,-418.35 232.76,-412.26 227.54,-415.89 230.94,-418.35"/>
</g>
<!-- src/lib/time.ts -->
<g id="node9" class="node">
<title>src/lib/time.ts</title>
<g id="a_node9"><a xlink:href="src/lib/time.ts" xlink:title="time.ts">
<path fill="#ddfeff" stroke="black" d="M552.5,-120C552.5,-120 510.5,-120 510.5,-120 507.5,-120 504.5,-117 504.5,-114 504.5,-114 504.5,-108 504.5,-108 504.5,-105 507.5,-102 510.5,-102 510.5,-102 552.5,-102 552.5,-102 555.5,-102 558.5,-105 558.5,-108 558.5,-108 558.5,-114 558.5,-114 558.5,-117 555.5,-120 552.5,-120"/>
<text text-anchor="start" x="515.5" y="-108.8" font-family="Helvetica,sans-Serif" font-size="9.00">time.ts</text>
</a>
</g>
</g>
<!-- src/app/timer/page.tsx&#45;&gt;src/lib/time.ts -->
<g id="edge6" class="edge">
<title>src/app/timer/page.tsx&#45;&gt;src/lib/time.ts</title>
<path fill="none" stroke="#000000" stroke-width="2" stroke-opacity="0.200000" d="M88.17,-191.2C91.22,-192.93 93.96,-195.16 96,-198 113.43,-222.29 82.54,-446.17 104,-467 190.26,-550.74 285.1,-547.38 374.5,-467 394.77,-448.77 377.37,-370.31 387.5,-345 412.7,-282.03 454.4,-286.6 480.5,-224 490.68,-199.58 478.25,-189.39 488.5,-165 494.97,-149.62 506.98,-134.86 516.51,-124.67"/>
<polygon fill="#000000" fill-opacity="0.200000" stroke="#000000" stroke-width="2" stroke-opacity="0.200000" points="518.04,-126.1 520.69,-120.32 515.02,-123.19 518.04,-126.1"/>
</g>
<!-- src/client/components/timer&#45;form.tsx -->
<g id="node11" class="node">
<title>src/client/components/timer&#45;form.tsx</title>
<g id="a_node11"><a xlink:href="src/client/components/timer-form.tsx" xlink:title="timer&#45;form.tsx">
<path fill="#bbfeff" stroke="black" d="M464,-378C464,-378 396,-378 396,-378 393,-378 390,-375 390,-372 390,-372 390,-366 390,-366 390,-363 393,-360 396,-360 396,-360 464,-360 464,-360 467,-360 470,-363 470,-366 470,-366 470,-372 470,-372 470,-375 467,-378 464,-378"/>
<text text-anchor="start" x="398" y="-366.8" font-family="Helvetica,sans-Serif" font-size="9.00">timer&#45;form.tsx</text>
</a>
</g>
</g>
<!-- src/client/components/home&#45;page.tsx&#45;&gt;src/client/components/timer&#45;form.tsx -->
<g id="edge7" class="edge">
<title>src/client/components/home&#45;page.tsx&#45;&gt;src/client/components/timer&#45;form.tsx</title>
<g id="a_edge7"><a xlink:title="no&#45;circular">
<path fill="none" stroke="orange" stroke-width="2" d="M359.35,-390C367.54,-387.53 376.59,-384.8 385.38,-382.15"/>
<polygon fill="orange" stroke="orange" stroke-width="2" points="393.69,-381.84 398.82,-378.1 392.47,-377.82 393.69,-381.84"/>
<polyline fill="none" stroke="orange" stroke-width="2" points="393.08,-379.83 390.21,-380.7 "/>
<ellipse fill="none" stroke="orange" stroke-width="2" cx="387.91" cy="-381.39" rx="2.4" ry="2.4"/>
</a>
</g>
<text text-anchor="middle" x="403.67" y="-381.82" font-family="Helvetica,sans-Serif" font-size="9.00" fill="orange">no&#45;circular</text>
</g>
<!-- src/client/components/timer&#45;form.tsx&#45;&gt;src/lib/time.ts -->
<g id="edge20" class="edge">
<title>src/client/components/timer&#45;form.tsx&#45;&gt;src/lib/time.ts</title>
<path fill="none" stroke="#000000" stroke-width="2" stroke-opacity="0.200000" d="M437.43,-359.94C448.5,-343.78 470.91,-308.51 480.5,-275 493.98,-227.87 470.92,-210.76 488.5,-165 494.48,-149.42 506.55,-134.68 516.22,-124.55"/>
<polygon fill="#000000" fill-opacity="0.200000" stroke="#000000" stroke-width="2" stroke-opacity="0.200000" points="517.75,-125.98 520.46,-120.23 514.76,-123.04 517.75,-125.98"/>
</g>
<!-- src/client/components/timer&#45;form.tsx&#45;&gt;src/client/hooks/useUserId.ts -->
<g id="edge18" class="edge">
<title>src/client/components/timer&#45;form.tsx&#45;&gt;src/client/hooks/useUserId.ts</title>
<path fill="none" stroke="#000000" stroke-width="2" stroke-opacity="0.200000" d="M470.08,-375.73C474.06,-377.82 477.67,-380.51 480.5,-384 493.43,-399.94 475.62,-460.03 488.5,-476 488.96,-476.56 489.43,-477.1 489.94,-477.62"/>
<polygon fill="#000000" fill-opacity="0.200000" stroke="#000000" stroke-width="2" stroke-opacity="0.200000" points="488.98,-479.55 494.96,-481.69 491.62,-476.28 488.98,-479.55"/>
</g>
<!-- src/client/components/timer&#45;form.tsx&#45;&gt;src/client/nav.ts -->
<g id="edge16" class="edge">
<title>src/client/components/timer&#45;form.tsx&#45;&gt;src/client/nav.ts</title>
<g id="a_edge16"><a xlink:title="no&#45;circular">
<path fill="none" stroke="orange" stroke-width="2" d="M395.87,-359.96C392.98,-358.77 390.15,-357.46 387.5,-356 380.87,-352.35 380.91,-349.02 374.5,-345 371.85,-343.34 369.04,-341.74 366.17,-340.23"/>
<polygon fill="orange" stroke="orange" stroke-width="2" points="359.82,-334.86 353.5,-334.16 358.01,-338.65 359.82,-334.86"/>
<polyline fill="none" stroke="orange" stroke-width="2" points="358.91,-336.76 361.62,-338.05 "/>
<ellipse fill="none" stroke="orange" stroke-width="2" cx="363.78" cy="-339.09" rx="2.4" ry="2.4"/>
</a>
</g>
<text text-anchor="middle" x="349.88" y="-337.72" font-family="Helvetica,sans-Serif" font-size="9.00" fill="orange">no&#45;circular</text>
</g>
<!-- src/client/components/timer&#45;form.tsx&#45;&gt;src/client/db.ts -->
<g id="edge17" class="edge">
<title>src/client/components/timer&#45;form.tsx&#45;&gt;src/client/db.ts</title>
<path fill="none" stroke="#000000" stroke-width="2" stroke-opacity="0.200000" d="M470.04,-369C479.42,-369 489.33,-369 498.35,-369"/>
<polygon fill="#000000" fill-opacity="0.200000" stroke="#000000" stroke-width="2" stroke-opacity="0.200000" points="498.44,-371.1 504.44,-369 498.44,-366.9 498.44,-371.1"/>
</g>
<!-- src/lib/error.ts -->
<g id="node17" class="node">
<title>src/lib/error.ts</title>
<g id="a_node17"><a xlink:href="src/lib/error.ts" xlink:title="error.ts">
<path fill="#ddfeff" stroke="black" d="M552.5,-90C552.5,-90 510.5,-90 510.5,-90 507.5,-90 504.5,-87 504.5,-84 504.5,-84 504.5,-78 504.5,-78 504.5,-75 507.5,-72 510.5,-72 510.5,-72 552.5,-72 552.5,-72 555.5,-72 558.5,-75 558.5,-78 558.5,-78 558.5,-84 558.5,-84 558.5,-87 555.5,-90 552.5,-90"/>
<text text-anchor="start" x="515" y="-78.8" font-family="Helvetica,sans-Serif" font-size="9.00">error.ts</text>
</a>
</g>
</g>
<!-- src/client/components/timer&#45;form.tsx&#45;&gt;src/lib/error.ts -->
<g id="edge19" class="edge">
<title>src/client/components/timer&#45;form.tsx&#45;&gt;src/lib/error.ts</title>
<path fill="none" stroke="#000000" stroke-width="2" stroke-opacity="0.200000" d="M433.85,-359.72C442.33,-331.78 467.57,-245.92 480.5,-173 483.5,-156.06 477.88,-109.53 488.5,-96 491.13,-92.64 494.58,-90.04 498.37,-88.02"/>
<polygon fill="#000000" fill-opacity="0.200000" stroke="#000000" stroke-width="2" stroke-opacity="0.200000" points="499.48,-89.82 504.1,-85.45 497.77,-85.98 499.48,-89.82"/>
</g>
<!-- src/client/hooks/sync.ts&#45;&gt;src/lib/time.ts -->
<g id="edge33" class="edge">
<title>src/client/hooks/sync.ts&#45;&gt;src/lib/time.ts</title>
<path fill="none" stroke="#000000" stroke-width="2" stroke-opacity="0.200000" d="M457.14,-483.45C466.05,-480.19 475.11,-475.05 480.5,-467 499.16,-439.1 477.19,-196.6 488.5,-165 494.12,-149.29 506.22,-134.56 516,-124.47"/>
<polygon fill="#000000" fill-opacity="0.200000" stroke="#000000" stroke-width="2" stroke-opacity="0.200000" points="517.54,-125.9 520.29,-120.17 514.57,-122.93 517.54,-125.9"/>
</g>
<!-- src/client/hooks/sync.ts&#45;&gt;src/client/hooks/useUserId.ts -->
<g id="edge30" class="edge">
<title>src/client/hooks/sync.ts&#45;&gt;src/client/hooks/useUserId.ts</title>
<path fill="none" stroke="#000000" stroke-width="2" stroke-opacity="0.200000" d="M457.14,-489C466.77,-489 477.93,-489 488.6,-489"/>
<polygon fill="#000000" fill-opacity="0.200000" stroke="#000000" stroke-width="2" stroke-opacity="0.200000" points="488.81,-491.1 494.81,-489 488.81,-486.9 488.81,-491.1"/>
</g>
<!-- src/client/hooks/sync.ts&#45;&gt;src/client/db.ts -->
<g id="edge31" class="edge">
<title>src/client/hooks/sync.ts&#45;&gt;src/client/db.ts</title>
<path fill="none" stroke="#000000" stroke-width="2" stroke-opacity="0.200000" d="M457.16,-481.24C465.35,-477.86 473.95,-473.21 480.5,-467 505.25,-443.54 519.8,-405.14 526.33,-384.05"/>
<polygon fill="#000000" fill-opacity="0.200000" stroke="#000000" stroke-width="2" stroke-opacity="0.200000" points="528.41,-384.44 528.11,-378.09 524.38,-383.24 528.41,-384.44"/>
</g>
<!-- src/client/hooks/sync.ts&#45;&gt;src/lib/error.ts -->
<g id="edge32" class="edge">
<title>src/client/hooks/sync.ts&#45;&gt;src/lib/error.ts</title>
<path fill="none" stroke="#000000" stroke-width="2" stroke-opacity="0.200000" d="M457.16,-483.46C466.07,-480.2 475.13,-475.06 480.5,-467 491.92,-449.84 476.44,-112.72 488.5,-96 491.12,-92.37 494.69,-89.62 498.65,-87.53"/>
<polygon fill="#000000" fill-opacity="0.200000" stroke="#000000" stroke-width="2" stroke-opacity="0.200000" points="499.6,-89.41 504.25,-85.07 497.91,-85.56 499.6,-89.41"/>
</g>
<!-- src/server/actions/index.ts -->
<g id="node22" class="node">
<title>src/server/actions/index.ts</title>
<g id="a_node22"><a xlink:href="src/server/actions/index.ts" xlink:title="index.ts">
<path fill="#ddfeff" stroke="black" d="M552.5,-194C552.5,-194 510.5,-194 510.5,-194 507.5,-194 504.5,-191 504.5,-188 504.5,-188 504.5,-182 504.5,-182 504.5,-179 507.5,-176 510.5,-176 510.5,-176 552.5,-176 552.5,-176 555.5,-176 558.5,-179 558.5,-182 558.5,-182 558.5,-188 558.5,-188 558.5,-191 555.5,-194 552.5,-194"/>
<text text-anchor="start" x="513" y="-182.8" font-family="Helvetica,sans-Serif" font-size="9.00">index.ts</text>
</a>
</g>
</g>
<!-- src/client/hooks/sync.ts&#45;&gt;src/server/actions/index.ts -->
<g id="edge34" class="edge">
<title>src/client/hooks/sync.ts&#45;&gt;src/server/actions/index.ts</title>
<path fill="none" stroke="#000000" stroke-width="2" stroke-opacity="0.200000" d="M457.07,-483.4C465.97,-480.13 475.05,-475.01 480.5,-467 492.38,-449.53 483.58,-297.55 488.5,-277 495.41,-248.16 511.49,-217.33 521.62,-199.69"/>
<polygon fill="#000000" fill-opacity="0.200000" stroke="#000000" stroke-width="2" stroke-opacity="0.200000" points="523.6,-200.47 524.81,-194.23 519.97,-198.35 523.6,-200.47"/>
</g>
<!-- src/client/nav.ts&#45;&gt;src/client/components/router.tsx -->
<g id="edge35" class="edge">
<title>src/client/nav.ts&#45;&gt;src/client/components/router.tsx</title>
<g id="a_edge35"><a xlink:title="no&#45;circular">
<path fill="none" stroke="orange" stroke-width="2" d="M308.14,-334.02C299.2,-337.2 289.12,-341.6 282.5,-349 271.77,-360.99 277.59,-372.01 275.34,-383.83"/>
<polygon fill="orange" stroke="orange" stroke-width="2" points="269.85,-390.19 269.06,-396.5 273.61,-392.05 269.85,-390.19"/>
<polyline fill="none" stroke="orange" stroke-width="2" points="271.73,-391.12 273.06,-388.43 "/>
<ellipse fill="none" stroke="orange" stroke-width="2" cx="274.13" cy="-386.28" rx="2.4" ry="2.4"/>
</a>
</g>
<text text-anchor="middle" x="251.41" y="-366.59" font-family="Helvetica,sans-Serif" font-size="9.00" fill="orange">no&#45;circular</text>
</g>
<!-- src/client/nav.ts&#45;&gt;src/client/db.ts -->
<g id="edge36" class="edge">
<title>src/client/nav.ts&#45;&gt;src/client/db.ts</title>
<path fill="none" stroke="#000000" stroke-width="2" stroke-opacity="0.200000" d="M355.74,-325.29C386.33,-326.26 438.12,-329.93 480.5,-343 491.03,-346.25 501.97,-351.67 510.93,-356.72"/>
<polygon fill="#000000" fill-opacity="0.200000" stroke="#000000" stroke-width="2" stroke-opacity="0.200000" points="509.98,-358.6 516.22,-359.8 512.09,-354.97 509.98,-358.6"/>
</g>
<!-- src/client/nav.ts&#45;&gt;src/lib/error.ts -->
<g id="edge37" class="edge">
<title>src/client/nav.ts&#45;&gt;src/lib/error.ts</title>
<path fill="none" stroke="#000000" stroke-width="2" stroke-opacity="0.200000" d="M330.82,-315.74C334.95,-289.56 349.66,-213.8 387.5,-165 416.15,-128.05 466,-104.18 498.62,-91.66"/>
<polygon fill="#000000" fill-opacity="0.200000" stroke="#000000" stroke-width="2" stroke-opacity="0.200000" points="499.62,-93.53 504.5,-89.45 498.14,-89.59 499.62,-93.53"/>
</g>
<!-- src/client/components/timer&#45;page.tsx&#45;&gt;src/lib/time.ts -->
<g id="edge26" class="edge">
<title>src/client/components/timer&#45;page.tsx&#45;&gt;src/lib/time.ts</title>
<path fill="none" stroke="#000000" stroke-width="2" stroke-opacity="0.200000" d="M369.84,-360.23C371.54,-359 373.11,-357.59 374.5,-356 400.78,-325.88 369.66,-302.77 387.5,-267 413.72,-214.41 441.34,-216.82 480.5,-173 494.69,-157.12 509.9,-137.91 519.77,-125.12"/>
<polygon fill="#000000" fill-opacity="0.200000" stroke="#000000" stroke-width="2" stroke-opacity="0.200000" points="521.67,-126.1 523.65,-120.06 518.34,-123.54 521.67,-126.1"/>
</g>
<!-- src/client/components/timer&#45;page.tsx&#45;&gt;src/client/hooks/useUserId.ts -->
<g id="edge22" class="edge">
<title>src/client/components/timer&#45;page.tsx&#45;&gt;src/client/hooks/useUserId.ts</title>
<path fill="none" stroke="#000000" stroke-width="2" stroke-opacity="0.200000" d="M367.96,-378.08C370.41,-379.74 372.64,-381.69 374.5,-384 391.33,-404.88 367.54,-486.08 387.5,-504 420.55,-533.67 476.74,-514.85 507.93,-500.61"/>
<polygon fill="#000000" fill-opacity="0.200000" stroke="#000000" stroke-width="2" stroke-opacity="0.200000" points="508.92,-502.47 513.46,-498.02 507.13,-498.67 508.92,-502.47"/>
</g>
<!-- src/client/components/timer&#45;page.tsx&#45;&gt;src/client/db.ts -->
<g id="edge21" class="edge">
<title>src/client/components/timer&#45;page.tsx&#45;&gt;src/client/db.ts</title>
<path fill="none" stroke="#000000" stroke-width="2" stroke-opacity="0.200000" d="M365.92,-378.02C369.03,-379.69 371.95,-381.66 374.5,-384 385.21,-393.82 375.35,-406.02 387.5,-414 422.05,-436.68 441.91,-428.81 480.5,-414 496.76,-407.76 511.05,-393.51 520.14,-382.71"/>
<polygon fill="#000000" fill-opacity="0.200000" stroke="#000000" stroke-width="2" stroke-opacity="0.200000" points="521.79,-384.01 523.94,-378.03 518.53,-381.37 521.79,-384.01"/>
</g>
<!-- src/client/components/timer&#45;page.tsx&#45;&gt;src/lib/error.ts -->
<g id="edge25" class="edge">
<title>src/client/components/timer&#45;page.tsx&#45;&gt;src/lib/error.ts</title>
<path fill="none" stroke="#000000" stroke-width="2" stroke-opacity="0.200000" d="M369.59,-360.64C371.41,-359.31 373.07,-357.77 374.5,-356 400.01,-324.48 363.71,-206.83 387.5,-174 413.7,-137.84 452.07,-170.43 480.5,-136 492.04,-122.02 476.65,-109.72 488.5,-96 491.35,-92.7 494.99,-90.12 498.92,-88.11"/>
<polygon fill="#000000" fill-opacity="0.200000" stroke="#000000" stroke-width="2" stroke-opacity="0.200000" points="499.76,-90.04 504.42,-85.71 498.08,-86.19 499.76,-90.04"/>
</g>
<!-- src/client/components/ui/link.tsx -->
<g id="node18" class="node">
<title>src/client/components/ui/link.tsx</title>
<g id="a_node18"><a xlink:href="src/client/components/ui/link.tsx" xlink:title="link.tsx">
<path fill="#bbfeff" stroke="black" d="M181,-412C181,-412 139,-412 139,-412 136,-412 133,-409 133,-406 133,-406 133,-400 133,-400 133,-397 136,-394 139,-394 139,-394 181,-394 181,-394 184,-394 187,-397 187,-400 187,-400 187,-406 187,-406 187,-409 184,-412 181,-412"/>
<text text-anchor="start" x="143.5" y="-400.8" font-family="Helvetica,sans-Serif" font-size="9.00">link.tsx</text>
</a>
</g>
</g>
<!-- src/client/components/timer&#45;page.tsx&#45;&gt;src/client/components/ui/link.tsx -->
<g id="edge23" class="edge">
<title>src/client/components/timer&#45;page.tsx&#45;&gt;src/client/components/ui/link.tsx</title>
<g id="a_edge23"><a xlink:title="no&#45;circular">
<path fill="none" stroke="orange" stroke-width="2" d="M287.36,-374.04C264.4,-377.27 235.16,-382 209.5,-388 206.65,-388.67 203.72,-389.41 200.79,-390.21"/>
<polygon fill="orange" stroke="orange" stroke-width="2" points="192.42,-390.45 187.25,-394.15 193.59,-394.49 192.42,-390.45"/>
<polyline fill="none" stroke="orange" stroke-width="2" points="193.01,-392.47 195.89,-391.63 "/>
<ellipse fill="none" stroke="orange" stroke-width="2" cx="198.19" cy="-390.96" rx="2.4" ry="2.4"/>
</a>
</g>
<text text-anchor="middle" x="212.65" y="-385.01" font-family="Helvetica,sans-Serif" font-size="9.00" fill="orange">no&#45;circular</text>
</g>
<!-- src/client/components/visual&#45;timer.tsx -->
<g id="node19" class="node">
<title>src/client/components/visual&#45;timer.tsx</title>
<g id="a_node19"><a xlink:href="src/client/components/visual-timer.tsx" xlink:title="visual&#45;timer.tsx">
<path fill="#bbfeff" stroke="black" d="M466.5,-408C466.5,-408 393.5,-408 393.5,-408 390.5,-408 387.5,-405 387.5,-402 387.5,-402 387.5,-396 387.5,-396 387.5,-393 390.5,-390 393.5,-390 393.5,-390 466.5,-390 466.5,-390 469.5,-390 472.5,-393 472.5,-396 472.5,-396 472.5,-402 472.5,-402 472.5,-405 469.5,-408 466.5,-408"/>
<text text-anchor="start" x="395.5" y="-396.8" font-family="Helvetica,sans-Serif" font-size="9.00">visual&#45;timer.tsx</text>
</a>
</g>
</g>
<!-- src/client/components/timer&#45;page.tsx&#45;&gt;src/client/components/visual&#45;timer.tsx -->
<g id="edge24" class="edge">
<title>src/client/components/timer&#45;page.tsx&#45;&gt;src/client/components/visual&#45;timer.tsx</title>
<path fill="none" stroke="#000000" stroke-width="2" stroke-opacity="0.200000" d="M359.35,-378C369.88,-381.18 381.84,-384.78 392.83,-388.09"/>
<polygon fill="#000000" fill-opacity="0.200000" stroke="#000000" stroke-width="2" stroke-opacity="0.200000" points="392.47,-390.18 398.82,-389.9 393.69,-386.16 392.47,-390.18"/>
</g>
<!-- src/client/components/ui/link.tsx&#45;&gt;src/client/components/router.tsx -->
<g id="edge28" class="edge">
<title>src/client/components/ui/link.tsx&#45;&gt;src/client/components/router.tsx</title>
<g id="a_edge28"><a xlink:title="no&#45;circular">
<path fill="none" stroke="orange" stroke-width="2" d="M187.24,-403C189.91,-403 192.66,-403 195.45,-403"/>
<polygon fill="orange" stroke="orange" stroke-width="2" points="203.36,-405.1 209.36,-403 203.36,-400.9 203.36,-405.1"/>
<polyline fill="none" stroke="orange" stroke-width="2" points="203.36,-403 200.36,-403 "/>
<ellipse fill="none" stroke="orange" stroke-width="2" cx="197.96" cy="-403" rx="2.4" ry="2.4"/>
</a>
</g>
<text text-anchor="middle" x="219.88" y="-395.8" font-family="Helvetica,sans-Serif" font-size="9.00" fill="orange">no&#45;circular</text>
</g>
<!-- src/client/components/ui/link.tsx&#45;&gt;src/client/nav.ts -->
<g id="edge29" class="edge">
<title>src/client/components/ui/link.tsx&#45;&gt;src/client/nav.ts</title>
<g id="a_edge29"><a xlink:title="no&#45;circular">
<path fill="none" stroke="orange" stroke-width="2" d="M187,-397.78C192.46,-395.58 197.7,-392.45 201.5,-388 213.27,-374.21 196.65,-360.79 209.5,-348 229.63,-327.97 261.69,-322.73 287.32,-322.22"/>
<polygon fill="orange" stroke="orange" stroke-width="2" points="295.13,-324.41 301.15,-322.38 295.17,-320.21 295.13,-324.41"/>
<polyline fill="none" stroke="orange" stroke-width="2" points="295.15,-322.31 292.15,-322.28 "/>
<ellipse fill="none" stroke="orange" stroke-width="2" cx="289.75" cy="-322.25" rx="2.4" ry="2.4"/>
</a>
</g>
<text text-anchor="middle" x="184.99" y="-340.81" font-family="Helvetica,sans-Serif" font-size="9.00" fill="orange">no&#45;circular</text>
</g>
<!-- src/client/components/ui/button.tsx -->
<g id="node20" class="node">
<title>src/client/components/ui/button.tsx</title>
<g id="a_node20"><a xlink:href="src/client/components/ui/button.tsx" xlink:title="button.tsx">
<path fill="#bbfeff" stroke="black" d="M186,-382C186,-382 134,-382 134,-382 131,-382 128,-379 128,-376 128,-376 128,-370 128,-370 128,-367 131,-364 134,-364 134,-364 186,-364 186,-364 189,-364 192,-367 192,-370 192,-370 192,-376 192,-376 192,-379 189,-382 186,-382"/>
<text text-anchor="start" x="136" y="-370.8" font-family="Helvetica,sans-Serif" font-size="9.00">button.tsx</text>
</a>
</g>
</g>
<!-- src/lib/utils.ts -->
<g id="node21" class="node">
<title>src/lib/utils.ts</title>
<g id="a_node21"><a xlink:href="src/lib/utils.ts" xlink:title="utils.ts">
<path fill="#ddfeff" stroke="black" d="M552.5,-60C552.5,-60 510.5,-60 510.5,-60 507.5,-60 504.5,-57 504.5,-54 504.5,-54 504.5,-48 504.5,-48 504.5,-45 507.5,-42 510.5,-42 510.5,-42 552.5,-42 552.5,-42 555.5,-42 558.5,-45 558.5,-48 558.5,-48 558.5,-54 558.5,-54 558.5,-57 555.5,-60 552.5,-60"/>
<text text-anchor="start" x="516" y="-48.8" font-family="Helvetica,sans-Serif" font-size="9.00">utils.ts</text>
</a>
</g>
</g>
<!-- src/client/components/ui/button.tsx&#45;&gt;src/lib/utils.ts -->
<g id="edge27" class="edge">
<title>src/client/components/ui/button.tsx&#45;&gt;src/lib/utils.ts</title>
<path fill="none" stroke="#000000" stroke-width="2" stroke-opacity="0.200000" d="M179.51,-363.77C187.6,-358.76 196.4,-351.77 201.5,-343 216.36,-317.46 196.68,-303.62 209.5,-277 258.46,-175.35 291.27,-154.91 387.5,-96 422.21,-74.75 467.87,-62.67 498.16,-56.49"/>
<polygon fill="#000000" fill-opacity="0.200000" stroke="#000000" stroke-width="2" stroke-opacity="0.200000" points="498.9,-58.48 504.38,-55.26 498.08,-54.36 498.9,-58.48"/>
</g>
<!-- src/server/db/schema.ts -->
<g id="node23" class="node">
<title>src/server/db/schema.ts</title>
<g id="a_node23"><a xlink:href="src/server/db/schema.ts" xlink:title="schema.ts">
<path fill="#ddfeff" stroke="black" d="M724,-194C724,-194 673,-194 673,-194 670,-194 667,-191 667,-188 667,-188 667,-182 667,-182 667,-179 670,-176 673,-176 673,-176 724,-176 724,-176 727,-176 730,-179 730,-182 730,-182 730,-188 730,-188 730,-191 727,-194 724,-194"/>
<text text-anchor="start" x="675" y="-182.8" font-family="Helvetica,sans-Serif" font-size="9.00">schema.ts</text>
</a>
</g>
</g>
<!-- src/server/actions/index.ts&#45;&gt;src/server/db/schema.ts -->
<g id="edge38" class="edge">
<title>src/server/actions/index.ts&#45;&gt;src/server/db/schema.ts</title>
<path fill="none" stroke="#000000" stroke-width="2" stroke-opacity="0.200000" d="M558.6,-176.94C568.9,-174.15 580.9,-171.38 592,-170 619.35,-166.61 626.82,-165.45 654,-170 659.21,-170.87 664.63,-172.3 669.81,-173.93"/>
<polygon fill="#000000" fill-opacity="0.200000" stroke="#000000" stroke-width="2" stroke-opacity="0.200000" points="669.38,-176 675.74,-175.91 670.72,-172.02 669.38,-176"/>
</g>
<!-- src/server/db/index.ts -->
<g id="node24" class="node">
<title>src/server/db/index.ts</title>
<g id="a_node24"><a xlink:href="src/server/db/index.ts" xlink:title="index.ts">
<path fill="#ddfeff" stroke="black" d="M648,-194C648,-194 606,-194 606,-194 603,-194 600,-191 600,-188 600,-188 600,-182 600,-182 600,-179 603,-176 606,-176 606,-176 648,-176 648,-176 651,-176 654,-179 654,-182 654,-182 654,-188 654,-188 654,-191 651,-194 648,-194"/>
<text text-anchor="start" x="608.5" y="-182.8" font-family="Helvetica,sans-Serif" font-size="9.00">index.ts</text>
</a>
</g>
</g>
<!-- src/server/actions/index.ts&#45;&gt;src/server/db/index.ts -->
<g id="edge39" class="edge">
<title>src/server/actions/index.ts&#45;&gt;src/server/db/index.ts</title>
<path fill="none" stroke="#000000" stroke-width="2" stroke-opacity="0.200000" d="M558.54,-185C569.4,-185 582.11,-185 593.56,-185"/>
<polygon fill="#000000" fill-opacity="0.200000" stroke="#000000" stroke-width="2" stroke-opacity="0.200000" points="593.77,-187.1 599.77,-185 593.77,-182.9 593.77,-187.1"/>
</g>
<!-- src/server/db/index.ts&#45;&gt;src/server/db/schema.ts -->
<g id="edge40" class="edge">
<title>src/server/db/index.ts&#45;&gt;src/server/db/schema.ts</title>
<path fill="none" stroke="#000000" stroke-width="2" stroke-opacity="0.200000" d="M654.27,-185C656.35,-185 658.47,-185 660.6,-185"/>
<polygon fill="#000000" fill-opacity="0.200000" stroke="#000000" stroke-width="2" stroke-opacity="0.200000" points="660.99,-187.1 666.99,-185 660.99,-182.9 660.99,-187.1"/>
</g>
<!-- src/server/env.ts -->
<g id="node25" class="node">
<title>src/server/env.ts</title>
<g id="a_node25"><a xlink:href="src/server/env.ts" xlink:title="env.ts">
<path fill="#ddfeff" stroke="black" d="M719.5,-246C719.5,-246 677.5,-246 677.5,-246 674.5,-246 671.5,-243 671.5,-240 671.5,-240 671.5,-234 671.5,-234 671.5,-231 674.5,-228 677.5,-228 677.5,-228 719.5,-228 719.5,-228 722.5,-228 725.5,-231 725.5,-234 725.5,-234 725.5,-240 725.5,-240 725.5,-243 722.5,-246 719.5,-246"/>
<text text-anchor="start" x="684.5" y="-234.8" font-family="Helvetica,sans-Serif" font-size="9.00">env.ts</text>
</a>
</g>
</g>
<!-- src/server/db/index.ts&#45;&gt;src/server/env.ts -->
<g id="edge41" class="edge">
<title>src/server/db/index.ts&#45;&gt;src/server/env.ts</title>
<path fill="none" stroke="#000000" stroke-width="2" stroke-opacity="0.200000" d="M635.64,-194.05C643.02,-202.37 654.84,-214.66 667,-223 667.97,-223.67 668.98,-224.32 670.02,-224.95"/>
<polygon fill="#000000" fill-opacity="0.200000" stroke="#000000" stroke-width="2" stroke-opacity="0.200000" points="669.08,-226.83 675.34,-227.93 671.14,-223.17 669.08,-226.83"/>
</g>
</g>
</svg>
