<?xml version="1.0" encoding="UTF-8" standalone="no"?>
<!DOCTYPE svg PUBLIC "-//W3C//DTD SVG 1.1//EN"
 "http://www.w3.org/Graphics/SVG/1.1/DTD/svg11.dtd">
<!-- Generated by graphviz version 2.43.0 (0)
 -->
<!-- Title: dependency&#45;cruiser output Pages: 1 -->
<svg width="769pt" height="608pt"
 viewBox="0.00 0.00 769.00 608.00" xmlns="http://www.w3.org/2000/svg" xmlns:xlink="http://www.w3.org/1999/xlink">
<g id="graph0" class="graph" transform="scale(1 1) rotate(0) translate(4 604)">
<title>dependency&#45;cruiser output</title>
<polygon fill="white" stroke="transparent" points="-4,4 -4,-604 765,-604 765,4 -4,4"/>
<g id="clust1" class="cluster">
<title>cluster_src</title>
<path fill="#ffffff" stroke="black" stroke-width="2" d="M20,-26C20,-26 741,-26 741,-26 747,-26 753,-32 753,-38 753,-38 753,-580 753,-580 753,-586 747,-592 741,-592 741,-592 20,-592 20,-592 14,-592 8,-586 8,-580 8,-580 8,-38 8,-38 8,-32 14,-26 20,-26"/>
<text text-anchor="middle" x="380.5" y="-580.8" font-family="Helvetica,sans-Serif" font-weight="bold" font-size="9.00">src</text>
</g>
<g id="clust2" class="cluster">
<title>cluster_src/app</title>
<path fill="#ffffff" stroke="black" stroke-width="2" d="M28,-34C28,-34 182,-34 182,-34 188,-34 194,-40 194,-46 194,-46 194,-164 194,-164 194,-170 188,-176 182,-176 182,-176 28,-176 28,-176 22,-176 16,-170 16,-164 16,-164 16,-46 16,-46 16,-40 22,-34 28,-34"/>
<text text-anchor="middle" x="105" y="-164.8" font-family="Helvetica,sans-Serif" font-weight="bold" font-size="9.00">app</text>
</g>
<g id="clust3" class="cluster">
<title>cluster_src/app/timer</title>
<path fill="#ffffff" stroke="black" stroke-width="2" d="M36,-98C36,-98 84,-98 84,-98 90,-98 96,-104 96,-110 96,-110 96,-138 96,-138 96,-144 90,-150 84,-150 84,-150 36,-150 36,-150 30,-150 24,-144 24,-138 24,-138 24,-110 24,-110 24,-104 30,-98 36,-98"/>
<text text-anchor="middle" x="60" y="-138.8" font-family="Helvetica,sans-Serif" font-weight="bold" font-size="9.00">timer</text>
</g>
<g id="clust4" class="cluster">
<title>cluster_src/client</title>
<path fill="#ffffff" stroke="black" stroke-width="2" d="M116,-184C116,-184 571,-184 571,-184 577,-184 583,-190 583,-196 583,-196 583,-434 583,-434 583,-440 577,-446 571,-446 571,-446 116,-446 116,-446 110,-446 104,-440 104,-434 104,-434 104,-196 104,-196 104,-190 110,-184 116,-184"/>
<text text-anchor="middle" x="343.5" y="-434.8" font-family="Helvetica,sans-Serif" font-weight="bold" font-size="9.00">client</text>
</g>
<g id="clust5" class="cluster">
<title>cluster_src/client/components</title>
<path fill="#ffffff" stroke="black" stroke-width="2" d="M126.5,-252C126.5,-252 388,-252 388,-252 394,-252 400,-258 400,-264 400,-264 400,-408 400,-408 400,-414 394,-420 388,-420 388,-420 126.5,-420 126.5,-420 120.5,-420 114.5,-414 114.5,-408 114.5,-408 114.5,-264 114.5,-264 114.5,-258 120.5,-252 126.5,-252"/>
<text text-anchor="middle" x="257.25" y="-408.8" font-family="Helvetica,sans-Serif" font-weight="bold" font-size="9.00">components</text>
</g>
<g id="clust6" class="cluster">
<title>cluster_src/client/components/ui</title>
<path fill="#ffffff" stroke="black" stroke-width="2" d="M321.5,-286C321.5,-286 377.5,-286 377.5,-286 383.5,-286 389.5,-292 389.5,-298 389.5,-298 389.5,-356 389.5,-356 389.5,-362 383.5,-368 377.5,-368 377.5,-368 321.5,-368 321.5,-368 315.5,-368 309.5,-362 309.5,-356 309.5,-356 309.5,-298 309.5,-298 309.5,-292 315.5,-286 321.5,-286"/>
<text text-anchor="middle" x="349.5" y="-356.8" font-family="Helvetica,sans-Serif" font-weight="bold" font-size="9.00">ui</text>
</g>
<g id="clust7" class="cluster">
<title>cluster_src/client/hooks</title>
<path fill="#ffffff" stroke="black" stroke-width="2" d="M420,-224C420,-224 485,-224 485,-224 491,-224 497,-230 497,-236 497,-236 497,-294 497,-294 497,-300 491,-306 485,-306 485,-306 420,-306 420,-306 414,-306 408,-300 408,-294 408,-294 408,-236 408,-236 408,-230 414,-224 420,-224"/>
<text text-anchor="middle" x="452.5" y="-294.8" font-family="Helvetica,sans-Serif" font-weight="bold" font-size="9.00">hooks</text>
</g>
<g id="clust8" class="cluster">
<title>cluster_src/client/styles</title>
<path fill="#ffffff" stroke="black" stroke-width="2" d="M124,-192C124,-192 181,-192 181,-192 187,-192 193,-198 193,-204 193,-204 193,-232 193,-232 193,-238 187,-244 181,-244 181,-244 124,-244 124,-244 118,-244 112,-238 112,-232 112,-232 112,-204 112,-204 112,-198 118,-192 124,-192"/>
<text text-anchor="middle" x="152.5" y="-232.8" font-family="Helvetica,sans-Serif" font-weight="bold" font-size="9.00">styles</text>
</g>
<g id="clust9" class="cluster">
<title>cluster_src/lib</title>
<path fill="#ffffff" stroke="black" stroke-width="2" d="M525,-454C525,-454 571,-454 571,-454 577,-454 583,-460 583,-466 583,-466 583,-554 583,-554 583,-560 577,-566 571,-566 571,-566 525,-566 525,-566 519,-566 513,-560 513,-554 513,-554 513,-466 513,-466 513,-460 519,-454 525,-454"/>
<text text-anchor="middle" x="548" y="-554.8" font-family="Helvetica,sans-Serif" font-weight="bold" font-size="9.00">lib</text>
</g>
<g id="clust10" class="cluster">
<title>cluster_src/server</title>
<path fill="#ffffff" stroke="black" stroke-width="2" d="M517,-58C517,-58 733,-58 733,-58 739,-58 745,-64 745,-70 745,-70 745,-164 745,-164 745,-170 739,-176 733,-176 733,-176 517,-176 517,-176 511,-176 505,-170 505,-164 505,-164 505,-70 505,-70 505,-64 511,-58 517,-58"/>
<text text-anchor="middle" x="625" y="-164.8" font-family="Helvetica,sans-Serif" font-weight="bold" font-size="9.00">server</text>
</g>
<g id="clust11" class="cluster">
<title>cluster_src/server/actions</title>
<path fill="#ffffff" stroke="black" stroke-width="2" d="M525,-72C525,-72 571,-72 571,-72 577,-72 583,-78 583,-84 583,-84 583,-112 583,-112 583,-118 577,-124 571,-124 571,-124 525,-124 525,-124 519,-124 513,-118 513,-112 513,-112 513,-84 513,-84 513,-78 519,-72 525,-72"/>
<text text-anchor="middle" x="548" y="-112.8" font-family="Helvetica,sans-Serif" font-weight="bold" font-size="9.00">actions</text>
</g>
<g id="clust12" class="cluster">
<title>cluster_src/server/db</title>
<path fill="#ffffff" stroke="black" stroke-width="2" d="M603,-72C603,-72 725,-72 725,-72 731,-72 737,-78 737,-84 737,-84 737,-112 737,-112 737,-118 731,-124 725,-124 725,-124 603,-124 603,-124 597,-124 591,-118 591,-112 591,-112 591,-84 591,-84 591,-78 597,-72 603,-72"/>
<text text-anchor="middle" x="664" y="-112.8" font-family="Helvetica,sans-Serif" font-weight="bold" font-size="9.00">db</text>
</g>
<!-- assert -->
<g id="node1" class="node">
<title>assert</title>
<g id="a_node1"><a xlink:href="https://nodejs.org/api/assert.html" xlink:title="assert">
<path fill="#ffffcc" stroke="grey" d="M269,-18C269,-18 227,-18 227,-18 224,-18 221,-15 221,-12 221,-12 221,-6 221,-6 221,-3 224,0 227,0 227,0 269,0 269,0 272,0 275,-3 275,-6 275,-6 275,-12 275,-12 275,-15 272,-18 269,-18"/>
<text text-anchor="middle" x="248" y="-6.8" font-family="Helvetica,sans-Serif" font-size="9.00" fill="grey">assert</text>
</a>
</g>
</g>
<!-- src/app/layout.tsx -->
<g id="node2" class="node">
<title>src/app/layout.tsx</title>
<g id="a_node2"><a xlink:href="src/app/layout.tsx" xlink:title="layout.tsx">
<path fill="#bbfeff" stroke="black" d="M84.5,-60C84.5,-60 35.5,-60 35.5,-60 32.5,-60 29.5,-57 29.5,-54 29.5,-54 29.5,-48 29.5,-48 29.5,-45 32.5,-42 35.5,-42 35.5,-42 84.5,-42 84.5,-42 87.5,-42 90.5,-45 90.5,-48 90.5,-48 90.5,-54 90.5,-54 90.5,-57 87.5,-60 84.5,-60"/>
<text text-anchor="start" x="37.5" y="-48.8" font-family="Helvetica,sans-Serif" font-size="9.00">layout.tsx</text>
</a>
</g>
</g>
<!-- src/app/manifest.ts -->
<g id="node3" class="node">
<title>src/app/manifest.ts</title>
<g id="a_node3"><a xlink:href="src/app/manifest.ts" xlink:title="manifest.ts">
<path fill="#ddfeff" stroke="black" d="M180,-60C180,-60 125,-60 125,-60 122,-60 119,-57 119,-54 119,-54 119,-48 119,-48 119,-45 122,-42 125,-42 125,-42 180,-42 180,-42 183,-42 186,-45 186,-48 186,-48 186,-54 186,-54 186,-57 183,-60 180,-60"/>
<text text-anchor="start" x="127" y="-48.8" font-family="Helvetica,sans-Serif" font-size="9.00">manifest.ts</text>
</a>
</g>
</g>
<!-- src/app/layout.tsx&#45;&gt;src/app/manifest.ts -->
<g id="edge1" class="edge">
<title>src/app/layout.tsx&#45;&gt;src/app/manifest.ts</title>
<path fill="none" stroke="#000000" stroke-width="2" stroke-opacity="0.200000" d="M90.63,-51C97.72,-51 105.39,-51 112.82,-51"/>
<polygon fill="#000000" fill-opacity="0.200000" stroke="#000000" stroke-width="2" stroke-opacity="0.200000" points="112.99,-53.1 118.99,-51 112.99,-48.9 112.99,-53.1"/>
</g>
<!-- src/client/components/loading&#45;page.tsx -->
<g id="node4" class="node">
<title>src/client/components/loading&#45;page.tsx</title>
<g id="a_node4"><a xlink:href="src/client/components/loading-page.tsx" xlink:title="loading&#45;page.tsx">
<path fill="#bbfeff" stroke="black" d="M288,-278C288,-278 208,-278 208,-278 205,-278 202,-275 202,-272 202,-272 202,-266 202,-266 202,-263 205,-260 208,-260 208,-260 288,-260 288,-260 291,-260 294,-263 294,-266 294,-266 294,-272 294,-272 294,-275 291,-278 288,-278"/>
<text text-anchor="start" x="210" y="-266.8" font-family="Helvetica,sans-Serif" font-size="9.00">loading&#45;page.tsx</text>
</a>
</g>
</g>
<!-- src/app/layout.tsx&#45;&gt;src/client/components/loading&#45;page.tsx -->
<g id="edge2" class="edge">
<title>src/app/layout.tsx&#45;&gt;src/client/components/loading&#45;page.tsx</title>
<path fill="none" stroke="#000000" stroke-width="2" stroke-opacity="0.200000" d="M86.32,-60.05C89.73,-61.77 93.06,-63.76 96,-66 167.32,-120.38 220.93,-217.16 239.71,-254.1"/>
<polygon fill="#000000" fill-opacity="0.200000" stroke="#000000" stroke-width="2" stroke-opacity="0.200000" points="238.05,-255.47 242.62,-259.89 241.8,-253.59 238.05,-255.47"/>
</g>
<!-- src/client/styles/globals.css -->
<g id="node5" class="node">
<title>src/client/styles/globals.css</title>
<g id="a_node5"><a xlink:href="src/client/styles/globals.css" xlink:title="globals.css">
<path fill="#ffffcc" stroke="black" d="M179,-218C179,-218 126,-218 126,-218 123,-218 120,-215 120,-212 120,-212 120,-206 120,-206 120,-203 123,-200 126,-200 126,-200 179,-200 179,-200 182,-200 185,-203 185,-206 185,-206 185,-212 185,-212 185,-215 182,-218 179,-218"/>
<text text-anchor="start" x="128" y="-206.8" font-family="Helvetica,sans-Serif" font-size="9.00">globals.css</text>
</a>
</g>
</g>
<!-- src/app/layout.tsx&#45;&gt;src/client/styles/globals.css -->
<g id="edge3" class="edge">
<title>src/app/layout.tsx&#45;&gt;src/client/styles/globals.css</title>
<path fill="none" stroke="#000000" stroke-width="2" stroke-opacity="0.200000" d="M90.11,-60.18C92.37,-61.81 94.39,-63.74 96,-66 110.59,-86.51 91.08,-157.4 104,-179 108.39,-186.34 115.34,-192.17 122.59,-196.66"/>
<polygon fill="#000000" fill-opacity="0.200000" stroke="#000000" stroke-width="2" stroke-opacity="0.200000" points="121.9,-198.69 128.15,-199.84 123.98,-195.04 121.9,-198.69"/>
</g>
<!-- src/app/page.tsx -->
<g id="node6" class="node">
<title>src/app/page.tsx</title>
<g id="a_node6"><a xlink:href="src/app/page.tsx" xlink:title="page.tsx">
<path fill="#bbfeff" stroke="black" d="M82,-90C82,-90 38,-90 38,-90 35,-90 32,-87 32,-84 32,-84 32,-78 32,-78 32,-75 35,-72 38,-72 38,-72 82,-72 82,-72 85,-72 88,-75 88,-78 88,-78 88,-84 88,-84 88,-87 85,-90 82,-90"/>
<text text-anchor="start" x="40" y="-78.8" font-family="Helvetica,sans-Serif" font-size="9.00">page.tsx</text>
</a>
</g>
</g>
<!-- src/client/components/router.tsx -->
<g id="node7" class="node">
<title>src/client/components/router.tsx</title>
<g id="a_node7"><a xlink:href="src/client/components/router.tsx" xlink:title="router.tsx">
<path fill="#bbfeff" stroke="black" d="M176.5,-278C176.5,-278 128.5,-278 128.5,-278 125.5,-278 122.5,-275 122.5,-272 122.5,-272 122.5,-266 122.5,-266 122.5,-263 125.5,-260 128.5,-260 128.5,-260 176.5,-260 176.5,-260 179.5,-260 182.5,-263 182.5,-266 182.5,-266 182.5,-272 182.5,-272 182.5,-275 179.5,-278 176.5,-278"/>
<text text-anchor="start" x="130.5" y="-266.8" font-family="Helvetica,sans-Serif" font-size="9.00">router.tsx</text>
</a>
</g>
</g>
<!-- src/app/page.tsx&#45;&gt;src/client/components/router.tsx -->
<g id="edge4" class="edge">
<title>src/app/page.tsx&#45;&gt;src/client/components/router.tsx</title>
<path fill="none" stroke="#000000" stroke-width="2" stroke-opacity="0.200000" d="M88.14,-88.03C91.2,-89.84 93.94,-92.13 96,-95 115.69,-122.5 85.05,-218.98 104,-247 107.22,-251.75 111.74,-255.5 116.72,-258.45"/>
<polygon fill="#000000" fill-opacity="0.200000" stroke="#000000" stroke-width="2" stroke-opacity="0.200000" points="115.98,-260.43 122.27,-261.34 117.92,-256.71 115.98,-260.43"/>
</g>
<!-- src/client/db.ts -->
<g id="node8" class="node">
<title>src/client/db.ts</title>
<g id="a_node8"><a xlink:href="src/client/db.ts" xlink:title="db.ts">
<path fill="#ddfeff" stroke="black" d="M569,-331C569,-331 527,-331 527,-331 524,-331 521,-328 521,-325 521,-325 521,-319 521,-319 521,-316 524,-313 527,-313 527,-313 569,-313 569,-313 572,-313 575,-316 575,-319 575,-319 575,-325 575,-325 575,-328 572,-331 569,-331"/>
<text text-anchor="start" x="536" y="-319.8" font-family="Helvetica,sans-Serif" font-size="9.00">db.ts</text>
</a>
</g>
</g>
<!-- src/app/page.tsx&#45;&gt;src/client/db.ts -->
<g id="edge5" class="edge">
<title>src/app/page.tsx&#45;&gt;src/client/db.ts</title>
<path fill="none" stroke="#000000" stroke-width="2" stroke-opacity="0.200000" d="M88.22,-87.97C91.26,-89.8 93.98,-92.1 96,-95 106.4,-109.97 90.95,-410.27 104,-423 151.08,-468.94 337.18,-442.5 400,-423 456,-405.62 509.59,-358.68 533.69,-335.43"/>
<polygon fill="#000000" fill-opacity="0.200000" stroke="#000000" stroke-width="2" stroke-opacity="0.200000" points="535.29,-336.81 538.11,-331.11 532.35,-333.8 535.29,-336.81"/>
</g>
<!-- src/lib/error.ts -->
<g id="node9" class="node">
<title>src/lib/error.ts</title>
<g id="a_node9"><a xlink:href="src/lib/error.ts" xlink:title="error.ts">
<path fill="#ddfeff" stroke="black" d="M569,-540C569,-540 527,-540 527,-540 524,-540 521,-537 521,-534 521,-534 521,-528 521,-528 521,-525 524,-522 527,-522 527,-522 569,-522 569,-522 572,-522 575,-525 575,-528 575,-528 575,-534 575,-534 575,-537 572,-540 569,-540"/>
<text text-anchor="start" x="531.5" y="-528.8" font-family="Helvetica,sans-Serif" font-size="9.00">error.ts</text>
</a>
</g>
</g>
<!-- src/app/page.tsx&#45;&gt;src/lib/error.ts -->
<g id="edge6" class="edge">
<title>src/app/page.tsx&#45;&gt;src/lib/error.ts</title>
<path fill="none" stroke="#000000" stroke-width="2" stroke-opacity="0.200000" d="M88.22,-87.97C91.26,-89.79 93.99,-92.1 96,-95 107.21,-111.16 91.25,-434.02 104,-449 130.88,-480.58 417.29,-516.12 514.75,-527.38"/>
<polygon fill="#000000" fill-opacity="0.200000" stroke="#000000" stroke-width="2" stroke-opacity="0.200000" points="514.69,-529.48 520.89,-528.08 515.17,-525.31 514.69,-529.48"/>
</g>
<!-- src/client/components/router.tsx&#45;&gt;assert -->
<g id="edge21" class="edge">
<title>src/client/components/router.tsx&#45;&gt;assert</title>
<path fill="none" stroke="#000000" stroke-dasharray="5,2" stroke-opacity="0.200000" d="M178.47,-259.95C184.37,-256.71 190.08,-252.46 194,-247 206.1,-230.14 197.85,-221.33 202,-201 215.48,-134.92 234.86,-56.85 243.08,-24.37"/>
<polygon fill="#000000" fill-opacity="0.200000" stroke="#000000" stroke-opacity="0.200000" points="245.22,-24.48 244.66,-18.15 241.14,-23.45 245.22,-24.48"/>
</g>
<!-- src/client/components/router.tsx&#45;&gt;src/client/components/loading&#45;page.tsx -->
<g id="edge17" class="edge">
<title>src/client/components/router.tsx&#45;&gt;src/client/components/loading&#45;page.tsx</title>
<path fill="none" stroke="#000000" stroke-width="2" stroke-opacity="0.200000" d="M182.57,-269C186.77,-269 191.2,-269 195.68,-269"/>
<polygon fill="#000000" fill-opacity="0.200000" stroke="#000000" stroke-width="2" stroke-opacity="0.200000" points="195.81,-271.1 201.81,-269 195.81,-266.9 195.81,-271.1"/>
</g>
<!-- src/client/components/router.tsx&#45;&gt;src/client/db.ts -->
<g id="edge19" class="edge">
<title>src/client/components/router.tsx&#45;&gt;src/client/db.ts</title>
<path fill="none" stroke="#000000" stroke-width="2" stroke-opacity="0.200000" d="M172.69,-259.87C218.32,-239.64 334.34,-197.2 400,-254 418.68,-270.16 390.09,-291.99 408,-309 411.83,-312.63 474.79,-317.34 514.65,-319.98"/>
<polygon fill="#000000" fill-opacity="0.200000" stroke="#000000" stroke-width="2" stroke-opacity="0.200000" points="514.71,-322.09 520.84,-320.38 514.99,-317.9 514.71,-322.09"/>
</g>
<!-- src/client/components/router.tsx&#45;&gt;src/lib/error.ts -->
<g id="edge20" class="edge">
<title>src/client/components/router.tsx&#45;&gt;src/lib/error.ts</title>
<path fill="none" stroke="#000000" stroke-width="2" stroke-opacity="0.200000" d="M155.59,-278.2C160.47,-297.82 174.38,-344.28 202,-372 307.24,-477.62 367.29,-458.85 505,-516 508.13,-517.3 511.41,-518.59 514.71,-519.84"/>
<polygon fill="#000000" fill-opacity="0.200000" stroke="#000000" stroke-width="2" stroke-opacity="0.200000" points="514.28,-521.92 520.63,-522.04 515.74,-517.98 514.28,-521.92"/>
</g>
<!-- src/client/hooks/useUserId.ts -->
<g id="node11" class="node">
<title>src/client/hooks/useUserId.ts</title>
<g id="a_node11"><a xlink:href="src/client/hooks/useUserId.ts" xlink:title="useUserId.ts">
<path fill="#ddfeff" stroke="black" d="M483,-280C483,-280 422,-280 422,-280 419,-280 416,-277 416,-274 416,-274 416,-268 416,-268 416,-265 419,-262 422,-262 422,-262 483,-262 483,-262 486,-262 489,-265 489,-268 489,-268 489,-274 489,-274 489,-277 486,-280 483,-280"/>
<text text-anchor="start" x="424" y="-268.8" font-family="Helvetica,sans-Serif" font-size="9.00">useUserId.ts</text>
</a>
</g>
</g>
<!-- src/client/components/router.tsx&#45;&gt;src/client/hooks/useUserId.ts -->
<g id="edge15" class="edge">
<title>src/client/components/router.tsx&#45;&gt;src/client/hooks/useUserId.ts</title>
<path fill="none" stroke="#000000" stroke-width="2" stroke-opacity="0.200000" d="M177.04,-259.95C183.23,-256.64 189.44,-252.37 194,-247 201.01,-238.75 193.18,-230.27 202,-224 219.93,-211.25 382.66,-210.46 400,-224 411.56,-233.02 398.09,-245.19 408,-256 408.85,-256.93 409.76,-257.8 410.72,-258.61"/>
<polygon fill="#000000" fill-opacity="0.200000" stroke="#000000" stroke-width="2" stroke-opacity="0.200000" points="409.77,-260.51 415.88,-262.26 412.19,-257.08 409.77,-260.51"/>
</g>
<!-- src/client/components/home&#45;page.tsx -->
<g id="node13" class="node">
<title>src/client/components/home&#45;page.tsx</title>
<g id="a_node13"><a xlink:href="src/client/components/home-page.tsx" xlink:title="home&#45;page.tsx">
<path fill="#bbfeff" stroke="black" d="M284,-308C284,-308 212,-308 212,-308 209,-308 206,-305 206,-302 206,-302 206,-296 206,-296 206,-293 209,-290 212,-290 212,-290 284,-290 284,-290 287,-290 290,-293 290,-296 290,-296 290,-302 290,-302 290,-305 287,-308 284,-308"/>
<text text-anchor="start" x="214" y="-296.8" font-family="Helvetica,sans-Serif" font-size="9.00">home&#45;page.tsx</text>
</a>
</g>
</g>
<!-- src/client/components/router.tsx&#45;&gt;src/client/components/home&#45;page.tsx -->
<g id="edge16" class="edge">
<title>src/client/components/router.tsx&#45;&gt;src/client/components/home&#45;page.tsx</title>
<path fill="none" stroke="#000000" stroke-width="2" stroke-opacity="0.200000" d="M181.55,-278C191.36,-281.15 202.47,-284.71 212.72,-288"/>
<polygon fill="#000000" fill-opacity="0.200000" stroke="#000000" stroke-width="2" stroke-opacity="0.200000" points="212.29,-290.07 218.64,-289.9 213.57,-286.07 212.29,-290.07"/>
</g>
<!-- src/client/hooks/sync.ts -->
<g id="node16" class="node">
<title>src/client/hooks/sync.ts</title>
<g id="a_node16"><a xlink:href="src/client/hooks/sync.ts" xlink:title="sync.ts">
<path fill="#ddfeff" stroke="black" d="M473.5,-250C473.5,-250 431.5,-250 431.5,-250 428.5,-250 425.5,-247 425.5,-244 425.5,-244 425.5,-238 425.5,-238 425.5,-235 428.5,-232 431.5,-232 431.5,-232 473.5,-232 473.5,-232 476.5,-232 479.5,-235 479.5,-238 479.5,-238 479.5,-244 479.5,-244 479.5,-247 476.5,-250 473.5,-250"/>
<text text-anchor="start" x="436" y="-238.8" font-family="Helvetica,sans-Serif" font-size="9.00">sync.ts</text>
</a>
</g>
</g>
<!-- src/client/components/router.tsx&#45;&gt;src/client/hooks/sync.ts -->
<g id="edge14" class="edge">
<title>src/client/components/router.tsx&#45;&gt;src/client/hooks/sync.ts</title>
<path fill="none" stroke="#000000" stroke-width="2" stroke-opacity="0.200000" d="M178.3,-259.82C184.2,-256.58 189.95,-252.37 194,-247 203.87,-233.91 189.21,-221.26 202,-211 270.64,-155.94 315.04,-188.06 400,-211 412.64,-214.41 425.37,-221.78 435.01,-228.37"/>
<polygon fill="#000000" fill-opacity="0.200000" stroke="#000000" stroke-width="2" stroke-opacity="0.200000" points="433.92,-230.16 440.03,-231.91 436.34,-226.73 433.92,-230.16"/>
</g>
<!-- src/client/components/timer&#45;page.tsx -->
<g id="node17" class="node">
<title>src/client/components/timer&#45;page.tsx</title>
<g id="a_node17"><a xlink:href="src/client/components/timer-page.tsx" xlink:title="timer&#45;page.tsx">
<path fill="#bbfeff" stroke="black" d="M283,-366C283,-366 213,-366 213,-366 210,-366 207,-363 207,-360 207,-360 207,-354 207,-354 207,-351 210,-348 213,-348 213,-348 283,-348 283,-348 286,-348 289,-351 289,-354 289,-354 289,-360 289,-360 289,-363 286,-366 283,-366"/>
<text text-anchor="start" x="215" y="-354.8" font-family="Helvetica,sans-Serif" font-size="9.00">timer&#45;page.tsx</text>
</a>
</g>
</g>
<!-- src/client/components/router.tsx&#45;&gt;src/client/components/timer&#45;page.tsx -->
<g id="edge18" class="edge">
<title>src/client/components/router.tsx&#45;&gt;src/client/components/timer&#45;page.tsx</title>
<path fill="none" stroke="#000000" stroke-width="2" stroke-opacity="0.200000" d="M182.63,-274.32C186.88,-276.17 190.87,-278.66 194,-282 204.02,-292.7 194.63,-301.33 202,-314 208.84,-325.77 219.86,-336.38 229.27,-344.11"/>
<polygon fill="#000000" fill-opacity="0.200000" stroke="#000000" stroke-width="2" stroke-opacity="0.200000" points="228.02,-345.79 234.02,-347.88 230.63,-342.5 228.02,-345.79"/>
</g>
<!-- src/app/timer/page.tsx -->
<g id="node10" class="node">
<title>src/app/timer/page.tsx</title>
<g id="a_node10"><a xlink:href="src/app/timer/page.tsx" xlink:title="page.tsx">
<path fill="#bbfeff" stroke="black" d="M82,-124C82,-124 38,-124 38,-124 35,-124 32,-121 32,-118 32,-118 32,-112 32,-112 32,-109 35,-106 38,-106 38,-106 82,-106 82,-106 85,-106 88,-109 88,-112 88,-112 88,-118 88,-118 88,-121 85,-124 82,-124"/>
<text text-anchor="start" x="40" y="-112.8" font-family="Helvetica,sans-Serif" font-size="9.00">page.tsx</text>
</a>
</g>
</g>
<!-- src/app/timer/page.tsx&#45;&gt;src/client/components/router.tsx -->
<g id="edge7" class="edge">
<title>src/app/timer/page.tsx&#45;&gt;src/client/components/router.tsx</title>
<path fill="none" stroke="#000000" stroke-width="2" stroke-opacity="0.200000" d="M61.53,-124.23C63.36,-147.63 71.2,-210.05 104,-247 107.63,-251.09 112.19,-254.48 117.02,-257.26"/>
<polygon fill="#000000" fill-opacity="0.200000" stroke="#000000" stroke-width="2" stroke-opacity="0.200000" points="116.07,-259.13 122.36,-260.05 118.01,-255.41 116.07,-259.13"/>
</g>
<!-- src/app/timer/page.tsx&#45;&gt;src/client/db.ts -->
<g id="edge8" class="edge">
<title>src/app/timer/page.tsx&#45;&gt;src/client/db.ts</title>
<path fill="none" stroke="#000000" stroke-width="2" stroke-opacity="0.200000" d="M61.35,-124.24C63.51,-179.23 75.97,-462.02 104,-487 169.86,-545.69 429.81,-488.16 497,-431 526.13,-406.21 539.2,-360.86 544.26,-337.23"/>
<polygon fill="#000000" fill-opacity="0.200000" stroke="#000000" stroke-width="2" stroke-opacity="0.200000" points="546.35,-337.47 545.48,-331.18 542.24,-336.64 546.35,-337.47"/>
</g>
<!-- src/app/timer/page.tsx&#45;&gt;src/lib/error.ts -->
<g id="edge10" class="edge">
<title>src/app/timer/page.tsx&#45;&gt;src/lib/error.ts</title>
<path fill="none" stroke="#000000" stroke-width="2" stroke-opacity="0.200000" d="M61.39,-124.18C63.83,-180.12 77.83,-473.78 104,-503 147.46,-551.51 181.87,-535 247,-535 247,-535 247,-535 350.5,-535 408.24,-535 475.5,-533.25 514.47,-532.07"/>
<polygon fill="#000000" fill-opacity="0.200000" stroke="#000000" stroke-width="2" stroke-opacity="0.200000" points="515.01,-534.15 520.94,-531.87 514.88,-529.95 515.01,-534.15"/>
</g>
<!-- src/app/timer/page.tsx&#45;&gt;src/client/hooks/useUserId.ts -->
<g id="edge9" class="edge">
<title>src/app/timer/page.tsx&#45;&gt;src/client/hooks/useUserId.ts</title>
<path fill="none" stroke="#000000" stroke-width="2" stroke-opacity="0.200000" d="M61.48,-124.28C64.23,-175.98 78.81,-426.85 104,-449 150.74,-490.11 332.45,-478.17 400,-423 442.31,-388.45 450.02,-317.67 451.31,-286.42"/>
<polygon fill="#000000" fill-opacity="0.200000" stroke="#000000" stroke-width="2" stroke-opacity="0.200000" points="453.41,-286.44 451.5,-280.37 449.21,-286.31 453.41,-286.44"/>
</g>
<!-- src/lib/time.ts -->
<g id="node12" class="node">
<title>src/lib/time.ts</title>
<g id="a_node12"><a xlink:href="src/lib/time.ts" xlink:title="time.ts">
<path fill="#ddfeff" stroke="black" d="M569,-510C569,-510 527,-510 527,-510 524,-510 521,-507 521,-504 521,-504 521,-498 521,-498 521,-495 524,-492 527,-492 527,-492 569,-492 569,-492 572,-492 575,-495 575,-498 575,-498 575,-504 575,-504 575,-507 572,-510 569,-510"/>
<text text-anchor="start" x="532" y="-498.8" font-family="Helvetica,sans-Serif" font-size="9.00">time.ts</text>
</a>
</g>
</g>
<!-- src/app/timer/page.tsx&#45;&gt;src/lib/time.ts -->
<g id="edge11" class="edge">
<title>src/app/timer/page.tsx&#45;&gt;src/lib/time.ts</title>
<path fill="none" stroke="#000000" stroke-width="2" stroke-opacity="0.200000" d="M61.45,-124.34C64.13,-177.53 78.61,-440.62 104,-465 133.48,-493.3 417.54,-499.42 514.65,-500.68"/>
<polygon fill="#000000" fill-opacity="0.200000" stroke="#000000" stroke-width="2" stroke-opacity="0.200000" points="514.74,-502.78 520.77,-500.76 514.79,-498.58 514.74,-502.78"/>
</g>
<!-- src/client/components/timer&#45;form.tsx -->
<g id="node14" class="node">
<title>src/client/components/timer&#45;form.tsx</title>
<g id="a_node14"><a xlink:href="src/client/components/timer-form.tsx" xlink:title="timer&#45;form.tsx">
<path fill="#bbfeff" stroke="black" d="M383.5,-278C383.5,-278 315.5,-278 315.5,-278 312.5,-278 309.5,-275 309.5,-272 309.5,-272 309.5,-266 309.5,-266 309.5,-263 312.5,-260 315.5,-260 315.5,-260 383.5,-260 383.5,-260 386.5,-260 389.5,-263 389.5,-266 389.5,-266 389.5,-272 389.5,-272 389.5,-275 386.5,-278 383.5,-278"/>
<text text-anchor="start" x="317.5" y="-266.8" font-family="Helvetica,sans-Serif" font-size="9.00">timer&#45;form.tsx</text>
</a>
</g>
</g>
<!-- src/client/components/home&#45;page.tsx&#45;&gt;src/client/components/timer&#45;form.tsx -->
<g id="edge12" class="edge">
<title>src/client/components/home&#45;page.tsx&#45;&gt;src/client/components/timer&#45;form.tsx</title>
<path fill="none" stroke="#000000" stroke-width="2" stroke-opacity="0.200000" d="M278.85,-290C289.38,-286.82 301.34,-283.22 312.33,-279.91"/>
<polygon fill="#000000" fill-opacity="0.200000" stroke="#000000" stroke-width="2" stroke-opacity="0.200000" points="313.19,-281.84 318.32,-278.1 311.97,-277.82 313.19,-281.84"/>
</g>
<!-- src/client/components/ui/link.tsx -->
<g id="node15" class="node">
<title>src/client/components/ui/link.tsx</title>
<g id="a_node15"><a xlink:href="src/client/components/ui/link.tsx" xlink:title="link.tsx">
<path fill="#bbfeff" stroke="black" d="M370.5,-342C370.5,-342 328.5,-342 328.5,-342 325.5,-342 322.5,-339 322.5,-336 322.5,-336 322.5,-330 322.5,-330 322.5,-327 325.5,-324 328.5,-324 328.5,-324 370.5,-324 370.5,-324 373.5,-324 376.5,-327 376.5,-330 376.5,-330 376.5,-336 376.5,-336 376.5,-339 373.5,-342 370.5,-342"/>
<text text-anchor="start" x="333" y="-330.8" font-family="Helvetica,sans-Serif" font-size="9.00">link.tsx</text>
</a>
</g>
</g>
<!-- src/client/components/home&#45;page.tsx&#45;&gt;src/client/components/ui/link.tsx -->
<g id="edge13" class="edge">
<title>src/client/components/home&#45;page.tsx&#45;&gt;src/client/components/ui/link.tsx</title>
<path fill="none" stroke="#000000" stroke-width="2" stroke-opacity="0.200000" d="M275.4,-308.02C287.98,-312.32 303.14,-317.5 316.39,-322.03"/>
<polygon fill="#000000" fill-opacity="0.200000" stroke="#000000" stroke-width="2" stroke-opacity="0.200000" points="315.96,-324.1 322.32,-324.05 317.32,-320.13 315.96,-324.1"/>
</g>
<!-- src/client/components/timer&#45;form.tsx&#45;&gt;src/client/db.ts -->
<g id="edge22" class="edge">
<title>src/client/components/timer&#45;form.tsx&#45;&gt;src/client/db.ts</title>
<path fill="none" stroke="#000000" stroke-width="2" stroke-opacity="0.200000" d="M389.6,-275.54C393.48,-277.44 397.06,-279.88 400,-283 411.25,-294.92 395.33,-308.61 408,-319 437.66,-343.32 484.05,-338.61 514.98,-331.53"/>
<polygon fill="#000000" fill-opacity="0.200000" stroke="#000000" stroke-width="2" stroke-opacity="0.200000" points="515.61,-333.54 520.95,-330.09 514.63,-329.45 515.61,-333.54"/>
</g>
<!-- src/client/components/timer&#45;form.tsx&#45;&gt;src/lib/error.ts -->
<g id="edge24" class="edge">
<title>src/client/components/timer&#45;form.tsx&#45;&gt;src/lib/error.ts</title>
<path fill="none" stroke="#000000" stroke-width="2" stroke-opacity="0.200000" d="M389.6,-274.87C393.58,-276.89 397.18,-279.53 400,-283 416.15,-302.88 398.35,-374.27 408,-398 431.05,-454.67 461.09,-453.47 497,-503 500.98,-508.49 499.73,-511.73 505,-516 508,-518.43 511.43,-520.48 515,-522.22"/>
<polygon fill="#000000" fill-opacity="0.200000" stroke="#000000" stroke-width="2" stroke-opacity="0.200000" points="514.35,-524.22 520.69,-524.68 516.01,-520.37 514.35,-524.22"/>
</g>
<!-- src/client/components/timer&#45;form.tsx&#45;&gt;src/client/hooks/useUserId.ts -->
<g id="edge23" class="edge">
<title>src/client/components/timer&#45;form.tsx&#45;&gt;src/client/hooks/useUserId.ts</title>
<path fill="none" stroke="#000000" stroke-width="2" stroke-opacity="0.200000" d="M389.55,-269.77C396.18,-269.9 403.09,-270.04 409.78,-270.17"/>
<polygon fill="#000000" fill-opacity="0.200000" stroke="#000000" stroke-width="2" stroke-opacity="0.200000" points="409.82,-272.27 415.86,-270.29 409.9,-268.08 409.82,-272.27"/>
</g>
<!-- src/client/components/timer&#45;form.tsx&#45;&gt;src/lib/time.ts -->
<g id="edge25" class="edge">
<title>src/client/components/timer&#45;form.tsx&#45;&gt;src/lib/time.ts</title>
<path fill="none" stroke="#000000" stroke-width="2" stroke-opacity="0.200000" d="M389.57,-274.9C393.55,-276.91 397.17,-279.55 400,-283 414.15,-300.23 393.57,-366.01 408,-383 434.38,-414.06 470.33,-374.19 497,-405 508.84,-418.68 493.87,-471.75 505,-486 507.63,-489.36 511.07,-491.97 514.85,-494"/>
<polygon fill="#000000" fill-opacity="0.200000" stroke="#000000" stroke-width="2" stroke-opacity="0.200000" points="514.25,-496.03 520.58,-496.57 515.97,-492.2 514.25,-496.03"/>
</g>
<!-- src/client/hooks/sync.ts&#45;&gt;src/client/db.ts -->
<g id="edge30" class="edge">
<title>src/client/hooks/sync.ts&#45;&gt;src/client/db.ts</title>
<path fill="none" stroke="#000000" stroke-width="2" stroke-opacity="0.200000" d="M479.57,-247.2C485.64,-249.38 491.83,-252.25 497,-256 515.91,-269.71 530.95,-292.59 539.42,-307.49"/>
<polygon fill="#000000" fill-opacity="0.200000" stroke="#000000" stroke-width="2" stroke-opacity="0.200000" points="537.7,-308.72 542.44,-312.96 541.38,-306.69 537.7,-308.72"/>
</g>
<!-- src/client/hooks/sync.ts&#45;&gt;src/lib/error.ts -->
<g id="edge31" class="edge">
<title>src/client/hooks/sync.ts&#45;&gt;src/lib/error.ts</title>
<path fill="none" stroke="#000000" stroke-width="2" stroke-opacity="0.200000" d="M479.73,-244.59C486.39,-246.8 492.83,-250.34 497,-256 514.14,-279.27 487.99,-492.63 505,-516 507.63,-519.61 511.21,-522.36 515.18,-524.45"/>
<polygon fill="#000000" fill-opacity="0.200000" stroke="#000000" stroke-width="2" stroke-opacity="0.200000" points="514.44,-526.42 520.78,-526.91 516.13,-522.57 514.44,-526.42"/>
</g>
<!-- src/client/hooks/sync.ts&#45;&gt;src/lib/time.ts -->
<g id="edge32" class="edge">
<title>src/client/hooks/sync.ts&#45;&gt;src/lib/time.ts</title>
<path fill="none" stroke="#000000" stroke-width="2" stroke-opacity="0.200000" d="M479.71,-244.6C486.37,-246.81 492.82,-250.35 497,-256 512.2,-276.56 489.91,-465.36 505,-486 507.64,-489.61 511.22,-492.35 515.2,-494.44"/>
<polygon fill="#000000" fill-opacity="0.200000" stroke="#000000" stroke-width="2" stroke-opacity="0.200000" points="514.46,-496.41 520.8,-496.9 516.14,-492.56 514.46,-496.41"/>
</g>
<!-- src/server/actions/index.ts -->
<g id="node21" class="node">
<title>src/server/actions/index.ts</title>
<g id="a_node21"><a xlink:href="src/server/actions/index.ts" xlink:title="index.ts">
<path fill="#ddfeff" stroke="black" d="M569,-98C569,-98 527,-98 527,-98 524,-98 521,-95 521,-92 521,-92 521,-86 521,-86 521,-83 524,-80 527,-80 527,-80 569,-80 569,-80 572,-80 575,-83 575,-86 575,-86 575,-92 575,-92 575,-95 572,-98 569,-98"/>
<text text-anchor="start" x="529.5" y="-86.8" font-family="Helvetica,sans-Serif" font-size="9.00">index.ts</text>
</a>
</g>
</g>
<!-- src/client/hooks/sync.ts&#45;&gt;src/server/actions/index.ts -->
<g id="edge33" class="edge">
<title>src/client/hooks/sync.ts&#45;&gt;src/server/actions/index.ts</title>
<path fill="none" stroke="#000000" stroke-width="2" stroke-opacity="0.200000" d="M459.07,-231.95C474.69,-206.56 519.01,-134.51 538.09,-103.49"/>
<polygon fill="#000000" fill-opacity="0.200000" stroke="#000000" stroke-width="2" stroke-opacity="0.200000" points="539.99,-104.41 541.34,-98.2 536.41,-102.21 539.99,-104.41"/>
</g>
<!-- src/client/components/timer&#45;page.tsx&#45;&gt;src/client/db.ts -->
<g id="edge27" class="edge">
<title>src/client/components/timer&#45;page.tsx&#45;&gt;src/client/db.ts</title>
<path fill="none" stroke="#000000" stroke-width="2" stroke-opacity="0.200000" d="M262.1,-347.95C272.36,-340.14 286.18,-327.95 294,-314 307.34,-290.2 288.72,-274.26 307,-254 338.64,-218.94 361.36,-228.43 408,-221 447.06,-214.78 463.39,-200.14 497,-221 527.54,-239.96 540,-283.73 544.6,-306.93"/>
<polygon fill="#000000" fill-opacity="0.200000" stroke="#000000" stroke-width="2" stroke-opacity="0.200000" points="542.54,-307.37 545.69,-312.89 546.67,-306.61 542.54,-307.37"/>
</g>
<!-- src/client/components/timer&#45;page.tsx&#45;&gt;src/lib/time.ts -->
<g id="edge28" class="edge">
<title>src/client/components/timer&#45;page.tsx&#45;&gt;src/lib/time.ts</title>
<path fill="none" stroke="#000000" stroke-width="2" stroke-opacity="0.200000" d="M259.54,-366.15C270.74,-375.54 289.25,-390.14 307,-400 386.37,-444.08 425.22,-419.41 497,-475 501.78,-478.7 500.16,-482.38 505,-486 508.09,-488.31 511.57,-490.3 515.17,-491.99"/>
<polygon fill="#000000" fill-opacity="0.200000" stroke="#000000" stroke-width="2" stroke-opacity="0.200000" points="514.55,-494 520.89,-494.41 516.19,-490.14 514.55,-494"/>
</g>
<!-- src/client/components/visual&#45;timer.tsx -->
<g id="node18" class="node">
<title>src/client/components/visual&#45;timer.tsx</title>
<g id="a_node18"><a xlink:href="src/client/components/visual-timer.tsx" xlink:title="visual&#45;timer.tsx">
<path fill="#bbfeff" stroke="black" d="M386,-394C386,-394 313,-394 313,-394 310,-394 307,-391 307,-388 307,-388 307,-382 307,-382 307,-379 310,-376 313,-376 313,-376 386,-376 386,-376 389,-376 392,-379 392,-382 392,-382 392,-388 392,-388 392,-391 389,-394 386,-394"/>
<text text-anchor="start" x="315" y="-382.8" font-family="Helvetica,sans-Serif" font-size="9.00">visual&#45;timer.tsx</text>
</a>
</g>
</g>
<!-- src/client/components/timer&#45;page.tsx&#45;&gt;src/client/components/visual&#45;timer.tsx -->
<g id="edge26" class="edge">
<title>src/client/components/timer&#45;page.tsx&#45;&gt;src/client/components/visual&#45;timer.tsx</title>
<path fill="none" stroke="#000000" stroke-width="2" stroke-opacity="0.200000" d="M281.03,-366.01C290.35,-368.63 300.61,-371.52 310.27,-374.24"/>
<polygon fill="#000000" fill-opacity="0.200000" stroke="#000000" stroke-width="2" stroke-opacity="0.200000" points="309.84,-376.3 316.19,-375.91 310.98,-372.26 309.84,-376.3"/>
</g>
<!-- src/client/components/ui/button.tsx -->
<g id="node19" class="node">
<title>src/client/components/ui/button.tsx</title>
<g id="a_node19"><a xlink:href="src/client/components/ui/button.tsx" xlink:title="button.tsx">
<path fill="#bbfeff" stroke="black" d="M375.5,-312C375.5,-312 323.5,-312 323.5,-312 320.5,-312 317.5,-309 317.5,-306 317.5,-306 317.5,-300 317.5,-300 317.5,-297 320.5,-294 323.5,-294 323.5,-294 375.5,-294 375.5,-294 378.5,-294 381.5,-297 381.5,-300 381.5,-300 381.5,-306 381.5,-306 381.5,-309 378.5,-312 375.5,-312"/>
<text text-anchor="start" x="325.5" y="-300.8" font-family="Helvetica,sans-Serif" font-size="9.00">button.tsx</text>
</a>
</g>
</g>
<!-- src/lib/utils.ts -->
<g id="node20" class="node">
<title>src/lib/utils.ts</title>
<g id="a_node20"><a xlink:href="src/lib/utils.ts" xlink:title="utils.ts">
<path fill="#ddfeff" stroke="black" d="M569,-480C569,-480 527,-480 527,-480 524,-480 521,-477 521,-474 521,-474 521,-468 521,-468 521,-465 524,-462 527,-462 527,-462 569,-462 569,-462 572,-462 575,-465 575,-468 575,-468 575,-474 575,-474 575,-477 572,-480 569,-480"/>
<text text-anchor="start" x="532.5" y="-468.8" font-family="Helvetica,sans-Serif" font-size="9.00">utils.ts</text>
</a>
</g>
</g>
<!-- src/client/components/ui/button.tsx&#45;&gt;src/lib/utils.ts -->
<g id="edge29" class="edge">
<title>src/client/components/ui/button.tsx&#45;&gt;src/lib/utils.ts</title>
<path fill="none" stroke="#000000" stroke-width="2" stroke-opacity="0.200000" d="M381.59,-307.05C388.45,-309.29 395.12,-312.73 400,-318 411.14,-330.02 399.86,-339.77 408,-354 434.85,-400.95 461.99,-395.78 497,-437 501.15,-441.89 500.23,-444.71 505,-449 509.22,-452.8 514.22,-456.15 519.27,-459.02"/>
<polygon fill="#000000" fill-opacity="0.200000" stroke="#000000" stroke-width="2" stroke-opacity="0.200000" points="518.46,-460.96 524.74,-461.94 520.44,-457.26 518.46,-460.96"/>
</g>
<!-- src/server/db/schema.ts -->
<g id="node22" class="node">
<title>src/server/db/schema.ts</title>
<g id="a_node22"><a xlink:href="src/server/db/schema.ts" xlink:title="schema.ts">
<path fill="#ddfeff" stroke="black" d="M723,-98C723,-98 672,-98 672,-98 669,-98 666,-95 666,-92 666,-92 666,-86 666,-86 666,-83 669,-80 672,-80 672,-80 723,-80 723,-80 726,-80 729,-83 729,-86 729,-86 729,-92 729,-92 729,-95 726,-98 723,-98"/>
<text text-anchor="start" x="674" y="-86.8" font-family="Helvetica,sans-Serif" font-size="9.00">schema.ts</text>
</a>
</g>
</g>
<!-- src/server/actions/index.ts&#45;&gt;src/server/db/schema.ts -->
<g id="edge34" class="edge">
<title>src/server/actions/index.ts&#45;&gt;src/server/db/schema.ts</title>
<path fill="none" stroke="#000000" stroke-width="2" stroke-opacity="0.200000" d="M569.98,-79.92C576.58,-77.49 583.98,-75.22 591,-74 618.15,-69.3 625.82,-69.45 653,-74 658.21,-74.87 663.63,-76.3 668.81,-77.93"/>
<polygon fill="#000000" fill-opacity="0.200000" stroke="#000000" stroke-width="2" stroke-opacity="0.200000" points="668.38,-80 674.74,-79.91 669.72,-76.02 668.38,-80"/>
</g>
<!-- src/server/db/index.ts -->
<g id="node23" class="node">
<title>src/server/db/index.ts</title>
<g id="a_node23"><a xlink:href="src/server/db/index.ts" xlink:title="index.ts">
<path fill="#ddfeff" stroke="black" d="M647,-98C647,-98 605,-98 605,-98 602,-98 599,-95 599,-92 599,-92 599,-86 599,-86 599,-83 602,-80 605,-80 605,-80 647,-80 647,-80 650,-80 653,-83 653,-86 653,-86 653,-92 653,-92 653,-95 650,-98 647,-98"/>
<text text-anchor="start" x="607.5" y="-86.8" font-family="Helvetica,sans-Serif" font-size="9.00">index.ts</text>
</a>
</g>
</g>
<!-- src/server/actions/index.ts&#45;&gt;src/server/db/index.ts -->
<g id="edge35" class="edge">
<title>src/server/actions/index.ts&#45;&gt;src/server/db/index.ts</title>
<path fill="none" stroke="#000000" stroke-width="2" stroke-opacity="0.200000" d="M575.15,-89C580.77,-89 586.76,-89 592.58,-89"/>
<polygon fill="#000000" fill-opacity="0.200000" stroke="#000000" stroke-width="2" stroke-opacity="0.200000" points="592.8,-91.1 598.8,-89 592.8,-86.9 592.8,-91.1"/>
</g>
<!-- src/server/db/index.ts&#45;&gt;src/server/db/schema.ts -->
<g id="edge36" class="edge">
<title>src/server/db/index.ts&#45;&gt;src/server/db/schema.ts</title>
<path fill="none" stroke="#000000" stroke-width="2" stroke-opacity="0.200000" d="M653.27,-89C655.35,-89 657.47,-89 659.6,-89"/>
<polygon fill="#000000" fill-opacity="0.200000" stroke="#000000" stroke-width="2" stroke-opacity="0.200000" points="659.99,-91.1 665.99,-89 659.99,-86.9 659.99,-91.1"/>
</g>
<!-- src/server/env.ts -->
<g id="node24" class="node">
<title>src/server/env.ts</title>
<g id="a_node24"><a xlink:href="src/server/env.ts" xlink:title="env.ts">
<path fill="#ddfeff" stroke="black" d="M718.5,-150C718.5,-150 676.5,-150 676.5,-150 673.5,-150 670.5,-147 670.5,-144 670.5,-144 670.5,-138 670.5,-138 670.5,-135 673.5,-132 676.5,-132 676.5,-132 718.5,-132 718.5,-132 721.5,-132 724.5,-135 724.5,-138 724.5,-138 724.5,-144 724.5,-144 724.5,-147 721.5,-150 718.5,-150"/>
<text text-anchor="start" x="683.5" y="-138.8" font-family="Helvetica,sans-Serif" font-size="9.00">env.ts</text>
</a>
</g>
</g>
<!-- src/server/db/index.ts&#45;&gt;src/server/env.ts -->
<g id="edge37" class="edge">
<title>src/server/db/index.ts&#45;&gt;src/server/env.ts</title>
<path fill="none" stroke="#000000" stroke-width="2" stroke-opacity="0.200000" d="M634.64,-98.05C642.02,-106.37 653.84,-118.66 666,-127 666.97,-127.67 667.98,-128.32 669.02,-128.95"/>
<polygon fill="#000000" fill-opacity="0.200000" stroke="#000000" stroke-width="2" stroke-opacity="0.200000" points="668.08,-130.83 674.34,-131.93 670.14,-127.17 668.08,-130.83"/>
</g>
</g>
</svg>
