<?xml version="1.0" encoding="UTF-8" standalone="no"?>
<!DOCTYPE svg PUBLIC "-//W3C//DTD SVG 1.1//EN"
 "http://www.w3.org/Graphics/SVG/1.1/DTD/svg11.dtd">
<!-- Generated by graphviz version 2.43.0 (0)
 -->
<!-- Title: dependency&#45;cruiser output Pages: 1 -->
<svg width="766pt" height="638pt"
 viewBox="0.00 0.00 766.00 638.00" xmlns="http://www.w3.org/2000/svg" xmlns:xlink="http://www.w3.org/1999/xlink">
<g id="graph0" class="graph" transform="scale(1 1) rotate(0) translate(4 634)">
<title>dependency&#45;cruiser output</title>
<polygon fill="white" stroke="transparent" points="-4,4 -4,-634 762,-634 762,4 -4,4"/>
<g id="clust1" class="cluster">
<title>cluster_src</title>
<path fill="#ffffff" stroke="black" stroke-width="2" d="M20,-26C20,-26 738,-26 738,-26 744,-26 750,-32 750,-38 750,-38 750,-610 750,-610 750,-616 744,-622 738,-622 738,-622 20,-622 20,-622 14,-622 8,-616 8,-610 8,-610 8,-38 8,-38 8,-32 14,-26 20,-26"/>
<text text-anchor="middle" x="379" y="-610.8" font-family="Helvetica,sans-Serif" font-weight="bold" font-size="9.00">src</text>
</g>
<g id="clust2" class="cluster">
<title>cluster_src/app</title>
<path fill="#ffffff" stroke="black" stroke-width="2" d="M28,-34C28,-34 187,-34 187,-34 193,-34 199,-40 199,-46 199,-46 199,-194 199,-194 199,-200 193,-206 187,-206 187,-206 28,-206 28,-206 22,-206 16,-200 16,-194 16,-194 16,-46 16,-46 16,-40 22,-34 28,-34"/>
<text text-anchor="middle" x="107.5" y="-194.8" font-family="Helvetica,sans-Serif" font-weight="bold" font-size="9.00">app</text>
</g>
<g id="clust3" class="cluster">
<title>cluster_src/app/timer</title>
<path fill="#ffffff" stroke="black" stroke-width="2" d="M36,-98C36,-98 89,-98 89,-98 95,-98 101,-104 101,-110 101,-110 101,-168 101,-168 101,-174 95,-180 89,-180 89,-180 36,-180 36,-180 30,-180 24,-174 24,-168 24,-168 24,-110 24,-110 24,-104 30,-98 36,-98"/>
<text text-anchor="middle" x="62.5" y="-168.8" font-family="Helvetica,sans-Serif" font-weight="bold" font-size="9.00">timer</text>
</g>
<g id="clust4" class="cluster">
<title>cluster_src/client</title>
<path fill="#ffffff" stroke="black" stroke-width="2" d="M121,-214C121,-214 568,-214 568,-214 574,-214 580,-220 580,-226 580,-226 580,-464 580,-464 580,-470 574,-476 568,-476 568,-476 121,-476 121,-476 115,-476 109,-470 109,-464 109,-464 109,-226 109,-226 109,-220 115,-214 121,-214"/>
<text text-anchor="middle" x="344.5" y="-464.8" font-family="Helvetica,sans-Serif" font-weight="bold" font-size="9.00">client</text>
</g>
<g id="clust5" class="cluster">
<title>cluster_src/client/components</title>
<path fill="#ffffff" stroke="black" stroke-width="2" d="M131.5,-282C131.5,-282 385,-282 385,-282 391,-282 397,-288 397,-294 397,-294 397,-438 397,-438 397,-444 391,-450 385,-450 385,-450 131.5,-450 131.5,-450 125.5,-450 119.5,-444 119.5,-438 119.5,-438 119.5,-294 119.5,-294 119.5,-288 125.5,-282 131.5,-282"/>
<text text-anchor="middle" x="258.25" y="-438.8" font-family="Helvetica,sans-Serif" font-weight="bold" font-size="9.00">components</text>
</g>
<g id="clust6" class="cluster">
<title>cluster_src/client/components/ui</title>
<path fill="#ffffff" stroke="black" stroke-width="2" d="M318.5,-316C318.5,-316 374.5,-316 374.5,-316 380.5,-316 386.5,-322 386.5,-328 386.5,-328 386.5,-386 386.5,-386 386.5,-392 380.5,-398 374.5,-398 374.5,-398 318.5,-398 318.5,-398 312.5,-398 306.5,-392 306.5,-386 306.5,-386 306.5,-328 306.5,-328 306.5,-322 312.5,-316 318.5,-316"/>
<text text-anchor="middle" x="346.5" y="-386.8" font-family="Helvetica,sans-Serif" font-weight="bold" font-size="9.00">ui</text>
</g>
<g id="clust7" class="cluster">
<title>cluster_src/client/hooks</title>
<path fill="#ffffff" stroke="black" stroke-width="2" d="M417,-286C417,-286 482,-286 482,-286 488,-286 494,-292 494,-298 494,-298 494,-356 494,-356 494,-362 488,-368 482,-368 482,-368 417,-368 417,-368 411,-368 405,-362 405,-356 405,-356 405,-298 405,-298 405,-292 411,-286 417,-286"/>
<text text-anchor="middle" x="449.5" y="-356.8" font-family="Helvetica,sans-Serif" font-weight="bold" font-size="9.00">hooks</text>
</g>
<g id="clust8" class="cluster">
<title>cluster_src/client/styles</title>
<path fill="#ffffff" stroke="black" stroke-width="2" d="M129,-222C129,-222 186,-222 186,-222 192,-222 198,-228 198,-234 198,-234 198,-262 198,-262 198,-268 192,-274 186,-274 186,-274 129,-274 129,-274 123,-274 117,-268 117,-262 117,-262 117,-234 117,-234 117,-228 123,-222 129,-222"/>
<text text-anchor="middle" x="157.5" y="-262.8" font-family="Helvetica,sans-Serif" font-weight="bold" font-size="9.00">styles</text>
</g>
<g id="clust9" class="cluster">
<title>cluster_src/lib</title>
<path fill="#ffffff" stroke="black" stroke-width="2" d="M522,-484C522,-484 568,-484 568,-484 574,-484 580,-490 580,-496 580,-496 580,-584 580,-584 580,-590 574,-596 568,-596 568,-596 522,-596 522,-596 516,-596 510,-590 510,-584 510,-584 510,-496 510,-496 510,-490 516,-484 522,-484"/>
<text text-anchor="middle" x="545" y="-584.8" font-family="Helvetica,sans-Serif" font-weight="bold" font-size="9.00">lib</text>
</g>
<g id="clust10" class="cluster">
<title>cluster_src/server</title>
<path fill="#ffffff" stroke="black" stroke-width="2" d="M514,-88C514,-88 730,-88 730,-88 736,-88 742,-94 742,-100 742,-100 742,-194 742,-194 742,-200 736,-206 730,-206 730,-206 514,-206 514,-206 508,-206 502,-200 502,-194 502,-194 502,-100 502,-100 502,-94 508,-88 514,-88"/>
<text text-anchor="middle" x="622" y="-194.8" font-family="Helvetica,sans-Serif" font-weight="bold" font-size="9.00">server</text>
</g>
<g id="clust11" class="cluster">
<title>cluster_src/server/actions</title>
<path fill="#ffffff" stroke="black" stroke-width="2" d="M522,-102C522,-102 568,-102 568,-102 574,-102 580,-108 580,-114 580,-114 580,-142 580,-142 580,-148 574,-154 568,-154 568,-154 522,-154 522,-154 516,-154 510,-148 510,-142 510,-142 510,-114 510,-114 510,-108 516,-102 522,-102"/>
<text text-anchor="middle" x="545" y="-142.8" font-family="Helvetica,sans-Serif" font-weight="bold" font-size="9.00">actions</text>
</g>
<g id="clust12" class="cluster">
<title>cluster_src/server/db</title>
<path fill="#ffffff" stroke="black" stroke-width="2" d="M600,-102C600,-102 722,-102 722,-102 728,-102 734,-108 734,-114 734,-114 734,-142 734,-142 734,-148 728,-154 722,-154 722,-154 600,-154 600,-154 594,-154 588,-148 588,-142 588,-142 588,-114 588,-114 588,-108 594,-102 600,-102"/>
<text text-anchor="middle" x="661" y="-142.8" font-family="Helvetica,sans-Serif" font-weight="bold" font-size="9.00">db</text>
</g>
<!-- assert -->
<g id="node1" class="node">
<title>assert</title>
<g id="a_node1"><a xlink:href="https://nodejs.org/api/assert.html" xlink:title="assert">
<path fill="#ffffcc" stroke="grey" d="M270,-18C270,-18 228,-18 228,-18 225,-18 222,-15 222,-12 222,-12 222,-6 222,-6 222,-3 225,0 228,0 228,0 270,0 270,0 273,0 276,-3 276,-6 276,-6 276,-12 276,-12 276,-15 273,-18 270,-18"/>
<text text-anchor="middle" x="249" y="-6.8" font-family="Helvetica,sans-Serif" font-size="9.00" fill="grey">assert</text>
</a>
</g>
</g>
<!-- src/app/layout.tsx -->
<g id="node2" class="node">
<title>src/app/layout.tsx</title>
<g id="a_node2"><a xlink:href="src/app/layout.tsx" xlink:title="layout.tsx">
<path fill="#bbfeff" stroke="black" d="M87,-60C87,-60 38,-60 38,-60 35,-60 32,-57 32,-54 32,-54 32,-48 32,-48 32,-45 35,-42 38,-42 38,-42 87,-42 87,-42 90,-42 93,-45 93,-48 93,-48 93,-54 93,-54 93,-57 90,-60 87,-60"/>
<text text-anchor="start" x="40" y="-48.8" font-family="Helvetica,sans-Serif" font-size="9.00">layout.tsx</text>
</a>
</g>
</g>
<!-- src/app/manifest.ts -->
<g id="node3" class="node">
<title>src/app/manifest.ts</title>
<g id="a_node3"><a xlink:href="src/app/manifest.ts" xlink:title="manifest.ts">
<path fill="#ddfeff" stroke="black" d="M185,-60C185,-60 130,-60 130,-60 127,-60 124,-57 124,-54 124,-54 124,-48 124,-48 124,-45 127,-42 130,-42 130,-42 185,-42 185,-42 188,-42 191,-45 191,-48 191,-48 191,-54 191,-54 191,-57 188,-60 185,-60"/>
<text text-anchor="start" x="132" y="-48.8" font-family="Helvetica,sans-Serif" font-size="9.00">manifest.ts</text>
</a>
</g>
</g>
<!-- src/app/layout.tsx&#45;&gt;src/app/manifest.ts -->
<g id="edge1" class="edge">
<title>src/app/layout.tsx&#45;&gt;src/app/manifest.ts</title>
<path fill="none" stroke="#000000" stroke-width="2" stroke-opacity="0.200000" d="M93.18,-51C100.98,-51 109.5,-51 117.69,-51"/>
<polygon fill="#000000" fill-opacity="0.200000" stroke="#000000" stroke-width="2" stroke-opacity="0.200000" points="117.88,-53.1 123.88,-51 117.88,-48.9 117.88,-53.1"/>
</g>
<!-- src/client/styles/globals.css -->
<g id="node4" class="node">
<title>src/client/styles/globals.css</title>
<g id="a_node4"><a xlink:href="src/client/styles/globals.css" xlink:title="globals.css">
<path fill="#ffffcc" stroke="black" d="M184,-248C184,-248 131,-248 131,-248 128,-248 125,-245 125,-242 125,-242 125,-236 125,-236 125,-233 128,-230 131,-230 131,-230 184,-230 184,-230 187,-230 190,-233 190,-236 190,-236 190,-242 190,-242 190,-245 187,-248 184,-248"/>
<text text-anchor="start" x="133" y="-236.8" font-family="Helvetica,sans-Serif" font-size="9.00">globals.css</text>
</a>
</g>
</g>
<!-- src/app/layout.tsx&#45;&gt;src/client/styles/globals.css -->
<g id="edge2" class="edge">
<title>src/app/layout.tsx&#45;&gt;src/client/styles/globals.css</title>
<path fill="none" stroke="#000000" stroke-width="2" stroke-opacity="0.200000" d="M93.29,-58.98C96.28,-60.85 98.95,-63.15 101,-66 119.57,-91.85 92.86,-181.57 109,-209 113.33,-216.37 120.27,-222.21 127.52,-226.7"/>
<polygon fill="#000000" fill-opacity="0.200000" stroke="#000000" stroke-width="2" stroke-opacity="0.200000" points="126.83,-228.73 133.08,-229.88 128.91,-225.08 126.83,-228.73"/>
</g>
<!-- src/app/page.tsx -->
<g id="node5" class="node">
<title>src/app/page.tsx</title>
<g id="a_node5"><a xlink:href="src/app/page.tsx" xlink:title="page.tsx">
<path fill="#bbfeff" stroke="black" d="M84.5,-90C84.5,-90 40.5,-90 40.5,-90 37.5,-90 34.5,-87 34.5,-84 34.5,-84 34.5,-78 34.5,-78 34.5,-75 37.5,-72 40.5,-72 40.5,-72 84.5,-72 84.5,-72 87.5,-72 90.5,-75 90.5,-78 90.5,-78 90.5,-84 90.5,-84 90.5,-87 87.5,-90 84.5,-90"/>
<text text-anchor="start" x="42.5" y="-78.8" font-family="Helvetica,sans-Serif" font-size="9.00">page.tsx</text>
</a>
</g>
</g>
<!-- src/client/components/router.tsx -->
<g id="node6" class="node">
<title>src/client/components/router.tsx</title>
<g id="a_node6"><a xlink:href="src/client/components/router.tsx" xlink:title="router.tsx">
<path fill="#bbfeff" stroke="black" d="M181.5,-308C181.5,-308 133.5,-308 133.5,-308 130.5,-308 127.5,-305 127.5,-302 127.5,-302 127.5,-296 127.5,-296 127.5,-293 130.5,-290 133.5,-290 133.5,-290 181.5,-290 181.5,-290 184.5,-290 187.5,-293 187.5,-296 187.5,-296 187.5,-302 187.5,-302 187.5,-305 184.5,-308 181.5,-308"/>
<text text-anchor="start" x="135.5" y="-296.8" font-family="Helvetica,sans-Serif" font-size="9.00">router.tsx</text>
</a>
</g>
</g>
<!-- src/app/page.tsx&#45;&gt;src/client/components/router.tsx -->
<g id="edge3" class="edge">
<title>src/app/page.tsx&#45;&gt;src/client/components/router.tsx</title>
<path fill="none" stroke="#000000" stroke-width="2" stroke-opacity="0.200000" d="M90.73,-86.74C94.73,-88.73 98.38,-91.4 101,-95 112.9,-111.37 97.73,-260.19 109,-277 112.2,-281.77 116.71,-285.52 121.69,-288.47"/>
<polygon fill="#000000" fill-opacity="0.200000" stroke="#000000" stroke-width="2" stroke-opacity="0.200000" points="120.95,-290.45 127.24,-291.37 122.89,-286.73 120.95,-290.45"/>
</g>
<!-- src/client/db.ts -->
<g id="node7" class="node">
<title>src/client/db.ts</title>
<g id="a_node7"><a xlink:href="src/client/db.ts" xlink:title="db.ts">
<path fill="#ddfeff" stroke="black" d="M566,-349C566,-349 524,-349 524,-349 521,-349 518,-346 518,-343 518,-343 518,-337 518,-337 518,-334 521,-331 524,-331 524,-331 566,-331 566,-331 569,-331 572,-334 572,-337 572,-337 572,-343 572,-343 572,-346 569,-349 566,-349"/>
<text text-anchor="start" x="533" y="-337.8" font-family="Helvetica,sans-Serif" font-size="9.00">db.ts</text>
</a>
</g>
</g>
<!-- src/app/page.tsx&#45;&gt;src/client/db.ts -->
<g id="edge4" class="edge">
<title>src/app/page.tsx&#45;&gt;src/client/db.ts</title>
<path fill="none" stroke="#000000" stroke-width="2" stroke-opacity="0.200000" d="M90.79,-86.7C94.79,-88.69 98.42,-91.37 101,-95 124.05,-127.43 85.34,-421.01 109,-453 147.69,-505.32 182.93,-499 248,-499 248,-499 248,-499 347.5,-499 439.1,-499 511.96,-393.29 535.75,-354.26"/>
<polygon fill="#000000" fill-opacity="0.200000" stroke="#000000" stroke-width="2" stroke-opacity="0.200000" points="537.61,-355.23 538.9,-349 534.01,-353.07 537.61,-355.23"/>
</g>
<!-- src/lib/error.ts -->
<g id="node8" class="node">
<title>src/lib/error.ts</title>
<g id="a_node8"><a xlink:href="src/lib/error.ts" xlink:title="error.ts">
<path fill="#ddfeff" stroke="black" d="M566,-570C566,-570 524,-570 524,-570 521,-570 518,-567 518,-564 518,-564 518,-558 518,-558 518,-555 521,-552 524,-552 524,-552 566,-552 566,-552 569,-552 572,-555 572,-558 572,-558 572,-564 572,-564 572,-567 569,-570 566,-570"/>
<text text-anchor="start" x="528.5" y="-558.8" font-family="Helvetica,sans-Serif" font-size="9.00">error.ts</text>
</a>
</g>
</g>
<!-- src/app/page.tsx&#45;&gt;src/lib/error.ts -->
<g id="edge5" class="edge">
<title>src/app/page.tsx&#45;&gt;src/lib/error.ts</title>
<path fill="none" stroke="#000000" stroke-width="2" stroke-opacity="0.200000" d="M90.79,-86.7C94.79,-88.69 98.42,-91.37 101,-95 112.53,-111.22 96.8,-437.28 109,-453 159.07,-517.53 419.53,-548.85 511.67,-558.04"/>
<polygon fill="#000000" fill-opacity="0.200000" stroke="#000000" stroke-width="2" stroke-opacity="0.200000" points="511.57,-560.14 517.75,-558.63 511.98,-555.96 511.57,-560.14"/>
</g>
<!-- src/client/components/router.tsx&#45;&gt;assert -->
<g id="edge19" class="edge">
<title>src/client/components/router.tsx&#45;&gt;assert</title>
<path fill="none" stroke="#000000" stroke-dasharray="5,2" stroke-opacity="0.200000" d="M184.08,-289.85C189.83,-286.63 195.31,-282.43 199,-277 207.3,-264.78 204.64,-225.58 207,-211 218.36,-140.79 236.79,-57.84 244.47,-24.25"/>
<polygon fill="#000000" fill-opacity="0.200000" stroke="#000000" stroke-opacity="0.200000" points="246.56,-24.53 245.86,-18.21 242.47,-23.59 246.56,-24.53"/>
</g>
<!-- src/client/components/router.tsx&#45;&gt;src/client/db.ts -->
<g id="edge17" class="edge">
<title>src/client/components/router.tsx&#45;&gt;src/client/db.ts</title>
<path fill="none" stroke="#000000" stroke-width="2" stroke-opacity="0.200000" d="M182.73,-289.93C188.78,-286.66 194.74,-282.41 199,-277 207.54,-266.16 196.1,-255.46 207,-247 307.75,-168.76 385.41,-183.06 494,-250 521.16,-266.75 534.76,-303.91 540.5,-324.86"/>
<polygon fill="#000000" fill-opacity="0.200000" stroke="#000000" stroke-width="2" stroke-opacity="0.200000" points="538.5,-325.52 542.03,-330.81 542.57,-324.47 538.5,-325.52"/>
</g>
<!-- src/client/components/router.tsx&#45;&gt;src/lib/error.ts -->
<g id="edge18" class="edge">
<title>src/client/components/router.tsx&#45;&gt;src/lib/error.ts</title>
<path fill="none" stroke="#000000" stroke-width="2" stroke-opacity="0.200000" d="M161.87,-308.09C168.49,-325.08 184.54,-362.15 207,-387 293.62,-482.82 445.38,-533.96 511.58,-552.63"/>
<polygon fill="#000000" fill-opacity="0.200000" stroke="#000000" stroke-width="2" stroke-opacity="0.200000" points="511.37,-554.75 517.71,-554.34 512.49,-550.71 511.37,-554.75"/>
</g>
<!-- src/client/hooks/useUserId.ts -->
<g id="node11" class="node">
<title>src/client/hooks/useUserId.ts</title>
<g id="a_node11"><a xlink:href="src/client/hooks/useUserId.ts" xlink:title="useUserId.ts">
<path fill="#ddfeff" stroke="black" d="M480,-342C480,-342 419,-342 419,-342 416,-342 413,-339 413,-336 413,-336 413,-330 413,-330 413,-327 416,-324 419,-324 419,-324 480,-324 480,-324 483,-324 486,-327 486,-330 486,-330 486,-336 486,-336 486,-339 483,-342 480,-342"/>
<text text-anchor="start" x="421" y="-330.8" font-family="Helvetica,sans-Serif" font-size="9.00">useUserId.ts</text>
</a>
</g>
</g>
<!-- src/client/components/router.tsx&#45;&gt;src/client/hooks/useUserId.ts -->
<g id="edge14" class="edge">
<title>src/client/components/router.tsx&#45;&gt;src/client/hooks/useUserId.ts</title>
<path fill="none" stroke="#000000" stroke-width="2" stroke-opacity="0.200000" d="M178.07,-289.91C222.43,-270.81 331.79,-232.35 397,-284 409.17,-293.64 394.59,-306.48 405,-318 405.84,-318.93 406.75,-319.81 407.7,-320.63"/>
<polygon fill="#000000" fill-opacity="0.200000" stroke="#000000" stroke-width="2" stroke-opacity="0.200000" points="406.74,-322.52 412.84,-324.3 409.18,-319.1 406.74,-322.52"/>
</g>
<!-- src/client/components/home&#45;page.tsx -->
<g id="node13" class="node">
<title>src/client/components/home&#45;page.tsx</title>
<g id="a_node13"><a xlink:href="src/client/components/home-page.tsx" xlink:title="home&#45;page.tsx">
<path fill="#bbfeff" stroke="black" d="M285,-308C285,-308 213,-308 213,-308 210,-308 207,-305 207,-302 207,-302 207,-296 207,-296 207,-293 210,-290 213,-290 213,-290 285,-290 285,-290 288,-290 291,-293 291,-296 291,-296 291,-302 291,-302 291,-305 288,-308 285,-308"/>
<text text-anchor="start" x="215" y="-296.8" font-family="Helvetica,sans-Serif" font-size="9.00">home&#45;page.tsx</text>
</a>
</g>
</g>
<!-- src/client/components/router.tsx&#45;&gt;src/client/components/home&#45;page.tsx -->
<g id="edge15" class="edge">
<title>src/client/components/router.tsx&#45;&gt;src/client/components/home&#45;page.tsx</title>
<path fill="none" stroke="#000000" stroke-width="2" stroke-opacity="0.200000" d="M187.81,-299C192.01,-299 196.42,-299 200.87,-299"/>
<polygon fill="#000000" fill-opacity="0.200000" stroke="#000000" stroke-width="2" stroke-opacity="0.200000" points="200.93,-301.1 206.93,-299 200.93,-296.9 200.93,-301.1"/>
</g>
<!-- src/client/hooks/sync.ts -->
<g id="node16" class="node">
<title>src/client/hooks/sync.ts</title>
<g id="a_node16"><a xlink:href="src/client/hooks/sync.ts" xlink:title="sync.ts">
<path fill="#ddfeff" stroke="black" d="M470.5,-312C470.5,-312 428.5,-312 428.5,-312 425.5,-312 422.5,-309 422.5,-306 422.5,-306 422.5,-300 422.5,-300 422.5,-297 425.5,-294 428.5,-294 428.5,-294 470.5,-294 470.5,-294 473.5,-294 476.5,-297 476.5,-300 476.5,-300 476.5,-306 476.5,-306 476.5,-309 473.5,-312 470.5,-312"/>
<text text-anchor="start" x="433" y="-300.8" font-family="Helvetica,sans-Serif" font-size="9.00">sync.ts</text>
</a>
</g>
</g>
<!-- src/client/components/router.tsx&#45;&gt;src/client/hooks/sync.ts -->
<g id="edge13" class="edge">
<title>src/client/components/router.tsx&#45;&gt;src/client/hooks/sync.ts</title>
<path fill="none" stroke="#000000" stroke-width="2" stroke-opacity="0.200000" d="M181.34,-289.92C187.66,-286.58 194.11,-282.29 199,-277 204.94,-270.57 199.66,-263.77 207,-259 224.7,-247.5 380.31,-246.07 397,-259 408.25,-267.71 395.13,-279.75 405,-290 408.16,-293.28 412.1,-295.74 416.32,-297.59"/>
<polygon fill="#000000" fill-opacity="0.200000" stroke="#000000" stroke-width="2" stroke-opacity="0.200000" points="415.84,-299.65 422.2,-299.74 417.29,-295.7 415.84,-299.65"/>
</g>
<!-- src/client/components/timer&#45;page.tsx -->
<g id="node17" class="node">
<title>src/client/components/timer&#45;page.tsx</title>
<g id="a_node17"><a xlink:href="src/client/components/timer-page.tsx" xlink:title="timer&#45;page.tsx">
<path fill="#bbfeff" stroke="black" d="M284,-381C284,-381 214,-381 214,-381 211,-381 208,-378 208,-375 208,-375 208,-369 208,-369 208,-366 211,-363 214,-363 214,-363 284,-363 284,-363 287,-363 290,-366 290,-369 290,-369 290,-375 290,-375 290,-378 287,-381 284,-381"/>
<text text-anchor="start" x="216" y="-369.8" font-family="Helvetica,sans-Serif" font-size="9.00">timer&#45;page.tsx</text>
</a>
</g>
</g>
<!-- src/client/components/router.tsx&#45;&gt;src/client/components/timer&#45;page.tsx -->
<g id="edge16" class="edge">
<title>src/client/components/router.tsx&#45;&gt;src/client/components/timer&#45;page.tsx</title>
<path fill="none" stroke="#000000" stroke-width="2" stroke-opacity="0.200000" d="M169.84,-308.25C185.57,-321.08 214.12,-344.36 232.01,-358.96"/>
<polygon fill="#000000" fill-opacity="0.200000" stroke="#000000" stroke-width="2" stroke-opacity="0.200000" points="230.78,-360.66 236.76,-362.83 233.43,-357.41 230.78,-360.66"/>
</g>
<!-- src/app/timer/layout.tsx -->
<g id="node9" class="node">
<title>src/app/timer/layout.tsx</title>
<g id="a_node9"><a xlink:href="src/app/timer/layout.tsx" xlink:title="no&#45;orphans">
<path fill="#ccffcc" stroke="orange" d="M87,-154C87,-154 38,-154 38,-154 35,-154 32,-151 32,-148 32,-148 32,-142 32,-142 32,-139 35,-136 38,-136 38,-136 87,-136 87,-136 90,-136 93,-139 93,-142 93,-142 93,-148 93,-148 93,-151 90,-154 87,-154"/>
<text text-anchor="start" x="40" y="-142.8" font-family="Helvetica,sans-Serif" font-size="9.00" fill="orange">layout.tsx</text>
</a>
</g>
</g>
<!-- src/app/timer/page.tsx -->
<g id="node10" class="node">
<title>src/app/timer/page.tsx</title>
<g id="a_node10"><a xlink:href="src/app/timer/page.tsx" xlink:title="page.tsx">
<path fill="#bbfeff" stroke="black" d="M84.5,-124C84.5,-124 40.5,-124 40.5,-124 37.5,-124 34.5,-121 34.5,-118 34.5,-118 34.5,-112 34.5,-112 34.5,-109 37.5,-106 40.5,-106 40.5,-106 84.5,-106 84.5,-106 87.5,-106 90.5,-109 90.5,-112 90.5,-112 90.5,-118 90.5,-118 90.5,-121 87.5,-124 84.5,-124"/>
<text text-anchor="start" x="42.5" y="-112.8" font-family="Helvetica,sans-Serif" font-size="9.00">page.tsx</text>
</a>
</g>
</g>
<!-- src/app/timer/page.tsx&#45;&gt;src/client/components/router.tsx -->
<g id="edge6" class="edge">
<title>src/app/timer/page.tsx&#45;&gt;src/client/components/router.tsx</title>
<path fill="none" stroke="#000000" stroke-width="2" stroke-opacity="0.200000" d="M90.73,-121.5C94.73,-123.59 98.38,-126.35 101,-130 120.07,-156.58 90.64,-249.92 109,-277 112.22,-281.75 116.74,-285.5 121.73,-288.44"/>
<polygon fill="#000000" fill-opacity="0.200000" stroke="#000000" stroke-width="2" stroke-opacity="0.200000" points="120.99,-290.43 127.28,-291.34 122.93,-286.7 120.99,-290.43"/>
</g>
<!-- src/app/timer/page.tsx&#45;&gt;src/client/db.ts -->
<g id="edge7" class="edge">
<title>src/app/timer/page.tsx&#45;&gt;src/client/db.ts</title>
<path fill="none" stroke="#000000" stroke-width="2" stroke-opacity="0.200000" d="M90.83,-121.43C94.82,-123.53 98.45,-126.31 101,-130 113.02,-147.36 93.91,-495.23 109,-510 122.43,-523.15 440.5,-543.54 494,-503 497.07,-500.68 528.12,-394.65 539.69,-354.87"/>
<polygon fill="#000000" fill-opacity="0.200000" stroke="#000000" stroke-width="2" stroke-opacity="0.200000" points="541.71,-355.42 541.37,-349.08 537.68,-354.25 541.71,-355.42"/>
</g>
<!-- src/app/timer/page.tsx&#45;&gt;src/lib/error.ts -->
<g id="edge9" class="edge">
<title>src/app/timer/page.tsx&#45;&gt;src/lib/error.ts</title>
<path fill="none" stroke="#000000" stroke-width="2" stroke-opacity="0.200000" d="M90.83,-121.43C94.83,-123.53 98.45,-126.31 101,-130 113.33,-147.82 94.55,-503.85 109,-520 212.8,-635.95 429.6,-592.39 511.62,-570.51"/>
<polygon fill="#000000" fill-opacity="0.200000" stroke="#000000" stroke-width="2" stroke-opacity="0.200000" points="512.51,-572.45 517.75,-568.85 511.41,-568.39 512.51,-572.45"/>
</g>
<!-- src/app/timer/page.tsx&#45;&gt;src/client/hooks/useUserId.ts -->
<g id="edge8" class="edge">
<title>src/app/timer/page.tsx&#45;&gt;src/client/hooks/useUserId.ts</title>
<path fill="none" stroke="#000000" stroke-width="2" stroke-opacity="0.200000" d="M90.83,-121.43C94.82,-123.53 98.44,-126.31 101,-130 112.8,-147.04 94.19,-488.5 109,-503 136.2,-529.63 371,-475.18 397,-453 429.3,-425.44 441.9,-373.99 446.34,-348.35"/>
<polygon fill="#000000" fill-opacity="0.200000" stroke="#000000" stroke-width="2" stroke-opacity="0.200000" points="448.46,-348.38 447.34,-342.13 444.32,-347.72 448.46,-348.38"/>
</g>
<!-- src/lib/time.ts -->
<g id="node12" class="node">
<title>src/lib/time.ts</title>
<g id="a_node12"><a xlink:href="src/lib/time.ts" xlink:title="time.ts">
<path fill="#ddfeff" stroke="black" d="M566,-540C566,-540 524,-540 524,-540 521,-540 518,-537 518,-534 518,-534 518,-528 518,-528 518,-525 521,-522 524,-522 524,-522 566,-522 566,-522 569,-522 572,-525 572,-528 572,-528 572,-534 572,-534 572,-537 569,-540 566,-540"/>
<text text-anchor="start" x="529" y="-528.8" font-family="Helvetica,sans-Serif" font-size="9.00">time.ts</text>
</a>
</g>
</g>
<!-- src/app/timer/page.tsx&#45;&gt;src/lib/time.ts -->
<g id="edge10" class="edge">
<title>src/app/timer/page.tsx&#45;&gt;src/lib/time.ts</title>
<path fill="none" stroke="#000000" stroke-width="2" stroke-opacity="0.200000" d="M90.83,-121.43C94.83,-123.53 98.45,-126.31 101,-130 113.33,-147.82 94.23,-504.14 109,-520 162.98,-577.96 420.36,-548.35 511.73,-535.74"/>
<polygon fill="#000000" fill-opacity="0.200000" stroke="#000000" stroke-width="2" stroke-opacity="0.200000" points="512.11,-537.81 517.77,-534.9 511.53,-533.65 512.11,-537.81"/>
</g>
<!-- src/client/components/timer&#45;form.tsx -->
<g id="node14" class="node">
<title>src/client/components/timer&#45;form.tsx</title>
<g id="a_node14"><a xlink:href="src/client/components/timer-form.tsx" xlink:title="timer&#45;form.tsx">
<path fill="#bbfeff" stroke="black" d="M380.5,-308C380.5,-308 312.5,-308 312.5,-308 309.5,-308 306.5,-305 306.5,-302 306.5,-302 306.5,-296 306.5,-296 306.5,-293 309.5,-290 312.5,-290 312.5,-290 380.5,-290 380.5,-290 383.5,-290 386.5,-293 386.5,-296 386.5,-296 386.5,-302 386.5,-302 386.5,-305 383.5,-308 380.5,-308"/>
<text text-anchor="start" x="314.5" y="-296.8" font-family="Helvetica,sans-Serif" font-size="9.00">timer&#45;form.tsx</text>
</a>
</g>
</g>
<!-- src/client/components/home&#45;page.tsx&#45;&gt;src/client/components/timer&#45;form.tsx -->
<g id="edge11" class="edge">
<title>src/client/components/home&#45;page.tsx&#45;&gt;src/client/components/timer&#45;form.tsx</title>
<path fill="none" stroke="#000000" stroke-width="2" stroke-opacity="0.200000" d="M291.05,-299C294.06,-299 297.09,-299 300.12,-299"/>
<polygon fill="#000000" fill-opacity="0.200000" stroke="#000000" stroke-width="2" stroke-opacity="0.200000" points="300.29,-301.1 306.29,-299 300.29,-296.9 300.29,-301.1"/>
</g>
<!-- src/client/components/ui/link.tsx -->
<g id="node15" class="node">
<title>src/client/components/ui/link.tsx</title>
<g id="a_node15"><a xlink:href="src/client/components/ui/link.tsx" xlink:title="link.tsx">
<path fill="#bbfeff" stroke="black" d="M367.5,-372C367.5,-372 325.5,-372 325.5,-372 322.5,-372 319.5,-369 319.5,-366 319.5,-366 319.5,-360 319.5,-360 319.5,-357 322.5,-354 325.5,-354 325.5,-354 367.5,-354 367.5,-354 370.5,-354 373.5,-357 373.5,-360 373.5,-360 373.5,-366 373.5,-366 373.5,-369 370.5,-372 367.5,-372"/>
<text text-anchor="start" x="330" y="-360.8" font-family="Helvetica,sans-Serif" font-size="9.00">link.tsx</text>
</a>
</g>
</g>
<!-- src/client/components/home&#45;page.tsx&#45;&gt;src/client/components/ui/link.tsx -->
<g id="edge12" class="edge">
<title>src/client/components/home&#45;page.tsx&#45;&gt;src/client/components/ui/link.tsx</title>
<path fill="none" stroke="#000000" stroke-width="2" stroke-opacity="0.200000" d="M257.95,-308.12C267.8,-318.93 285.56,-336.9 304,-348 306.95,-349.78 310.15,-351.39 313.42,-352.85"/>
<polygon fill="#000000" fill-opacity="0.200000" stroke="#000000" stroke-width="2" stroke-opacity="0.200000" points="312.98,-354.94 319.33,-355.3 314.59,-351.06 312.98,-354.94"/>
</g>
<!-- src/client/components/timer&#45;form.tsx&#45;&gt;src/client/db.ts -->
<g id="edge20" class="edge">
<title>src/client/components/timer&#45;form.tsx&#45;&gt;src/client/db.ts</title>
<path fill="none" stroke="#000000" stroke-width="2" stroke-opacity="0.200000" d="M386.86,-305.3C390.69,-307.25 394.19,-309.77 397,-313 414.08,-332.63 385.38,-353.9 405,-371 434.82,-396.99 455.96,-381.84 494,-371 506.6,-367.41 519.12,-359.64 528.48,-352.77"/>
<polygon fill="#000000" fill-opacity="0.200000" stroke="#000000" stroke-width="2" stroke-opacity="0.200000" points="529.83,-354.39 533.34,-349.09 527.29,-351.04 529.83,-354.39"/>
</g>
<!-- src/client/components/timer&#45;form.tsx&#45;&gt;src/lib/error.ts -->
<g id="edge22" class="edge">
<title>src/client/components/timer&#45;form.tsx&#45;&gt;src/lib/error.ts</title>
<path fill="none" stroke="#000000" stroke-width="2" stroke-opacity="0.200000" d="M386.61,-304.87C390.59,-306.88 394.19,-309.53 397,-313 413.69,-333.59 394.18,-407.81 405,-432 428.1,-483.64 464.21,-474.9 494,-523 499.7,-532.2 494.38,-538.32 502,-546 504.93,-548.95 508.48,-551.33 512.26,-553.24"/>
<polygon fill="#000000" fill-opacity="0.200000" stroke="#000000" stroke-width="2" stroke-opacity="0.200000" points="511.59,-555.24 517.93,-555.72 513.27,-551.39 511.59,-555.24"/>
</g>
<!-- src/client/components/timer&#45;form.tsx&#45;&gt;src/client/hooks/useUserId.ts -->
<g id="edge21" class="edge">
<title>src/client/components/timer&#45;form.tsx&#45;&gt;src/client/hooks/useUserId.ts</title>
<path fill="none" stroke="#000000" stroke-width="2" stroke-opacity="0.200000" d="M383.88,-308C388.37,-309.49 392.84,-311.15 397,-313 400.83,-314.7 401.22,-316.19 405,-318 407.65,-319.27 410.44,-320.48 413.28,-321.63"/>
<polygon fill="#000000" fill-opacity="0.200000" stroke="#000000" stroke-width="2" stroke-opacity="0.200000" points="412.77,-323.68 419.12,-323.89 414.28,-319.76 412.77,-323.68"/>
</g>
<!-- src/client/components/timer&#45;form.tsx&#45;&gt;src/lib/time.ts -->
<g id="edge23" class="edge">
<title>src/client/components/timer&#45;form.tsx&#45;&gt;src/lib/time.ts</title>
<path fill="none" stroke="#000000" stroke-width="2" stroke-opacity="0.200000" d="M386.59,-304.89C390.57,-306.9 394.18,-309.54 397,-313 412.08,-331.47 389.03,-402.29 405,-420 431.91,-449.85 466.71,-406.49 494,-436 506.13,-449.12 490.99,-501.93 502,-516 504.63,-519.36 508.07,-521.97 511.85,-523.99"/>
<polygon fill="#000000" fill-opacity="0.200000" stroke="#000000" stroke-width="2" stroke-opacity="0.200000" points="511.25,-526.03 517.59,-526.56 512.97,-522.19 511.25,-526.03"/>
</g>
<!-- src/client/hooks/sync.ts&#45;&gt;src/client/db.ts -->
<g id="edge28" class="edge">
<title>src/client/hooks/sync.ts&#45;&gt;src/client/db.ts</title>
<path fill="none" stroke="#000000" stroke-width="2" stroke-opacity="0.200000" d="M476.85,-311.7C482.54,-313.68 488.5,-315.84 494,-318 502.02,-321.14 510.65,-324.82 518.44,-328.27"/>
<polygon fill="#000000" fill-opacity="0.200000" stroke="#000000" stroke-width="2" stroke-opacity="0.200000" points="517.87,-330.32 524.21,-330.84 519.58,-326.48 517.87,-330.32"/>
</g>
<!-- src/client/hooks/sync.ts&#45;&gt;src/lib/error.ts -->
<g id="edge29" class="edge">
<title>src/client/hooks/sync.ts&#45;&gt;src/lib/error.ts</title>
<path fill="none" stroke="#000000" stroke-width="2" stroke-opacity="0.200000" d="M476.71,-306.6C483.37,-308.81 489.82,-312.35 494,-318 509.08,-338.38 487.04,-525.54 502,-546 504.64,-549.61 508.23,-552.35 512.2,-554.44"/>
<polygon fill="#000000" fill-opacity="0.200000" stroke="#000000" stroke-width="2" stroke-opacity="0.200000" points="511.46,-556.41 517.8,-556.89 513.15,-552.56 511.46,-556.41"/>
</g>
<!-- src/client/hooks/sync.ts&#45;&gt;src/lib/time.ts -->
<g id="edge30" class="edge">
<title>src/client/hooks/sync.ts&#45;&gt;src/lib/time.ts</title>
<path fill="none" stroke="#000000" stroke-width="2" stroke-opacity="0.200000" d="M476.69,-306.61C483.35,-308.82 489.8,-312.36 494,-318 507.14,-335.67 488.96,-498.26 502,-516 504.65,-519.6 508.24,-522.34 512.21,-524.43"/>
<polygon fill="#000000" fill-opacity="0.200000" stroke="#000000" stroke-width="2" stroke-opacity="0.200000" points="511.48,-526.4 517.82,-526.88 513.16,-522.55 511.48,-526.4"/>
</g>
<!-- src/server/actions/index.ts -->
<g id="node21" class="node">
<title>src/server/actions/index.ts</title>
<g id="a_node21"><a xlink:href="src/server/actions/index.ts" xlink:title="index.ts">
<path fill="#ddfeff" stroke="black" d="M566,-128C566,-128 524,-128 524,-128 521,-128 518,-125 518,-122 518,-122 518,-116 518,-116 518,-113 521,-110 524,-110 524,-110 566,-110 566,-110 569,-110 572,-113 572,-116 572,-116 572,-122 572,-122 572,-125 569,-128 566,-128"/>
<text text-anchor="start" x="526.5" y="-116.8" font-family="Helvetica,sans-Serif" font-size="9.00">index.ts</text>
</a>
</g>
</g>
<!-- src/client/hooks/sync.ts&#45;&gt;src/server/actions/index.ts -->
<g id="edge31" class="edge">
<title>src/client/hooks/sync.ts&#45;&gt;src/server/actions/index.ts</title>
<path fill="none" stroke="#000000" stroke-width="2" stroke-opacity="0.200000" d="M455.14,-293.88C470.18,-264.26 517.76,-170.64 536.4,-133.95"/>
<polygon fill="#000000" fill-opacity="0.200000" stroke="#000000" stroke-width="2" stroke-opacity="0.200000" points="538.49,-134.48 539.34,-128.18 534.75,-132.58 538.49,-134.48"/>
</g>
<!-- src/client/components/timer&#45;page.tsx&#45;&gt;src/client/db.ts -->
<g id="edge25" class="edge">
<title>src/client/components/timer&#45;page.tsx&#45;&gt;src/client/db.ts</title>
<path fill="none" stroke="#000000" stroke-width="2" stroke-opacity="0.200000" d="M257.29,-362.95C266.02,-351.85 280.73,-332.27 291,-314 298.12,-301.33 291.89,-292.04 304,-284 374.36,-237.31 417.08,-248.15 494,-283 513.09,-291.65 527.78,-311.6 536.16,-325.44"/>
<polygon fill="#000000" fill-opacity="0.200000" stroke="#000000" stroke-width="2" stroke-opacity="0.200000" points="534.52,-326.81 539.35,-330.94 538.16,-324.7 534.52,-326.81"/>
</g>
<!-- src/client/components/timer&#45;page.tsx&#45;&gt;src/lib/time.ts -->
<g id="edge26" class="edge">
<title>src/client/components/timer&#45;page.tsx&#45;&gt;src/lib/time.ts</title>
<path fill="none" stroke="#000000" stroke-width="2" stroke-opacity="0.200000" d="M256.73,-381.36C266.12,-393.85 284.23,-416.02 304,-430 323.58,-443.85 479.69,-507.18 502,-516 505.15,-517.25 508.45,-518.5 511.76,-519.73"/>
<polygon fill="#000000" fill-opacity="0.200000" stroke="#000000" stroke-width="2" stroke-opacity="0.200000" points="511.33,-521.81 517.69,-521.91 512.78,-517.87 511.33,-521.81"/>
</g>
<!-- src/client/components/visual&#45;timer.tsx -->
<g id="node18" class="node">
<title>src/client/components/visual&#45;timer.tsx</title>
<g id="a_node18"><a xlink:href="src/client/components/visual-timer.tsx" xlink:title="visual&#45;timer.tsx">
<path fill="#bbfeff" stroke="black" d="M383,-424C383,-424 310,-424 310,-424 307,-424 304,-421 304,-418 304,-418 304,-412 304,-412 304,-409 307,-406 310,-406 310,-406 383,-406 383,-406 386,-406 389,-409 389,-412 389,-412 389,-418 389,-418 389,-421 386,-424 383,-424"/>
<text text-anchor="start" x="312" y="-412.8" font-family="Helvetica,sans-Serif" font-size="9.00">visual&#45;timer.tsx</text>
</a>
</g>
</g>
<!-- src/client/components/timer&#45;page.tsx&#45;&gt;src/client/components/visual&#45;timer.tsx -->
<g id="edge24" class="edge">
<title>src/client/components/timer&#45;page.tsx&#45;&gt;src/client/components/visual&#45;timer.tsx</title>
<path fill="none" stroke="#000000" stroke-width="2" stroke-opacity="0.200000" d="M265.25,-381.08C275.89,-387.19 290.53,-395.16 304,-401 306.28,-401.99 308.65,-402.95 311.05,-403.88"/>
<polygon fill="#000000" fill-opacity="0.200000" stroke="#000000" stroke-width="2" stroke-opacity="0.200000" points="310.33,-405.85 316.69,-405.98 311.8,-401.92 310.33,-405.85"/>
</g>
<!-- src/client/components/ui/button.tsx -->
<g id="node19" class="node">
<title>src/client/components/ui/button.tsx</title>
<g id="a_node19"><a xlink:href="src/client/components/ui/button.tsx" xlink:title="button.tsx">
<path fill="#bbfeff" stroke="black" d="M372.5,-342C372.5,-342 320.5,-342 320.5,-342 317.5,-342 314.5,-339 314.5,-336 314.5,-336 314.5,-330 314.5,-330 314.5,-327 317.5,-324 320.5,-324 320.5,-324 372.5,-324 372.5,-324 375.5,-324 378.5,-327 378.5,-330 378.5,-330 378.5,-336 378.5,-336 378.5,-339 375.5,-342 372.5,-342"/>
<text text-anchor="start" x="322.5" y="-330.8" font-family="Helvetica,sans-Serif" font-size="9.00">button.tsx</text>
</a>
</g>
</g>
<!-- src/lib/utils.ts -->
<g id="node20" class="node">
<title>src/lib/utils.ts</title>
<g id="a_node20"><a xlink:href="src/lib/utils.ts" xlink:title="utils.ts">
<path fill="#ddfeff" stroke="black" d="M566,-510C566,-510 524,-510 524,-510 521,-510 518,-507 518,-504 518,-504 518,-498 518,-498 518,-495 521,-492 524,-492 524,-492 566,-492 566,-492 569,-492 572,-495 572,-498 572,-498 572,-504 572,-504 572,-507 569,-510 566,-510"/>
<text text-anchor="start" x="529.5" y="-498.8" font-family="Helvetica,sans-Serif" font-size="9.00">utils.ts</text>
</a>
</g>
</g>
<!-- src/client/components/ui/button.tsx&#45;&gt;src/lib/utils.ts -->
<g id="edge27" class="edge">
<title>src/client/components/ui/button.tsx&#45;&gt;src/lib/utils.ts</title>
<path fill="none" stroke="#000000" stroke-width="2" stroke-opacity="0.200000" d="M378.63,-336.71C385.57,-338.95 392.26,-342.48 397,-348 413.37,-367.08 390.44,-383.51 405,-404 430.79,-440.3 465.95,-415.42 494,-450 502.42,-460.38 493.61,-468.59 502,-479 505.05,-482.78 508.93,-485.99 513.09,-488.69"/>
<polygon fill="#000000" fill-opacity="0.200000" stroke="#000000" stroke-width="2" stroke-opacity="0.200000" points="512.24,-490.62 518.48,-491.84 514.36,-487 512.24,-490.62"/>
</g>
<!-- src/server/db/schema.ts -->
<g id="node22" class="node">
<title>src/server/db/schema.ts</title>
<g id="a_node22"><a xlink:href="src/server/db/schema.ts" xlink:title="schema.ts">
<path fill="#ddfeff" stroke="black" d="M720,-128C720,-128 669,-128 669,-128 666,-128 663,-125 663,-122 663,-122 663,-116 663,-116 663,-113 666,-110 669,-110 669,-110 720,-110 720,-110 723,-110 726,-113 726,-116 726,-116 726,-122 726,-122 726,-125 723,-128 720,-128"/>
<text text-anchor="start" x="671" y="-116.8" font-family="Helvetica,sans-Serif" font-size="9.00">schema.ts</text>
</a>
</g>
</g>
<!-- src/server/actions/index.ts&#45;&gt;src/server/db/schema.ts -->
<g id="edge32" class="edge">
<title>src/server/actions/index.ts&#45;&gt;src/server/db/schema.ts</title>
<path fill="none" stroke="#000000" stroke-width="2" stroke-opacity="0.200000" d="M566.98,-109.92C573.58,-107.49 580.98,-105.22 588,-104 615.15,-99.3 622.82,-99.45 650,-104 655.21,-104.87 660.63,-106.3 665.81,-107.93"/>
<polygon fill="#000000" fill-opacity="0.200000" stroke="#000000" stroke-width="2" stroke-opacity="0.200000" points="665.38,-110 671.74,-109.91 666.72,-106.02 665.38,-110"/>
</g>
<!-- src/server/db/index.ts -->
<g id="node23" class="node">
<title>src/server/db/index.ts</title>
<g id="a_node23"><a xlink:href="src/server/db/index.ts" xlink:title="index.ts">
<path fill="#ddfeff" stroke="black" d="M644,-128C644,-128 602,-128 602,-128 599,-128 596,-125 596,-122 596,-122 596,-116 596,-116 596,-113 599,-110 602,-110 602,-110 644,-110 644,-110 647,-110 650,-113 650,-116 650,-116 650,-122 650,-122 650,-125 647,-128 644,-128"/>
<text text-anchor="start" x="604.5" y="-116.8" font-family="Helvetica,sans-Serif" font-size="9.00">index.ts</text>
</a>
</g>
</g>
<!-- src/server/actions/index.ts&#45;&gt;src/server/db/index.ts -->
<g id="edge33" class="edge">
<title>src/server/actions/index.ts&#45;&gt;src/server/db/index.ts</title>
<path fill="none" stroke="#000000" stroke-width="2" stroke-opacity="0.200000" d="M572.15,-119C577.77,-119 583.76,-119 589.58,-119"/>
<polygon fill="#000000" fill-opacity="0.200000" stroke="#000000" stroke-width="2" stroke-opacity="0.200000" points="589.8,-121.1 595.8,-119 589.8,-116.9 589.8,-121.1"/>
</g>
<!-- src/server/db/index.ts&#45;&gt;src/server/db/schema.ts -->
<g id="edge34" class="edge">
<title>src/server/db/index.ts&#45;&gt;src/server/db/schema.ts</title>
<path fill="none" stroke="#000000" stroke-width="2" stroke-opacity="0.200000" d="M650.27,-119C652.35,-119 654.47,-119 656.6,-119"/>
<polygon fill="#000000" fill-opacity="0.200000" stroke="#000000" stroke-width="2" stroke-opacity="0.200000" points="656.99,-121.1 662.99,-119 656.99,-116.9 656.99,-121.1"/>
</g>
<!-- src/server/env.ts -->
<g id="node24" class="node">
<title>src/server/env.ts</title>
<g id="a_node24"><a xlink:href="src/server/env.ts" xlink:title="env.ts">
<path fill="#ddfeff" stroke="black" d="M715.5,-180C715.5,-180 673.5,-180 673.5,-180 670.5,-180 667.5,-177 667.5,-174 667.5,-174 667.5,-168 667.5,-168 667.5,-165 670.5,-162 673.5,-162 673.5,-162 715.5,-162 715.5,-162 718.5,-162 721.5,-165 721.5,-168 721.5,-168 721.5,-174 721.5,-174 721.5,-177 718.5,-180 715.5,-180"/>
<text text-anchor="start" x="680.5" y="-168.8" font-family="Helvetica,sans-Serif" font-size="9.00">env.ts</text>
</a>
</g>
</g>
<!-- src/server/db/index.ts&#45;&gt;src/server/env.ts -->
<g id="edge35" class="edge">
<title>src/server/db/index.ts&#45;&gt;src/server/env.ts</title>
<path fill="none" stroke="#000000" stroke-width="2" stroke-opacity="0.200000" d="M631.64,-128.05C639.02,-136.37 650.84,-148.66 663,-157 663.97,-157.67 664.98,-158.32 666.02,-158.95"/>
<polygon fill="#000000" fill-opacity="0.200000" stroke="#000000" stroke-width="2" stroke-opacity="0.200000" points="665.08,-160.83 671.34,-161.93 667.14,-157.17 665.08,-160.83"/>
</g>
</g>
</svg>
