<?xml version="1.0" encoding="UTF-8" standalone="no"?>
<!DOCTYPE svg PUBLIC "-//W3C//DTD SVG 1.1//EN"
 "http://www.w3.org/Graphics/SVG/1.1/DTD/svg11.dtd">
<!-- Generated by graphviz version 2.43.0 (0)
 -->
<!-- Title: dependency&#45;cruiser output Pages: 1 -->
<svg width="615pt" height="718pt"
 viewBox="0.00 0.00 614.50 718.00" xmlns="http://www.w3.org/2000/svg" xmlns:xlink="http://www.w3.org/1999/xlink">
<g id="graph0" class="graph" transform="scale(1 1) rotate(0) translate(4 714)">
<title>dependency&#45;cruiser output</title>
<polygon fill="white" stroke="transparent" points="-4,4 -4,-714 610.5,-714 610.5,4 -4,4"/>
<g id="clust1" class="cluster">
<title>cluster_geist</title>
<path fill="#ffffff" stroke="black" stroke-width="2" d="M126.5,-8C126.5,-8 188.5,-8 188.5,-8 194.5,-8 200.5,-14 200.5,-20 200.5,-20 200.5,-82 200.5,-82 200.5,-88 194.5,-94 188.5,-94 188.5,-94 126.5,-94 126.5,-94 120.5,-94 114.5,-88 114.5,-82 114.5,-82 114.5,-20 114.5,-20 114.5,-14 120.5,-8 126.5,-8"/>
<text text-anchor="middle" x="157.5" y="-82.8" font-family="Helvetica,sans-Serif" font-weight="bold" font-size="9.00">geist</text>
</g>
<g id="clust2" class="cluster">
<title>cluster_geist/font</title>
<path fill="#ffffff" stroke="black" stroke-width="2" d="M134.5,-16C134.5,-16 180.5,-16 180.5,-16 186.5,-16 192.5,-22 192.5,-28 192.5,-28 192.5,-56 192.5,-56 192.5,-62 186.5,-68 180.5,-68 180.5,-68 134.5,-68 134.5,-68 128.5,-68 122.5,-62 122.5,-56 122.5,-56 122.5,-28 122.5,-28 122.5,-22 128.5,-16 134.5,-16"/>
<text text-anchor="middle" x="157.5" y="-56.8" font-family="Helvetica,sans-Serif" font-weight="bold" font-size="9.00">font</text>
</g>
<g id="clust3" class="cluster">
<title>cluster_src</title>
<path fill="#ffffff" stroke="black" stroke-width="2" d="M20,-102C20,-102 586.5,-102 586.5,-102 592.5,-102 598.5,-108 598.5,-114 598.5,-114 598.5,-690 598.5,-690 598.5,-696 592.5,-702 586.5,-702 586.5,-702 20,-702 20,-702 14,-702 8,-696 8,-690 8,-690 8,-114 8,-114 8,-108 14,-102 20,-102"/>
<text text-anchor="middle" x="303.25" y="-690.8" font-family="Helvetica,sans-Serif" font-weight="bold" font-size="9.00">src</text>
</g>
<g id="clust4" class="cluster">
<title>cluster_src/app</title>
<path fill="#ffffff" stroke="black" stroke-width="2" d="M28,-110C28,-110 187,-110 187,-110 193,-110 199,-116 199,-122 199,-122 199,-270 199,-270 199,-276 193,-282 187,-282 187,-282 28,-282 28,-282 22,-282 16,-276 16,-270 16,-270 16,-122 16,-122 16,-116 22,-110 28,-110"/>
<text text-anchor="middle" x="107.5" y="-270.8" font-family="Helvetica,sans-Serif" font-weight="bold" font-size="9.00">app</text>
</g>
<g id="clust5" class="cluster">
<title>cluster_src/app/timer</title>
<path fill="#ffffff" stroke="black" stroke-width="2" d="M36,-174C36,-174 89,-174 89,-174 95,-174 101,-180 101,-186 101,-186 101,-244 101,-244 101,-250 95,-256 89,-256 89,-256 36,-256 36,-256 30,-256 24,-250 24,-244 24,-244 24,-186 24,-186 24,-180 30,-174 36,-174"/>
<text text-anchor="middle" x="62.5" y="-244.8" font-family="Helvetica,sans-Serif" font-weight="bold" font-size="9.00">timer</text>
</g>
<g id="clust6" class="cluster">
<title>cluster_src/client</title>
<path fill="#ffffff" stroke="black" stroke-width="2" d="M121,-290C121,-290 491.5,-290 491.5,-290 497.5,-290 503.5,-296 503.5,-302 503.5,-302 503.5,-544 503.5,-544 503.5,-550 497.5,-556 491.5,-556 491.5,-556 121,-556 121,-556 115,-556 109,-550 109,-544 109,-544 109,-302 109,-302 109,-296 115,-290 121,-290"/>
<text text-anchor="middle" x="306.25" y="-544.8" font-family="Helvetica,sans-Serif" font-weight="bold" font-size="9.00">client</text>
</g>
<g id="clust7" class="cluster">
<title>cluster_src/client/components</title>
<path fill="#ffffff" stroke="black" stroke-width="2" d="M131.5,-358C131.5,-358 386.5,-358 386.5,-358 392.5,-358 398.5,-364 398.5,-370 398.5,-370 398.5,-518 398.5,-518 398.5,-524 392.5,-530 386.5,-530 386.5,-530 131.5,-530 131.5,-530 125.5,-530 119.5,-524 119.5,-518 119.5,-518 119.5,-370 119.5,-370 119.5,-364 125.5,-358 131.5,-358"/>
<text text-anchor="middle" x="259" y="-518.8" font-family="Helvetica,sans-Serif" font-weight="bold" font-size="9.00">components</text>
</g>
<g id="clust8" class="cluster">
<title>cluster_src/client/components/ui</title>
<path fill="#ffffff" stroke="black" stroke-width="2" d="M320,-422C320,-422 376,-422 376,-422 382,-422 388,-428 388,-434 388,-434 388,-492 388,-492 388,-498 382,-504 376,-504 376,-504 320,-504 320,-504 314,-504 308,-498 308,-492 308,-492 308,-434 308,-434 308,-428 314,-422 320,-422"/>
<text text-anchor="middle" x="348" y="-492.8" font-family="Helvetica,sans-Serif" font-weight="bold" font-size="9.00">ui</text>
</g>
<g id="clust9" class="cluster">
<title>cluster_src/client/hooks</title>
<path fill="#ffffff" stroke="black" stroke-width="2" d="M418.5,-322C418.5,-322 483.5,-322 483.5,-322 489.5,-322 495.5,-328 495.5,-334 495.5,-334 495.5,-362 495.5,-362 495.5,-368 489.5,-374 483.5,-374 483.5,-374 418.5,-374 418.5,-374 412.5,-374 406.5,-368 406.5,-362 406.5,-362 406.5,-334 406.5,-334 406.5,-328 412.5,-322 418.5,-322"/>
<text text-anchor="middle" x="451" y="-362.8" font-family="Helvetica,sans-Serif" font-weight="bold" font-size="9.00">hooks</text>
</g>
<g id="clust10" class="cluster">
<title>cluster_src/client/styles</title>
<path fill="#ffffff" stroke="black" stroke-width="2" d="M129,-298C129,-298 186,-298 186,-298 192,-298 198,-304 198,-310 198,-310 198,-338 198,-338 198,-344 192,-350 186,-350 186,-350 129,-350 129,-350 123,-350 117,-344 117,-338 117,-338 117,-310 117,-310 117,-304 123,-298 129,-298"/>
<text text-anchor="middle" x="157.5" y="-338.8" font-family="Helvetica,sans-Serif" font-weight="bold" font-size="9.00">styles</text>
</g>
<g id="clust11" class="cluster">
<title>cluster_src/lib</title>
<path fill="#ffffff" stroke="black" stroke-width="2" d="M428,-564C428,-564 474,-564 474,-564 480,-564 486,-570 486,-576 486,-576 486,-664 486,-664 486,-670 480,-676 474,-676 474,-676 428,-676 428,-676 422,-676 416,-670 416,-664 416,-664 416,-576 416,-576 416,-570 422,-564 428,-564"/>
<text text-anchor="middle" x="451" y="-664.8" font-family="Helvetica,sans-Serif" font-weight="bold" font-size="9.00">lib</text>
</g>
<g id="clust12" class="cluster">
<title>cluster_src/server</title>
<path fill="#ffffff" stroke="black" stroke-width="2" d="M317,-148C317,-148 578.5,-148 578.5,-148 584.5,-148 590.5,-154 590.5,-160 590.5,-160 590.5,-254 590.5,-254 590.5,-260 584.5,-266 578.5,-266 578.5,-266 317,-266 317,-266 311,-266 305,-260 305,-254 305,-254 305,-160 305,-160 305,-154 311,-148 317,-148"/>
<text text-anchor="middle" x="447.75" y="-254.8" font-family="Helvetica,sans-Serif" font-weight="bold" font-size="9.00">server</text>
</g>
<g id="clust13" class="cluster">
<title>cluster_src/server/actions</title>
<path fill="#ffffff" stroke="black" stroke-width="2" d="M325,-162C325,-162 371,-162 371,-162 377,-162 383,-168 383,-174 383,-174 383,-202 383,-202 383,-208 377,-214 371,-214 371,-214 325,-214 325,-214 319,-214 313,-208 313,-202 313,-202 313,-174 313,-174 313,-168 319,-162 325,-162"/>
<text text-anchor="middle" x="348" y="-202.8" font-family="Helvetica,sans-Serif" font-weight="bold" font-size="9.00">actions</text>
</g>
<g id="clust14" class="cluster">
<title>cluster_src/server/db</title>
<path fill="#ffffff" stroke="black" stroke-width="2" d="M428,-162C428,-162 570.5,-162 570.5,-162 576.5,-162 582.5,-168 582.5,-174 582.5,-174 582.5,-202 582.5,-202 582.5,-208 576.5,-214 570.5,-214 570.5,-214 428,-214 428,-214 422,-214 416,-208 416,-202 416,-202 416,-174 416,-174 416,-168 422,-162 428,-162"/>
<text text-anchor="middle" x="499.25" y="-202.8" font-family="Helvetica,sans-Serif" font-weight="bold" font-size="9.00">db</text>
</g>
<!-- geist/font/sans -->
<g id="node1" class="node">
<title>geist/font/sans</title>
<g id="a_node1"><a xlink:title="sans">
<path fill="#ffffcc" stroke="black" d="M178.5,-42C178.5,-42 136.5,-42 136.5,-42 133.5,-42 130.5,-39 130.5,-36 130.5,-36 130.5,-30 130.5,-30 130.5,-27 133.5,-24 136.5,-24 136.5,-24 178.5,-24 178.5,-24 181.5,-24 184.5,-27 184.5,-30 184.5,-30 184.5,-36 184.5,-36 184.5,-39 181.5,-42 178.5,-42"/>
<text text-anchor="start" x="147" y="-30.8" font-family="Helvetica,sans-Serif" font-size="9.00">sans</text>
</a>
</g>
</g>
<!-- src/app/layout.tsx -->
<g id="node2" class="node">
<title>src/app/layout.tsx</title>
<g id="a_node2"><a xlink:href="src/app/layout.tsx" xlink:title="layout.tsx">
<path fill="#bbfeff" stroke="black" d="M87,-136C87,-136 38,-136 38,-136 35,-136 32,-133 32,-130 32,-130 32,-124 32,-124 32,-121 35,-118 38,-118 38,-118 87,-118 87,-118 90,-118 93,-121 93,-124 93,-124 93,-130 93,-130 93,-133 90,-136 87,-136"/>
<text text-anchor="start" x="40" y="-124.8" font-family="Helvetica,sans-Serif" font-size="9.00">layout.tsx</text>
</a>
</g>
</g>
<!-- src/app/layout.tsx&#45;&gt;geist/font/sans -->
<g id="edge3" class="edge">
<title>src/app/layout.tsx&#45;&gt;geist/font/sans</title>
<g id="a_edge3"><a xlink:title="not&#45;to&#45;unresolvable">
<path fill="none" stroke="red" stroke-width="2" d="M72.42,-117.99C88.76,-101.47 123.61,-66.24 142.92,-46.73"/>
<polygon fill="red" stroke="red" stroke-width="2" points="144.75,-47.87 147.47,-42.12 141.76,-44.91 144.75,-47.87"/>
</a>
</g>
<text text-anchor="middle" x="65.96" y="-72.84" font-family="Helvetica,sans-Serif" font-size="9.00" fill="red">not&#45;to&#45;unresolvable</text>
</g>
<!-- src/app/manifest.ts -->
<g id="node3" class="node">
<title>src/app/manifest.ts</title>
<g id="a_node3"><a xlink:href="src/app/manifest.ts" xlink:title="manifest.ts">
<path fill="#ddfeff" stroke="black" d="M185,-136C185,-136 130,-136 130,-136 127,-136 124,-133 124,-130 124,-130 124,-124 124,-124 124,-121 127,-118 130,-118 130,-118 185,-118 185,-118 188,-118 191,-121 191,-124 191,-124 191,-130 191,-130 191,-133 188,-136 185,-136"/>
<text text-anchor="start" x="132" y="-124.8" font-family="Helvetica,sans-Serif" font-size="9.00">manifest.ts</text>
</a>
</g>
</g>
<!-- src/app/layout.tsx&#45;&gt;src/app/manifest.ts -->
<g id="edge1" class="edge">
<title>src/app/layout.tsx&#45;&gt;src/app/manifest.ts</title>
<path fill="none" stroke="#000000" stroke-width="2" stroke-opacity="0.200000" d="M93.18,-127C100.98,-127 109.5,-127 117.69,-127"/>
<polygon fill="#000000" fill-opacity="0.200000" stroke="#000000" stroke-width="2" stroke-opacity="0.200000" points="117.88,-129.1 123.88,-127 117.88,-124.9 117.88,-129.1"/>
</g>
<!-- src/client/styles/globals.css -->
<g id="node4" class="node">
<title>src/client/styles/globals.css</title>
<g id="a_node4"><a xlink:href="src/client/styles/globals.css" xlink:title="globals.css">
<path fill="#ffffcc" stroke="black" d="M184,-324C184,-324 131,-324 131,-324 128,-324 125,-321 125,-318 125,-318 125,-312 125,-312 125,-309 128,-306 131,-306 131,-306 184,-306 184,-306 187,-306 190,-309 190,-312 190,-312 190,-318 190,-318 190,-321 187,-324 184,-324"/>
<text text-anchor="start" x="133" y="-312.8" font-family="Helvetica,sans-Serif" font-size="9.00">globals.css</text>
</a>
</g>
</g>
<!-- src/app/layout.tsx&#45;&gt;src/client/styles/globals.css -->
<g id="edge2" class="edge">
<title>src/app/layout.tsx&#45;&gt;src/client/styles/globals.css</title>
<path fill="none" stroke="#000000" stroke-width="2" stroke-opacity="0.200000" d="M93.29,-134.98C96.28,-136.85 98.95,-139.15 101,-142 119.57,-167.85 92.86,-257.57 109,-285 113.33,-292.37 120.27,-298.21 127.52,-302.7"/>
<polygon fill="#000000" fill-opacity="0.200000" stroke="#000000" stroke-width="2" stroke-opacity="0.200000" points="126.83,-304.73 133.08,-305.88 128.91,-301.08 126.83,-304.73"/>
</g>
<!-- src/app/page.tsx -->
<g id="node5" class="node">
<title>src/app/page.tsx</title>
<g id="a_node5"><a xlink:href="src/app/page.tsx" xlink:title="page.tsx">
<path fill="#bbfeff" stroke="black" d="M84.5,-166C84.5,-166 40.5,-166 40.5,-166 37.5,-166 34.5,-163 34.5,-160 34.5,-160 34.5,-154 34.5,-154 34.5,-151 37.5,-148 40.5,-148 40.5,-148 84.5,-148 84.5,-148 87.5,-148 90.5,-151 90.5,-154 90.5,-154 90.5,-160 90.5,-160 90.5,-163 87.5,-166 84.5,-166"/>
<text text-anchor="start" x="42.5" y="-154.8" font-family="Helvetica,sans-Serif" font-size="9.00">page.tsx</text>
</a>
</g>
</g>
<!-- src/client/components/router.tsx -->
<g id="node6" class="node">
<title>src/client/components/router.tsx</title>
<g id="a_node6"><a xlink:href="src/client/components/router.tsx" xlink:title="router.tsx">
<path fill="#bbfeff" stroke="black" d="M181.5,-399C181.5,-399 133.5,-399 133.5,-399 130.5,-399 127.5,-396 127.5,-393 127.5,-393 127.5,-387 127.5,-387 127.5,-384 130.5,-381 133.5,-381 133.5,-381 181.5,-381 181.5,-381 184.5,-381 187.5,-384 187.5,-387 187.5,-387 187.5,-393 187.5,-393 187.5,-396 184.5,-399 181.5,-399"/>
<text text-anchor="start" x="135.5" y="-387.8" font-family="Helvetica,sans-Serif" font-size="9.00">router.tsx</text>
</a>
</g>
</g>
<!-- src/app/page.tsx&#45;&gt;src/client/components/router.tsx -->
<g id="edge4" class="edge">
<title>src/app/page.tsx&#45;&gt;src/client/components/router.tsx</title>
<path fill="none" stroke="#000000" stroke-width="2" stroke-opacity="0.200000" d="M90.73,-162.74C94.73,-164.73 98.38,-167.4 101,-171 112.9,-187.37 99.72,-335.01 109,-353 114.29,-363.25 123.84,-371.54 133,-377.65"/>
<polygon fill="#000000" fill-opacity="0.200000" stroke="#000000" stroke-width="2" stroke-opacity="0.200000" points="132.12,-379.58 138.32,-381 134.36,-376.02 132.12,-379.58"/>
</g>
<!-- src/client/db.ts -->
<g id="node9" class="node">
<title>src/client/db.ts</title>
<g id="a_node9"><a xlink:href="src/client/db.ts" xlink:title="db.ts">
<path fill="#ddfeff" stroke="black" d="M472,-407C472,-407 430,-407 430,-407 427,-407 424,-404 424,-401 424,-401 424,-395 424,-395 424,-392 427,-389 430,-389 430,-389 472,-389 472,-389 475,-389 478,-392 478,-395 478,-395 478,-401 478,-401 478,-404 475,-407 472,-407"/>
<text text-anchor="start" x="439" y="-395.8" font-family="Helvetica,sans-Serif" font-size="9.00">db.ts</text>
</a>
</g>
</g>
<!-- src/client/components/router.tsx&#45;&gt;src/client/db.ts -->
<g id="edge14" class="edge">
<title>src/client/components/router.tsx&#45;&gt;src/client/db.ts</title>
<path fill="none" stroke="#000000" stroke-width="2" stroke-opacity="0.200000" d="M165.84,-399.11C185.42,-422.58 241.72,-484.83 305,-507 344.22,-520.74 363.4,-529.24 398.5,-507 431.45,-486.13 443.72,-437.89 447.95,-413.18"/>
<polygon fill="#000000" fill-opacity="0.200000" stroke="#000000" stroke-width="2" stroke-opacity="0.200000" points="450.04,-413.41 448.91,-407.16 445.9,-412.76 450.04,-413.41"/>
</g>
<!-- src/lib/error.ts -->
<g id="node11" class="node">
<title>src/lib/error.ts</title>
<g id="a_node11"><a xlink:href="src/lib/error.ts" xlink:title="error.ts">
<path fill="#ddfeff" stroke="black" d="M472,-650C472,-650 430,-650 430,-650 427,-650 424,-647 424,-644 424,-644 424,-638 424,-638 424,-635 427,-632 430,-632 430,-632 472,-632 472,-632 475,-632 478,-635 478,-638 478,-638 478,-644 478,-644 478,-647 475,-650 472,-650"/>
<text text-anchor="start" x="434.5" y="-638.8" font-family="Helvetica,sans-Serif" font-size="9.00">error.ts</text>
</a>
</g>
</g>
<!-- src/client/components/router.tsx&#45;&gt;src/lib/error.ts -->
<g id="edge15" class="edge">
<title>src/client/components/router.tsx&#45;&gt;src/lib/error.ts</title>
<path fill="none" stroke="#000000" stroke-width="2" stroke-opacity="0.200000" d="M158.92,-399.25C160.58,-425.31 168.75,-500.21 208.5,-543 270.63,-609.88 317.28,-579.33 398.5,-621 402.23,-622.91 402.72,-624.19 406.5,-626 410.18,-627.76 414.12,-629.41 418.08,-630.93"/>
<polygon fill="#000000" fill-opacity="0.200000" stroke="#000000" stroke-width="2" stroke-opacity="0.200000" points="417.5,-632.95 423.85,-633.06 418.95,-629.01 417.5,-632.95"/>
</g>
<!-- src/client/components/home&#45;page.tsx -->
<g id="node13" class="node">
<title>src/client/components/home&#45;page.tsx</title>
<g id="a_node13"><a xlink:href="src/client/components/home-page.tsx" xlink:title="home&#45;page.tsx">
<path fill="#bbfeff" stroke="black" d="M286.5,-414C286.5,-414 214.5,-414 214.5,-414 211.5,-414 208.5,-411 208.5,-408 208.5,-408 208.5,-402 208.5,-402 208.5,-399 211.5,-396 214.5,-396 214.5,-396 286.5,-396 286.5,-396 289.5,-396 292.5,-399 292.5,-402 292.5,-402 292.5,-408 292.5,-408 292.5,-411 289.5,-414 286.5,-414"/>
<text text-anchor="start" x="216.5" y="-402.8" font-family="Helvetica,sans-Serif" font-size="9.00">home&#45;page.tsx</text>
</a>
</g>
</g>
<!-- src/client/components/router.tsx&#45;&gt;src/client/components/home&#45;page.tsx -->
<g id="edge12" class="edge">
<title>src/client/components/router.tsx&#45;&gt;src/client/components/home&#45;page.tsx</title>
<path fill="none" stroke="#000000" stroke-width="2" stroke-opacity="0.200000" d="M187.54,-394.79C192.33,-395.58 197.39,-396.41 202.49,-397.25"/>
<polygon fill="#000000" fill-opacity="0.200000" stroke="#000000" stroke-width="2" stroke-opacity="0.200000" points="202.2,-399.33 208.46,-398.24 202.88,-395.19 202.2,-399.33"/>
</g>
<!-- src/client/components/timer&#45;page.tsx -->
<g id="node16" class="node">
<title>src/client/components/timer&#45;page.tsx</title>
<g id="a_node16"><a xlink:href="src/client/components/timer-page.tsx" xlink:title="timer&#45;page.tsx">
<path fill="#bbfeff" stroke="black" d="M285.5,-384C285.5,-384 215.5,-384 215.5,-384 212.5,-384 209.5,-381 209.5,-378 209.5,-378 209.5,-372 209.5,-372 209.5,-369 212.5,-366 215.5,-366 215.5,-366 285.5,-366 285.5,-366 288.5,-366 291.5,-369 291.5,-372 291.5,-372 291.5,-378 291.5,-378 291.5,-381 288.5,-384 285.5,-384"/>
<text text-anchor="start" x="217.5" y="-372.8" font-family="Helvetica,sans-Serif" font-size="9.00">timer&#45;page.tsx</text>
</a>
</g>
</g>
<!-- src/client/components/router.tsx&#45;&gt;src/client/components/timer&#45;page.tsx -->
<g id="edge13" class="edge">
<title>src/client/components/router.tsx&#45;&gt;src/client/components/timer&#45;page.tsx</title>
<path fill="none" stroke="#000000" stroke-width="2" stroke-opacity="0.200000" d="M187.54,-385.21C192.55,-384.39 197.87,-383.51 203.2,-382.63"/>
<polygon fill="#000000" fill-opacity="0.200000" stroke="#000000" stroke-width="2" stroke-opacity="0.200000" points="203.87,-384.65 209.45,-381.6 203.19,-380.51 203.87,-384.65"/>
</g>
<!-- src/app/timer/layout.tsx -->
<g id="node7" class="node">
<title>src/app/timer/layout.tsx</title>
<g id="a_node7"><a xlink:href="src/app/timer/layout.tsx" xlink:title="no&#45;orphans">
<path fill="#ccffcc" stroke="orange" d="M87,-230C87,-230 38,-230 38,-230 35,-230 32,-227 32,-224 32,-224 32,-218 32,-218 32,-215 35,-212 38,-212 38,-212 87,-212 87,-212 90,-212 93,-215 93,-218 93,-218 93,-224 93,-224 93,-227 90,-230 87,-230"/>
<text text-anchor="start" x="40" y="-218.8" font-family="Helvetica,sans-Serif" font-size="9.00" fill="orange">layout.tsx</text>
</a>
</g>
</g>
<!-- src/app/timer/page.tsx -->
<g id="node8" class="node">
<title>src/app/timer/page.tsx</title>
<g id="a_node8"><a xlink:href="src/app/timer/page.tsx" xlink:title="page.tsx">
<path fill="#bbfeff" stroke="black" d="M84.5,-200C84.5,-200 40.5,-200 40.5,-200 37.5,-200 34.5,-197 34.5,-194 34.5,-194 34.5,-188 34.5,-188 34.5,-185 37.5,-182 40.5,-182 40.5,-182 84.5,-182 84.5,-182 87.5,-182 90.5,-185 90.5,-188 90.5,-188 90.5,-194 90.5,-194 90.5,-197 87.5,-200 84.5,-200"/>
<text text-anchor="start" x="42.5" y="-188.8" font-family="Helvetica,sans-Serif" font-size="9.00">page.tsx</text>
</a>
</g>
</g>
<!-- src/app/timer/page.tsx&#45;&gt;src/client/components/router.tsx -->
<g id="edge5" class="edge">
<title>src/app/timer/page.tsx&#45;&gt;src/client/components/router.tsx</title>
<path fill="none" stroke="#000000" stroke-width="2" stroke-opacity="0.200000" d="M90.73,-197.5C94.73,-199.59 98.38,-202.35 101,-206 120.07,-232.58 93.84,-324.01 109,-353 114.34,-363.22 123.91,-371.51 133.06,-377.62"/>
<polygon fill="#000000" fill-opacity="0.200000" stroke="#000000" stroke-width="2" stroke-opacity="0.200000" points="132.17,-379.55 138.36,-380.97 134.41,-375.99 132.17,-379.55"/>
</g>
<!-- src/app/timer/page.tsx&#45;&gt;src/client/db.ts -->
<g id="edge6" class="edge">
<title>src/app/timer/page.tsx&#45;&gt;src/client/db.ts</title>
<path fill="none" stroke="#000000" stroke-width="2" stroke-opacity="0.200000" d="M90.56,-197.63C94.58,-199.7 98.29,-202.43 101,-206 120.75,-231.99 86.67,-255.19 109,-279 123.12,-294.06 180.3,-290.74 200.5,-295 289.2,-313.71 334.55,-279.74 398.5,-344 409.15,-354.7 397.02,-365.26 406.5,-377 409.76,-381.03 413.98,-384.34 418.51,-387.04"/>
<polygon fill="#000000" fill-opacity="0.200000" stroke="#000000" stroke-width="2" stroke-opacity="0.200000" points="417.64,-388.96 423.92,-389.94 419.62,-385.26 417.64,-388.96"/>
</g>
<!-- src/client/hooks/useUserId.ts -->
<g id="node10" class="node">
<title>src/client/hooks/useUserId.ts</title>
<g id="a_node10"><a xlink:href="src/client/hooks/useUserId.ts" xlink:title="useUserId.ts">
<path fill="#ddfeff" stroke="black" d="M481.5,-348C481.5,-348 420.5,-348 420.5,-348 417.5,-348 414.5,-345 414.5,-342 414.5,-342 414.5,-336 414.5,-336 414.5,-333 417.5,-330 420.5,-330 420.5,-330 481.5,-330 481.5,-330 484.5,-330 487.5,-333 487.5,-336 487.5,-336 487.5,-342 487.5,-342 487.5,-345 484.5,-348 481.5,-348"/>
<text text-anchor="start" x="422.5" y="-336.8" font-family="Helvetica,sans-Serif" font-size="9.00">useUserId.ts</text>
</a>
</g>
</g>
<!-- src/app/timer/page.tsx&#45;&gt;src/client/hooks/useUserId.ts -->
<g id="edge7" class="edge">
<title>src/app/timer/page.tsx&#45;&gt;src/client/hooks/useUserId.ts</title>
<path fill="none" stroke="#000000" stroke-width="2" stroke-opacity="0.200000" d="M90.51,-197.66C94.54,-199.73 98.26,-202.45 101,-206 118.51,-228.69 88.01,-250.48 109,-270 132.59,-291.93 369.23,-271.56 398.5,-285 416.84,-293.42 431.92,-311.58 440.93,-324.52"/>
<polygon fill="#000000" fill-opacity="0.200000" stroke="#000000" stroke-width="2" stroke-opacity="0.200000" points="439.32,-325.89 444.41,-329.7 442.81,-323.54 439.32,-325.89"/>
</g>
<!-- src/app/timer/page.tsx&#45;&gt;src/lib/error.ts -->
<g id="edge8" class="edge">
<title>src/app/timer/page.tsx&#45;&gt;src/lib/error.ts</title>
<path fill="none" stroke="#000000" stroke-width="2" stroke-opacity="0.200000" d="M90.83,-197.43C94.82,-199.53 98.44,-202.31 101,-206 123.86,-238.97 86.59,-533.72 109,-567 176.49,-667.24 345.85,-656.2 417.34,-646.43"/>
<polygon fill="#000000" fill-opacity="0.200000" stroke="#000000" stroke-width="2" stroke-opacity="0.200000" points="417.9,-648.47 423.54,-645.55 417.31,-644.31 417.9,-648.47"/>
</g>
<!-- src/lib/time.ts -->
<g id="node12" class="node">
<title>src/lib/time.ts</title>
<g id="a_node12"><a xlink:href="src/lib/time.ts" xlink:title="time.ts">
<path fill="#ddfeff" stroke="black" d="M472,-620C472,-620 430,-620 430,-620 427,-620 424,-617 424,-614 424,-614 424,-608 424,-608 424,-605 427,-602 430,-602 430,-602 472,-602 472,-602 475,-602 478,-605 478,-608 478,-608 478,-614 478,-614 478,-617 475,-620 472,-620"/>
<text text-anchor="start" x="435" y="-608.8" font-family="Helvetica,sans-Serif" font-size="9.00">time.ts</text>
</a>
</g>
</g>
<!-- src/app/timer/page.tsx&#45;&gt;src/lib/time.ts -->
<g id="edge9" class="edge">
<title>src/app/timer/page.tsx&#45;&gt;src/lib/time.ts</title>
<path fill="none" stroke="#000000" stroke-width="2" stroke-opacity="0.200000" d="M90.82,-197.44C94.81,-199.53 98.44,-202.31 101,-206 111.37,-220.92 97.5,-518.93 109,-533 185.29,-626.35 348.3,-621.83 417.67,-615.09"/>
<polygon fill="#000000" fill-opacity="0.200000" stroke="#000000" stroke-width="2" stroke-opacity="0.200000" points="417.94,-617.17 423.69,-614.48 417.51,-612.99 417.94,-617.17"/>
</g>
<!-- src/client/components/timer&#45;form.tsx -->
<g id="node14" class="node">
<title>src/client/components/timer&#45;form.tsx</title>
<g id="a_node14"><a xlink:href="src/client/components/timer-form.tsx" xlink:title="timer&#45;form.tsx">
<path fill="#bbfeff" stroke="black" d="M382,-414C382,-414 314,-414 314,-414 311,-414 308,-411 308,-408 308,-408 308,-402 308,-402 308,-399 311,-396 314,-396 314,-396 382,-396 382,-396 385,-396 388,-399 388,-402 388,-402 388,-408 388,-408 388,-411 385,-414 382,-414"/>
<text text-anchor="start" x="316" y="-402.8" font-family="Helvetica,sans-Serif" font-size="9.00">timer&#45;form.tsx</text>
</a>
</g>
</g>
<!-- src/client/components/home&#45;page.tsx&#45;&gt;src/client/components/timer&#45;form.tsx -->
<g id="edge10" class="edge">
<title>src/client/components/home&#45;page.tsx&#45;&gt;src/client/components/timer&#45;form.tsx</title>
<path fill="none" stroke="#000000" stroke-width="2" stroke-opacity="0.200000" d="M292.55,-405C295.56,-405 298.59,-405 301.62,-405"/>
<polygon fill="#000000" fill-opacity="0.200000" stroke="#000000" stroke-width="2" stroke-opacity="0.200000" points="301.79,-407.1 307.79,-405 301.79,-402.9 301.79,-407.1"/>
</g>
<!-- src/client/components/ui/link.tsx -->
<g id="node15" class="node">
<title>src/client/components/ui/link.tsx</title>
<g id="a_node15"><a xlink:href="src/client/components/ui/link.tsx" xlink:title="link.tsx">
<path fill="#bbfeff" stroke="black" d="M369,-478C369,-478 327,-478 327,-478 324,-478 321,-475 321,-472 321,-472 321,-466 321,-466 321,-463 324,-460 327,-460 327,-460 369,-460 369,-460 372,-460 375,-463 375,-466 375,-466 375,-472 375,-472 375,-475 372,-478 369,-478"/>
<text text-anchor="start" x="331.5" y="-466.8" font-family="Helvetica,sans-Serif" font-size="9.00">link.tsx</text>
</a>
</g>
</g>
<!-- src/client/components/home&#45;page.tsx&#45;&gt;src/client/components/ui/link.tsx -->
<g id="edge11" class="edge">
<title>src/client/components/home&#45;page.tsx&#45;&gt;src/client/components/ui/link.tsx</title>
<path fill="none" stroke="#000000" stroke-width="2" stroke-opacity="0.200000" d="M287.57,-414.1C289.34,-415.25 291,-416.54 292.5,-418 304.64,-429.81 293.08,-441.97 305,-454 307.93,-456.96 311.48,-459.33 315.26,-461.24"/>
<polygon fill="#000000" fill-opacity="0.200000" stroke="#000000" stroke-width="2" stroke-opacity="0.200000" points="314.59,-463.24 320.92,-463.72 316.27,-459.39 314.59,-463.24"/>
</g>
<!-- src/client/components/timer&#45;form.tsx&#45;&gt;src/client/db.ts -->
<g id="edge16" class="edge">
<title>src/client/components/timer&#45;form.tsx&#45;&gt;src/client/db.ts</title>
<path fill="none" stroke="#000000" stroke-width="2" stroke-opacity="0.200000" d="M388.05,-402.29C397.89,-401.61 408.33,-400.89 417.79,-400.23"/>
<polygon fill="#000000" fill-opacity="0.200000" stroke="#000000" stroke-width="2" stroke-opacity="0.200000" points="418.01,-402.32 423.85,-399.81 417.72,-398.13 418.01,-402.32"/>
</g>
<!-- src/client/components/timer&#45;form.tsx&#45;&gt;src/client/hooks/useUserId.ts -->
<g id="edge17" class="edge">
<title>src/client/components/timer&#45;form.tsx&#45;&gt;src/client/hooks/useUserId.ts</title>
<path fill="none" stroke="#000000" stroke-width="2" stroke-opacity="0.200000" d="M388.16,-397.68C392.03,-395.69 395.59,-393.18 398.5,-390 410.16,-377.28 394.81,-364.7 406.5,-352 407.34,-351.09 408.24,-350.24 409.19,-349.44"/>
<polygon fill="#000000" fill-opacity="0.200000" stroke="#000000" stroke-width="2" stroke-opacity="0.200000" points="410.54,-351.07 414.33,-345.96 408.18,-347.59 410.54,-351.07"/>
</g>
<!-- src/client/components/timer&#45;form.tsx&#45;&gt;src/lib/error.ts -->
<g id="edge18" class="edge">
<title>src/client/components/timer&#45;form.tsx&#45;&gt;src/lib/error.ts</title>
<path fill="none" stroke="#000000" stroke-width="2" stroke-opacity="0.200000" d="M388.21,-410.79C392.17,-412.82 395.74,-415.49 398.5,-419 412.74,-437.09 392.78,-607.52 406.5,-626 409.45,-629.97 413.51,-632.89 417.98,-635.05"/>
<polygon fill="#000000" fill-opacity="0.200000" stroke="#000000" stroke-width="2" stroke-opacity="0.200000" points="417.45,-637.1 423.8,-637.39 419.02,-633.21 417.45,-637.1"/>
</g>
<!-- src/client/components/timer&#45;form.tsx&#45;&gt;src/lib/time.ts -->
<g id="edge19" class="edge">
<title>src/client/components/timer&#45;form.tsx&#45;&gt;src/lib/time.ts</title>
<path fill="none" stroke="#000000" stroke-width="2" stroke-opacity="0.200000" d="M388.18,-410.81C392.15,-412.83 395.73,-415.5 398.5,-419 410.73,-434.43 394.71,-580.23 406.5,-596 409.46,-599.96 413.53,-602.88 418,-605.03"/>
<polygon fill="#000000" fill-opacity="0.200000" stroke="#000000" stroke-width="2" stroke-opacity="0.200000" points="417.47,-607.09 423.82,-607.37 419.04,-603.19 417.47,-607.09"/>
</g>
<!-- src/client/components/timer&#45;page.tsx&#45;&gt;src/client/db.ts -->
<g id="edge21" class="edge">
<title>src/client/components/timer&#45;page.tsx&#45;&gt;src/client/db.ts</title>
<path fill="none" stroke="#000000" stroke-width="2" stroke-opacity="0.200000" d="M270.87,-365.9C300.78,-353.32 358.86,-334.85 398.5,-360 405.55,-364.47 400.62,-371.07 406.5,-377 409.9,-380.44 413.98,-383.39 418.25,-385.9"/>
<polygon fill="#000000" fill-opacity="0.200000" stroke="#000000" stroke-width="2" stroke-opacity="0.200000" points="417.46,-387.86 423.74,-388.86 419.45,-384.16 417.46,-387.86"/>
</g>
<!-- src/client/components/timer&#45;page.tsx&#45;&gt;src/client/hooks/useUserId.ts -->
<g id="edge22" class="edge">
<title>src/client/components/timer&#45;page.tsx&#45;&gt;src/client/hooks/useUserId.ts</title>
<path fill="none" stroke="#000000" stroke-width="2" stroke-opacity="0.200000" d="M263.46,-365.74C273.82,-358.33 289.52,-348.45 305,-344 338.79,-334.29 378.83,-333.68 408.27,-335.14"/>
<polygon fill="#000000" fill-opacity="0.200000" stroke="#000000" stroke-width="2" stroke-opacity="0.200000" points="408.28,-337.24 414.39,-335.48 408.51,-333.05 408.28,-337.24"/>
</g>
<!-- src/client/components/timer&#45;page.tsx&#45;&gt;src/lib/time.ts -->
<g id="edge23" class="edge">
<title>src/client/components/timer&#45;page.tsx&#45;&gt;src/lib/time.ts</title>
<path fill="none" stroke="#000000" stroke-width="2" stroke-opacity="0.200000" d="M286.2,-384.17C288.58,-385.8 290.73,-387.73 292.5,-390 324.7,-431.21 273.34,-465.37 305,-507 332.05,-542.57 370.63,-509.06 398.5,-544 413.08,-562.28 391.51,-578.05 406.5,-596 409.6,-599.71 413.66,-602.5 418.05,-604.6"/>
<polygon fill="#000000" fill-opacity="0.200000" stroke="#000000" stroke-width="2" stroke-opacity="0.200000" points="417.4,-606.61 423.75,-606.92 418.98,-602.72 417.4,-606.61"/>
</g>
<!-- src/client/components/visual&#45;timer.tsx -->
<g id="node17" class="node">
<title>src/client/components/visual&#45;timer.tsx</title>
<g id="a_node17"><a xlink:href="src/client/components/visual-timer.tsx" xlink:title="visual&#45;timer.tsx">
<path fill="#bbfeff" stroke="black" d="M384.5,-384C384.5,-384 311.5,-384 311.5,-384 308.5,-384 305.5,-381 305.5,-378 305.5,-378 305.5,-372 305.5,-372 305.5,-369 308.5,-366 311.5,-366 311.5,-366 384.5,-366 384.5,-366 387.5,-366 390.5,-369 390.5,-372 390.5,-372 390.5,-378 390.5,-378 390.5,-381 387.5,-384 384.5,-384"/>
<text text-anchor="start" x="313.5" y="-372.8" font-family="Helvetica,sans-Serif" font-size="9.00">visual&#45;timer.tsx</text>
</a>
</g>
</g>
<!-- src/client/components/timer&#45;page.tsx&#45;&gt;src/client/components/visual&#45;timer.tsx -->
<g id="edge20" class="edge">
<title>src/client/components/timer&#45;page.tsx&#45;&gt;src/client/components/visual&#45;timer.tsx</title>
<path fill="none" stroke="#000000" stroke-width="2" stroke-opacity="0.200000" d="M291.72,-375C294.11,-375 296.52,-375 298.93,-375"/>
<polygon fill="#000000" fill-opacity="0.200000" stroke="#000000" stroke-width="2" stroke-opacity="0.200000" points="299.29,-377.1 305.29,-375 299.29,-372.9 299.29,-377.1"/>
</g>
<!-- src/server/actions/index.ts -->
<g id="node18" class="node">
<title>src/server/actions/index.ts</title>
<g id="a_node18"><a xlink:href="src/server/actions/index.ts" xlink:title="index.ts">
<path fill="#ddfeff" stroke="black" d="M369,-188C369,-188 327,-188 327,-188 324,-188 321,-185 321,-182 321,-182 321,-176 321,-176 321,-173 324,-170 327,-170 327,-170 369,-170 369,-170 372,-170 375,-173 375,-176 375,-176 375,-182 375,-182 375,-185 372,-188 369,-188"/>
<text text-anchor="start" x="329.5" y="-176.8" font-family="Helvetica,sans-Serif" font-size="9.00">index.ts</text>
</a>
</g>
</g>
<!-- src/client/components/timer&#45;page.tsx&#45;&gt;src/server/actions/index.ts -->
<g id="edge24" class="edge">
<title>src/client/components/timer&#45;page.tsx&#45;&gt;src/server/actions/index.ts</title>
<path fill="none" stroke="#000000" stroke-width="2" stroke-opacity="0.200000" d="M255.98,-365.81C271.17,-334.63 320.84,-232.69 339.67,-194.04"/>
<polygon fill="#000000" fill-opacity="0.200000" stroke="#000000" stroke-width="2" stroke-opacity="0.200000" points="341.68,-194.71 342.42,-188.4 337.9,-192.87 341.68,-194.71"/>
</g>
<!-- src/server/db/schema.ts -->
<g id="node21" class="node">
<title>src/server/db/schema.ts</title>
<g id="a_node21"><a xlink:href="src/server/db/schema.ts" xlink:title="schema.ts">
<path fill="#ddfeff" stroke="black" d="M568.5,-188C568.5,-188 517.5,-188 517.5,-188 514.5,-188 511.5,-185 511.5,-182 511.5,-182 511.5,-176 511.5,-176 511.5,-173 514.5,-170 517.5,-170 517.5,-170 568.5,-170 568.5,-170 571.5,-170 574.5,-173 574.5,-176 574.5,-176 574.5,-182 574.5,-182 574.5,-185 571.5,-188 568.5,-188"/>
<text text-anchor="start" x="519.5" y="-176.8" font-family="Helvetica,sans-Serif" font-size="9.00">schema.ts</text>
</a>
</g>
</g>
<!-- src/server/actions/index.ts&#45;&gt;src/server/db/schema.ts -->
<g id="edge26" class="edge">
<title>src/server/actions/index.ts&#45;&gt;src/server/db/schema.ts</title>
<path fill="none" stroke="#000000" stroke-width="2" stroke-opacity="0.200000" d="M375.06,-170.7C384.81,-167.99 396.06,-165.34 406.5,-164 449.26,-158.51 461.13,-156.04 503.5,-164 507.96,-164.84 512.57,-166.18 516.97,-167.72"/>
<polygon fill="#000000" fill-opacity="0.200000" stroke="#000000" stroke-width="2" stroke-opacity="0.200000" points="516.47,-169.78 522.83,-169.92 517.95,-165.84 516.47,-169.78"/>
</g>
<!-- src/server/db/index.ts -->
<g id="node22" class="node">
<title>src/server/db/index.ts</title>
<g id="a_node22"><a xlink:href="src/server/db/index.ts" xlink:title="index.ts">
<path fill="#ddfeff" stroke="black" d="M472,-188C472,-188 430,-188 430,-188 427,-188 424,-185 424,-182 424,-182 424,-176 424,-176 424,-173 427,-170 430,-170 430,-170 472,-170 472,-170 475,-170 478,-173 478,-176 478,-176 478,-182 478,-182 478,-185 475,-188 472,-188"/>
<text text-anchor="start" x="432.5" y="-176.8" font-family="Helvetica,sans-Serif" font-size="9.00">index.ts</text>
</a>
</g>
</g>
<!-- src/server/actions/index.ts&#45;&gt;src/server/db/index.ts -->
<g id="edge27" class="edge">
<title>src/server/actions/index.ts&#45;&gt;src/server/db/index.ts</title>
<path fill="none" stroke="#000000" stroke-width="2" stroke-opacity="0.200000" d="M375.01,-179C387.99,-179 403.81,-179 417.57,-179"/>
<polygon fill="#000000" fill-opacity="0.200000" stroke="#000000" stroke-width="2" stroke-opacity="0.200000" points="417.73,-181.1 423.73,-179 417.73,-176.9 417.73,-181.1"/>
</g>
<!-- src/client/components/ui/button.tsx -->
<g id="node19" class="node">
<title>src/client/components/ui/button.tsx</title>
<g id="a_node19"><a xlink:href="src/client/components/ui/button.tsx" xlink:title="button.tsx">
<path fill="#bbfeff" stroke="black" d="M374,-448C374,-448 322,-448 322,-448 319,-448 316,-445 316,-442 316,-442 316,-436 316,-436 316,-433 319,-430 322,-430 322,-430 374,-430 374,-430 377,-430 380,-433 380,-436 380,-436 380,-442 380,-442 380,-445 377,-448 374,-448"/>
<text text-anchor="start" x="324" y="-436.8" font-family="Helvetica,sans-Serif" font-size="9.00">button.tsx</text>
</a>
</g>
</g>
<!-- src/lib/utils.ts -->
<g id="node20" class="node">
<title>src/lib/utils.ts</title>
<g id="a_node20"><a xlink:href="src/lib/utils.ts" xlink:title="utils.ts">
<path fill="#ddfeff" stroke="black" d="M472,-590C472,-590 430,-590 430,-590 427,-590 424,-587 424,-584 424,-584 424,-578 424,-578 424,-575 427,-572 430,-572 430,-572 472,-572 472,-572 475,-572 478,-575 478,-578 478,-578 478,-584 478,-584 478,-587 475,-590 472,-590"/>
<text text-anchor="start" x="435.5" y="-578.8" font-family="Helvetica,sans-Serif" font-size="9.00">utils.ts</text>
</a>
</g>
</g>
<!-- src/client/components/ui/button.tsx&#45;&gt;src/lib/utils.ts -->
<g id="edge25" class="edge">
<title>src/client/components/ui/button.tsx&#45;&gt;src/lib/utils.ts</title>
<path fill="none" stroke="#000000" stroke-width="2" stroke-opacity="0.200000" d="M380.13,-442.41C387.16,-444.65 393.89,-448.26 398.5,-454 413.15,-472.25 393.49,-539.55 406.5,-559 409.48,-563.45 413.64,-567.04 418.21,-569.93"/>
<polygon fill="#000000" fill-opacity="0.200000" stroke="#000000" stroke-width="2" stroke-opacity="0.200000" points="417.47,-571.92 423.73,-573.01 419.52,-568.26 417.47,-571.92"/>
</g>
<!-- src/server/db/index.ts&#45;&gt;src/server/db/schema.ts -->
<g id="edge28" class="edge">
<title>src/server/db/index.ts&#45;&gt;src/server/db/schema.ts</title>
<path fill="none" stroke="#000000" stroke-width="2" stroke-opacity="0.200000" d="M478.03,-179C486.47,-179 495.99,-179 505.07,-179"/>
<polygon fill="#000000" fill-opacity="0.200000" stroke="#000000" stroke-width="2" stroke-opacity="0.200000" points="505.26,-181.1 511.26,-179 505.26,-176.9 505.26,-181.1"/>
</g>
<!-- src/server/env.ts -->
<g id="node23" class="node">
<title>src/server/env.ts</title>
<g id="a_node23"><a xlink:href="src/server/env.ts" xlink:title="env.ts">
<path fill="#ddfeff" stroke="black" d="M564,-240C564,-240 522,-240 522,-240 519,-240 516,-237 516,-234 516,-234 516,-228 516,-228 516,-225 519,-222 522,-222 522,-222 564,-222 564,-222 567,-222 570,-225 570,-228 570,-228 570,-234 570,-234 570,-237 567,-240 564,-240"/>
<text text-anchor="start" x="529" y="-228.8" font-family="Helvetica,sans-Serif" font-size="9.00">env.ts</text>
</a>
</g>
</g>
<!-- src/server/db/index.ts&#45;&gt;src/server/env.ts -->
<g id="edge29" class="edge">
<title>src/server/db/index.ts&#45;&gt;src/server/env.ts</title>
<path fill="none" stroke="#000000" stroke-width="2" stroke-opacity="0.200000" d="M465.38,-188.3C477.24,-196.36 495.14,-208.08 511.5,-217 512.84,-217.73 514.23,-218.46 515.64,-219.18"/>
<polygon fill="#000000" fill-opacity="0.200000" stroke="#000000" stroke-width="2" stroke-opacity="0.200000" points="514.83,-221.12 521.14,-221.89 516.68,-217.35 514.83,-221.12"/>
</g>
</g>
</svg>
