<?xml version="1.0" encoding="UTF-8" standalone="no"?>
<!DOCTYPE svg PUBLIC "-//W3C//DTD SVG 1.1//EN"
 "http://www.w3.org/Graphics/SVG/1.1/DTD/svg11.dtd">
<!-- Generated by graphviz version 2.43.0 (0)
 -->
<!-- Title: dependency&#45;cruiser output Pages: 1 -->
<svg width="768pt" height="714pt"
 viewBox="0.00 0.00 767.50 714.00" xmlns="http://www.w3.org/2000/svg" xmlns:xlink="http://www.w3.org/1999/xlink">
<g id="graph0" class="graph" transform="scale(1 1) rotate(0) translate(4 710)">
<title>dependency&#45;cruiser output</title>
<polygon fill="white" stroke="transparent" points="-4,4 -4,-710 763.5,-710 763.5,4 -4,4"/>
<g id="clust1" class="cluster">
<title>cluster_geist</title>
<path fill="#ffffff" stroke="black" stroke-width="2" d="M126.5,-8C126.5,-8 188.5,-8 188.5,-8 194.5,-8 200.5,-14 200.5,-20 200.5,-20 200.5,-82 200.5,-82 200.5,-88 194.5,-94 188.5,-94 188.5,-94 126.5,-94 126.5,-94 120.5,-94 114.5,-88 114.5,-82 114.5,-82 114.5,-20 114.5,-20 114.5,-14 120.5,-8 126.5,-8"/>
<text text-anchor="middle" x="157.5" y="-82.8" font-family="Helvetica,sans-Serif" font-weight="bold" font-size="9.00">geist</text>
</g>
<g id="clust2" class="cluster">
<title>cluster_geist/font</title>
<path fill="#ffffff" stroke="black" stroke-width="2" d="M134.5,-16C134.5,-16 180.5,-16 180.5,-16 186.5,-16 192.5,-22 192.5,-28 192.5,-28 192.5,-56 192.5,-56 192.5,-62 186.5,-68 180.5,-68 180.5,-68 134.5,-68 134.5,-68 128.5,-68 122.5,-62 122.5,-56 122.5,-56 122.5,-28 122.5,-28 122.5,-22 128.5,-16 134.5,-16"/>
<text text-anchor="middle" x="157.5" y="-56.8" font-family="Helvetica,sans-Serif" font-weight="bold" font-size="9.00">font</text>
</g>
<g id="clust3" class="cluster">
<title>cluster_src</title>
<path fill="#ffffff" stroke="black" stroke-width="2" d="M20,-102C20,-102 739.5,-102 739.5,-102 745.5,-102 751.5,-108 751.5,-114 751.5,-114 751.5,-686 751.5,-686 751.5,-692 745.5,-698 739.5,-698 739.5,-698 20,-698 20,-698 14,-698 8,-692 8,-686 8,-686 8,-114 8,-114 8,-108 14,-102 20,-102"/>
<text text-anchor="middle" x="379.75" y="-686.8" font-family="Helvetica,sans-Serif" font-weight="bold" font-size="9.00">src</text>
</g>
<g id="clust4" class="cluster">
<title>cluster_src/app</title>
<path fill="#ffffff" stroke="black" stroke-width="2" d="M28,-110C28,-110 187,-110 187,-110 193,-110 199,-116 199,-122 199,-122 199,-270 199,-270 199,-276 193,-282 187,-282 187,-282 28,-282 28,-282 22,-282 16,-276 16,-270 16,-270 16,-122 16,-122 16,-116 22,-110 28,-110"/>
<text text-anchor="middle" x="107.5" y="-270.8" font-family="Helvetica,sans-Serif" font-weight="bold" font-size="9.00">app</text>
</g>
<g id="clust5" class="cluster">
<title>cluster_src/app/timer</title>
<path fill="#ffffff" stroke="black" stroke-width="2" d="M36,-174C36,-174 89,-174 89,-174 95,-174 101,-180 101,-186 101,-186 101,-244 101,-244 101,-250 95,-256 89,-256 89,-256 36,-256 36,-256 30,-256 24,-250 24,-244 24,-244 24,-186 24,-186 24,-180 30,-174 36,-174"/>
<text text-anchor="middle" x="62.5" y="-244.8" font-family="Helvetica,sans-Serif" font-weight="bold" font-size="9.00">timer</text>
</g>
<g id="clust6" class="cluster">
<title>cluster_src/client</title>
<path fill="#ffffff" stroke="black" stroke-width="2" d="M121,-290C121,-290 569.5,-290 569.5,-290 575.5,-290 581.5,-296 581.5,-302 581.5,-302 581.5,-540 581.5,-540 581.5,-546 575.5,-552 569.5,-552 569.5,-552 121,-552 121,-552 115,-552 109,-546 109,-540 109,-540 109,-302 109,-302 109,-296 115,-290 121,-290"/>
<text text-anchor="middle" x="345.25" y="-540.8" font-family="Helvetica,sans-Serif" font-weight="bold" font-size="9.00">client</text>
</g>
<g id="clust7" class="cluster">
<title>cluster_src/client/components</title>
<path fill="#ffffff" stroke="black" stroke-width="2" d="M131.5,-358C131.5,-358 386.5,-358 386.5,-358 392.5,-358 398.5,-364 398.5,-370 398.5,-370 398.5,-514 398.5,-514 398.5,-520 392.5,-526 386.5,-526 386.5,-526 131.5,-526 131.5,-526 125.5,-526 119.5,-520 119.5,-514 119.5,-514 119.5,-370 119.5,-370 119.5,-364 125.5,-358 131.5,-358"/>
<text text-anchor="middle" x="259" y="-514.8" font-family="Helvetica,sans-Serif" font-weight="bold" font-size="9.00">components</text>
</g>
<g id="clust8" class="cluster">
<title>cluster_src/client/components/ui</title>
<path fill="#ffffff" stroke="black" stroke-width="2" d="M320,-392C320,-392 376,-392 376,-392 382,-392 388,-398 388,-404 388,-404 388,-462 388,-462 388,-468 382,-474 376,-474 376,-474 320,-474 320,-474 314,-474 308,-468 308,-462 308,-462 308,-404 308,-404 308,-398 314,-392 320,-392"/>
<text text-anchor="middle" x="348" y="-462.8" font-family="Helvetica,sans-Serif" font-weight="bold" font-size="9.00">ui</text>
</g>
<g id="clust9" class="cluster">
<title>cluster_src/client/hooks</title>
<path fill="#ffffff" stroke="black" stroke-width="2" d="M418.5,-362C418.5,-362 483.5,-362 483.5,-362 489.5,-362 495.5,-368 495.5,-374 495.5,-374 495.5,-432 495.5,-432 495.5,-438 489.5,-444 483.5,-444 483.5,-444 418.5,-444 418.5,-444 412.5,-444 406.5,-438 406.5,-432 406.5,-432 406.5,-374 406.5,-374 406.5,-368 412.5,-362 418.5,-362"/>
<text text-anchor="middle" x="451" y="-432.8" font-family="Helvetica,sans-Serif" font-weight="bold" font-size="9.00">hooks</text>
</g>
<g id="clust10" class="cluster">
<title>cluster_src/client/styles</title>
<path fill="#ffffff" stroke="black" stroke-width="2" d="M129,-298C129,-298 186,-298 186,-298 192,-298 198,-304 198,-310 198,-310 198,-338 198,-338 198,-344 192,-350 186,-350 186,-350 129,-350 129,-350 123,-350 117,-344 117,-338 117,-338 117,-310 117,-310 117,-304 123,-298 129,-298"/>
<text text-anchor="middle" x="157.5" y="-338.8" font-family="Helvetica,sans-Serif" font-weight="bold" font-size="9.00">styles</text>
</g>
<g id="clust11" class="cluster">
<title>cluster_src/lib</title>
<path fill="#ffffff" stroke="black" stroke-width="2" d="M523.5,-560C523.5,-560 569.5,-560 569.5,-560 575.5,-560 581.5,-566 581.5,-572 581.5,-572 581.5,-660 581.5,-660 581.5,-666 575.5,-672 569.5,-672 569.5,-672 523.5,-672 523.5,-672 517.5,-672 511.5,-666 511.5,-660 511.5,-660 511.5,-572 511.5,-572 511.5,-566 517.5,-560 523.5,-560"/>
<text text-anchor="middle" x="546.5" y="-660.8" font-family="Helvetica,sans-Serif" font-weight="bold" font-size="9.00">lib</text>
</g>
<g id="clust12" class="cluster">
<title>cluster_src/server</title>
<path fill="#ffffff" stroke="black" stroke-width="2" d="M515.5,-164C515.5,-164 731.5,-164 731.5,-164 737.5,-164 743.5,-170 743.5,-176 743.5,-176 743.5,-270 743.5,-270 743.5,-276 737.5,-282 731.5,-282 731.5,-282 515.5,-282 515.5,-282 509.5,-282 503.5,-276 503.5,-270 503.5,-270 503.5,-176 503.5,-176 503.5,-170 509.5,-164 515.5,-164"/>
<text text-anchor="middle" x="623.5" y="-270.8" font-family="Helvetica,sans-Serif" font-weight="bold" font-size="9.00">server</text>
</g>
<g id="clust13" class="cluster">
<title>cluster_src/server/actions</title>
<path fill="#ffffff" stroke="black" stroke-width="2" d="M523.5,-178C523.5,-178 569.5,-178 569.5,-178 575.5,-178 581.5,-184 581.5,-190 581.5,-190 581.5,-218 581.5,-218 581.5,-224 575.5,-230 569.5,-230 569.5,-230 523.5,-230 523.5,-230 517.5,-230 511.5,-224 511.5,-218 511.5,-218 511.5,-190 511.5,-190 511.5,-184 517.5,-178 523.5,-178"/>
<text text-anchor="middle" x="546.5" y="-218.8" font-family="Helvetica,sans-Serif" font-weight="bold" font-size="9.00">actions</text>
</g>
<g id="clust14" class="cluster">
<title>cluster_src/server/db</title>
<path fill="#ffffff" stroke="black" stroke-width="2" d="M601.5,-178C601.5,-178 723.5,-178 723.5,-178 729.5,-178 735.5,-184 735.5,-190 735.5,-190 735.5,-218 735.5,-218 735.5,-224 729.5,-230 723.5,-230 723.5,-230 601.5,-230 601.5,-230 595.5,-230 589.5,-224 589.5,-218 589.5,-218 589.5,-190 589.5,-190 589.5,-184 595.5,-178 601.5,-178"/>
<text text-anchor="middle" x="662.5" y="-218.8" font-family="Helvetica,sans-Serif" font-weight="bold" font-size="9.00">db</text>
</g>
<!-- assert -->
<g id="node1" class="node">
<title>assert</title>
<g id="a_node1"><a xlink:href="https://nodejs.org/api/assert.html" xlink:title="assert">
<path fill="#ffffcc" stroke="grey" d="M271.5,-94C271.5,-94 229.5,-94 229.5,-94 226.5,-94 223.5,-91 223.5,-88 223.5,-88 223.5,-82 223.5,-82 223.5,-79 226.5,-76 229.5,-76 229.5,-76 271.5,-76 271.5,-76 274.5,-76 277.5,-79 277.5,-82 277.5,-82 277.5,-88 277.5,-88 277.5,-91 274.5,-94 271.5,-94"/>
<text text-anchor="middle" x="250.5" y="-82.8" font-family="Helvetica,sans-Serif" font-size="9.00" fill="grey">assert</text>
</a>
</g>
</g>
<!-- geist/font/sans -->
<g id="node2" class="node">
<title>geist/font/sans</title>
<g id="a_node2"><a xlink:title="sans">
<path fill="#ffffcc" stroke="black" d="M178.5,-42C178.5,-42 136.5,-42 136.5,-42 133.5,-42 130.5,-39 130.5,-36 130.5,-36 130.5,-30 130.5,-30 130.5,-27 133.5,-24 136.5,-24 136.5,-24 178.5,-24 178.5,-24 181.5,-24 184.5,-27 184.5,-30 184.5,-30 184.5,-36 184.5,-36 184.5,-39 181.5,-42 178.5,-42"/>
<text text-anchor="start" x="147" y="-30.8" font-family="Helvetica,sans-Serif" font-size="9.00">sans</text>
</a>
</g>
</g>
<!-- src/app/layout.tsx -->
<g id="node3" class="node">
<title>src/app/layout.tsx</title>
<g id="a_node3"><a xlink:href="src/app/layout.tsx" xlink:title="layout.tsx">
<path fill="#bbfeff" stroke="black" d="M87,-136C87,-136 38,-136 38,-136 35,-136 32,-133 32,-130 32,-130 32,-124 32,-124 32,-121 35,-118 38,-118 38,-118 87,-118 87,-118 90,-118 93,-121 93,-124 93,-124 93,-130 93,-130 93,-133 90,-136 87,-136"/>
<text text-anchor="start" x="40" y="-124.8" font-family="Helvetica,sans-Serif" font-size="9.00">layout.tsx</text>
</a>
</g>
</g>
<!-- src/app/layout.tsx&#45;&gt;geist/font/sans -->
<g id="edge3" class="edge">
<title>src/app/layout.tsx&#45;&gt;geist/font/sans</title>
<g id="a_edge3"><a xlink:title="not&#45;to&#45;unresolvable">
<path fill="none" stroke="red" stroke-width="2" d="M72.42,-117.99C88.76,-101.47 123.61,-66.24 142.92,-46.73"/>
<polygon fill="red" stroke="red" stroke-width="2" points="144.75,-47.87 147.47,-42.12 141.76,-44.91 144.75,-47.87"/>
</a>
</g>
<text text-anchor="middle" x="65.96" y="-72.84" font-family="Helvetica,sans-Serif" font-size="9.00" fill="red">not&#45;to&#45;unresolvable</text>
</g>
<!-- src/app/manifest.ts -->
<g id="node4" class="node">
<title>src/app/manifest.ts</title>
<g id="a_node4"><a xlink:href="src/app/manifest.ts" xlink:title="manifest.ts">
<path fill="#ddfeff" stroke="black" d="M185,-136C185,-136 130,-136 130,-136 127,-136 124,-133 124,-130 124,-130 124,-124 124,-124 124,-121 127,-118 130,-118 130,-118 185,-118 185,-118 188,-118 191,-121 191,-124 191,-124 191,-130 191,-130 191,-133 188,-136 185,-136"/>
<text text-anchor="start" x="132" y="-124.8" font-family="Helvetica,sans-Serif" font-size="9.00">manifest.ts</text>
</a>
</g>
</g>
<!-- src/app/layout.tsx&#45;&gt;src/app/manifest.ts -->
<g id="edge1" class="edge">
<title>src/app/layout.tsx&#45;&gt;src/app/manifest.ts</title>
<path fill="none" stroke="#000000" stroke-width="2" stroke-opacity="0.200000" d="M93.18,-127C100.98,-127 109.5,-127 117.69,-127"/>
<polygon fill="#000000" fill-opacity="0.200000" stroke="#000000" stroke-width="2" stroke-opacity="0.200000" points="117.88,-129.1 123.88,-127 117.88,-124.9 117.88,-129.1"/>
</g>
<!-- src/client/styles/globals.css -->
<g id="node5" class="node">
<title>src/client/styles/globals.css</title>
<g id="a_node5"><a xlink:href="src/client/styles/globals.css" xlink:title="globals.css">
<path fill="#ffffcc" stroke="black" d="M184,-324C184,-324 131,-324 131,-324 128,-324 125,-321 125,-318 125,-318 125,-312 125,-312 125,-309 128,-306 131,-306 131,-306 184,-306 184,-306 187,-306 190,-309 190,-312 190,-312 190,-318 190,-318 190,-321 187,-324 184,-324"/>
<text text-anchor="start" x="133" y="-312.8" font-family="Helvetica,sans-Serif" font-size="9.00">globals.css</text>
</a>
</g>
</g>
<!-- src/app/layout.tsx&#45;&gt;src/client/styles/globals.css -->
<g id="edge2" class="edge">
<title>src/app/layout.tsx&#45;&gt;src/client/styles/globals.css</title>
<path fill="none" stroke="#000000" stroke-width="2" stroke-opacity="0.200000" d="M93.29,-134.98C96.28,-136.85 98.95,-139.15 101,-142 119.57,-167.85 92.86,-257.57 109,-285 113.33,-292.37 120.27,-298.21 127.52,-302.7"/>
<polygon fill="#000000" fill-opacity="0.200000" stroke="#000000" stroke-width="2" stroke-opacity="0.200000" points="126.83,-304.73 133.08,-305.88 128.91,-301.08 126.83,-304.73"/>
</g>
<!-- src/app/page.tsx -->
<g id="node6" class="node">
<title>src/app/page.tsx</title>
<g id="a_node6"><a xlink:href="src/app/page.tsx" xlink:title="page.tsx">
<path fill="#bbfeff" stroke="black" d="M84.5,-166C84.5,-166 40.5,-166 40.5,-166 37.5,-166 34.5,-163 34.5,-160 34.5,-160 34.5,-154 34.5,-154 34.5,-151 37.5,-148 40.5,-148 40.5,-148 84.5,-148 84.5,-148 87.5,-148 90.5,-151 90.5,-154 90.5,-154 90.5,-160 90.5,-160 90.5,-163 87.5,-166 84.5,-166"/>
<text text-anchor="start" x="42.5" y="-154.8" font-family="Helvetica,sans-Serif" font-size="9.00">page.tsx</text>
</a>
</g>
</g>
<!-- src/client/components/router.tsx -->
<g id="node7" class="node">
<title>src/client/components/router.tsx</title>
<g id="a_node7"><a xlink:href="src/client/components/router.tsx" xlink:title="router.tsx">
<path fill="#bbfeff" stroke="black" d="M181.5,-384C181.5,-384 133.5,-384 133.5,-384 130.5,-384 127.5,-381 127.5,-378 127.5,-378 127.5,-372 127.5,-372 127.5,-369 130.5,-366 133.5,-366 133.5,-366 181.5,-366 181.5,-366 184.5,-366 187.5,-369 187.5,-372 187.5,-372 187.5,-378 187.5,-378 187.5,-381 184.5,-384 181.5,-384"/>
<text text-anchor="start" x="135.5" y="-372.8" font-family="Helvetica,sans-Serif" font-size="9.00">router.tsx</text>
</a>
</g>
</g>
<!-- src/app/page.tsx&#45;&gt;src/client/components/router.tsx -->
<g id="edge4" class="edge">
<title>src/app/page.tsx&#45;&gt;src/client/components/router.tsx</title>
<path fill="none" stroke="#000000" stroke-width="2" stroke-opacity="0.200000" d="M90.73,-162.74C94.73,-164.73 98.38,-167.4 101,-171 112.9,-187.37 97.73,-336.19 109,-353 112.2,-357.77 116.71,-361.52 121.69,-364.47"/>
<polygon fill="#000000" fill-opacity="0.200000" stroke="#000000" stroke-width="2" stroke-opacity="0.200000" points="120.95,-366.45 127.24,-367.37 122.89,-362.73 120.95,-366.45"/>
</g>
<!-- src/client/db.ts -->
<g id="node8" class="node">
<title>src/client/db.ts</title>
<g id="a_node8"><a xlink:href="src/client/db.ts" xlink:title="db.ts">
<path fill="#ddfeff" stroke="black" d="M567.5,-425C567.5,-425 525.5,-425 525.5,-425 522.5,-425 519.5,-422 519.5,-419 519.5,-419 519.5,-413 519.5,-413 519.5,-410 522.5,-407 525.5,-407 525.5,-407 567.5,-407 567.5,-407 570.5,-407 573.5,-410 573.5,-413 573.5,-413 573.5,-419 573.5,-419 573.5,-422 570.5,-425 567.5,-425"/>
<text text-anchor="start" x="534.5" y="-413.8" font-family="Helvetica,sans-Serif" font-size="9.00">db.ts</text>
</a>
</g>
</g>
<!-- src/app/page.tsx&#45;&gt;src/client/db.ts -->
<g id="edge5" class="edge">
<title>src/app/page.tsx&#45;&gt;src/client/db.ts</title>
<path fill="none" stroke="#000000" stroke-width="2" stroke-opacity="0.200000" d="M90.79,-162.7C94.79,-164.69 98.42,-167.37 101,-171 112.53,-187.22 94.78,-515.09 109,-529 155,-573.98 337.28,-548.78 398.5,-529 457.37,-509.98 510.7,-455.83 533.63,-430.02"/>
<polygon fill="#000000" fill-opacity="0.200000" stroke="#000000" stroke-width="2" stroke-opacity="0.200000" points="535.43,-431.15 537.8,-425.25 532.27,-428.38 535.43,-431.15"/>
</g>
<!-- src/lib/error.ts -->
<g id="node9" class="node">
<title>src/lib/error.ts</title>
<g id="a_node9"><a xlink:href="src/lib/error.ts" xlink:title="error.ts">
<path fill="#ddfeff" stroke="black" d="M567.5,-646C567.5,-646 525.5,-646 525.5,-646 522.5,-646 519.5,-643 519.5,-640 519.5,-640 519.5,-634 519.5,-634 519.5,-631 522.5,-628 525.5,-628 525.5,-628 567.5,-628 567.5,-628 570.5,-628 573.5,-631 573.5,-634 573.5,-634 573.5,-640 573.5,-640 573.5,-643 570.5,-646 567.5,-646"/>
<text text-anchor="start" x="530" y="-634.8" font-family="Helvetica,sans-Serif" font-size="9.00">error.ts</text>
</a>
</g>
</g>
<!-- src/app/page.tsx&#45;&gt;src/lib/error.ts -->
<g id="edge6" class="edge">
<title>src/app/page.tsx&#45;&gt;src/lib/error.ts</title>
<path fill="none" stroke="#000000" stroke-width="2" stroke-opacity="0.200000" d="M90.8,-162.69C94.8,-164.68 98.43,-167.37 101,-171 113.35,-188.4 95.21,-538.72 109,-555 135.4,-586.16 417.03,-621.9 513.38,-633.3"/>
<polygon fill="#000000" fill-opacity="0.200000" stroke="#000000" stroke-width="2" stroke-opacity="0.200000" points="513.25,-635.4 519.46,-634.02 513.74,-631.23 513.25,-635.4"/>
</g>
<!-- src/client/components/router.tsx&#45;&gt;assert -->
<g id="edge20" class="edge">
<title>src/client/components/router.tsx&#45;&gt;assert</title>
<path fill="none" stroke="#000000" stroke-dasharray="5,2" stroke-opacity="0.200000" d="M185.45,-365.79C191.25,-362.6 196.76,-358.42 200.5,-353 208.9,-340.84 206.14,-301.58 208.5,-287 219.86,-216.79 238.29,-133.84 245.97,-100.25"/>
<polygon fill="#000000" fill-opacity="0.200000" stroke="#000000" stroke-opacity="0.200000" points="248.06,-100.53 247.36,-94.21 243.97,-99.59 248.06,-100.53"/>
</g>
<!-- src/client/components/router.tsx&#45;&gt;src/client/db.ts -->
<g id="edge18" class="edge">
<title>src/client/components/router.tsx&#45;&gt;src/client/db.ts</title>
<path fill="none" stroke="#000000" stroke-width="2" stroke-opacity="0.200000" d="M184.02,-365.84C190.14,-362.6 196.16,-358.38 200.5,-353 208.89,-342.59 197.9,-332.15 208.5,-324 309.59,-246.2 386.75,-260.32 495.5,-327 522.47,-343.54 536.14,-380.3 541.95,-401.03"/>
<polygon fill="#000000" fill-opacity="0.200000" stroke="#000000" stroke-width="2" stroke-opacity="0.200000" points="539.94,-401.64 543.5,-406.91 544,-400.57 539.94,-401.64"/>
</g>
<!-- src/client/components/router.tsx&#45;&gt;src/lib/error.ts -->
<g id="edge19" class="edge">
<title>src/client/components/router.tsx&#45;&gt;src/lib/error.ts</title>
<path fill="none" stroke="#000000" stroke-width="2" stroke-opacity="0.200000" d="M162.01,-384.12C168.89,-401.14 185.54,-438.28 208.5,-463 309.87,-572.13 365.92,-564.94 503.5,-622 506.63,-623.3 509.92,-624.59 513.21,-625.84"/>
<polygon fill="#000000" fill-opacity="0.200000" stroke="#000000" stroke-width="2" stroke-opacity="0.200000" points="512.78,-627.92 519.13,-628.04 514.24,-623.98 512.78,-627.92"/>
</g>
<!-- src/client/hooks/useUserId.ts -->
<g id="node12" class="node">
<title>src/client/hooks/useUserId.ts</title>
<g id="a_node12"><a xlink:href="src/client/hooks/useUserId.ts" xlink:title="useUserId.ts">
<path fill="#ddfeff" stroke="black" d="M481.5,-418C481.5,-418 420.5,-418 420.5,-418 417.5,-418 414.5,-415 414.5,-412 414.5,-412 414.5,-406 414.5,-406 414.5,-403 417.5,-400 420.5,-400 420.5,-400 481.5,-400 481.5,-400 484.5,-400 487.5,-403 487.5,-406 487.5,-406 487.5,-412 487.5,-412 487.5,-415 484.5,-418 481.5,-418"/>
<text text-anchor="start" x="422.5" y="-406.8" font-family="Helvetica,sans-Serif" font-size="9.00">useUserId.ts</text>
</a>
</g>
</g>
<!-- src/client/components/router.tsx&#45;&gt;src/client/hooks/useUserId.ts -->
<g id="edge15" class="edge">
<title>src/client/components/router.tsx&#45;&gt;src/client/hooks/useUserId.ts</title>
<path fill="none" stroke="#000000" stroke-width="2" stroke-opacity="0.200000" d="M183.36,-365.99C191.28,-363.54 200.16,-361.22 208.5,-360 250.27,-353.87 365.4,-333.79 398.5,-360 410.67,-369.64 396.09,-382.48 406.5,-394 407.34,-394.93 408.25,-395.81 409.2,-396.63"/>
<polygon fill="#000000" fill-opacity="0.200000" stroke="#000000" stroke-width="2" stroke-opacity="0.200000" points="408.24,-398.52 414.34,-400.3 410.68,-395.1 408.24,-398.52"/>
</g>
<!-- src/client/components/home&#45;page.tsx -->
<g id="node14" class="node">
<title>src/client/components/home&#45;page.tsx</title>
<g id="a_node14"><a xlink:href="src/client/components/home-page.tsx" xlink:title="home&#45;page.tsx">
<path fill="#bbfeff" stroke="black" d="M286.5,-384C286.5,-384 214.5,-384 214.5,-384 211.5,-384 208.5,-381 208.5,-378 208.5,-378 208.5,-372 208.5,-372 208.5,-369 211.5,-366 214.5,-366 214.5,-366 286.5,-366 286.5,-366 289.5,-366 292.5,-369 292.5,-372 292.5,-372 292.5,-378 292.5,-378 292.5,-381 289.5,-384 286.5,-384"/>
<text text-anchor="start" x="216.5" y="-372.8" font-family="Helvetica,sans-Serif" font-size="9.00">home&#45;page.tsx</text>
</a>
</g>
</g>
<!-- src/client/components/router.tsx&#45;&gt;src/client/components/home&#45;page.tsx -->
<g id="edge16" class="edge">
<title>src/client/components/router.tsx&#45;&gt;src/client/components/home&#45;page.tsx</title>
<path fill="none" stroke="#000000" stroke-width="2" stroke-opacity="0.200000" d="M187.54,-375C192.22,-375 197.17,-375 202.15,-375"/>
<polygon fill="#000000" fill-opacity="0.200000" stroke="#000000" stroke-width="2" stroke-opacity="0.200000" points="202.46,-377.1 208.46,-375 202.46,-372.9 202.46,-377.1"/>
</g>
<!-- src/client/hooks/sync.ts -->
<g id="node17" class="node">
<title>src/client/hooks/sync.ts</title>
<g id="a_node17"><a xlink:href="src/client/hooks/sync.ts" xlink:title="sync.ts">
<path fill="#ddfeff" stroke="black" d="M472,-388C472,-388 430,-388 430,-388 427,-388 424,-385 424,-382 424,-382 424,-376 424,-376 424,-373 427,-370 430,-370 430,-370 472,-370 472,-370 475,-370 478,-373 478,-376 478,-376 478,-382 478,-382 478,-385 475,-388 472,-388"/>
<text text-anchor="start" x="434.5" y="-376.8" font-family="Helvetica,sans-Serif" font-size="9.00">sync.ts</text>
</a>
</g>
</g>
<!-- src/client/components/router.tsx&#45;&gt;src/client/hooks/sync.ts -->
<g id="edge14" class="edge">
<title>src/client/components/router.tsx&#45;&gt;src/client/hooks/sync.ts</title>
<path fill="none" stroke="#000000" stroke-width="2" stroke-opacity="0.200000" d="M182.62,-365.84C189.03,-362.53 195.55,-358.28 200.5,-353 206.49,-346.61 201.16,-339.77 208.5,-335 226.2,-323.5 381.81,-322.07 398.5,-335 409.75,-343.71 396.63,-355.75 406.5,-366 409.66,-369.28 413.6,-371.74 417.82,-373.59"/>
<polygon fill="#000000" fill-opacity="0.200000" stroke="#000000" stroke-width="2" stroke-opacity="0.200000" points="417.34,-375.65 423.7,-375.74 418.79,-371.7 417.34,-375.65"/>
</g>
<!-- src/client/components/timer&#45;page.tsx -->
<g id="node18" class="node">
<title>src/client/components/timer&#45;page.tsx</title>
<g id="a_node18"><a xlink:href="src/client/components/timer-page.tsx" xlink:title="timer&#45;page.tsx">
<path fill="#bbfeff" stroke="black" d="M285.5,-457C285.5,-457 215.5,-457 215.5,-457 212.5,-457 209.5,-454 209.5,-451 209.5,-451 209.5,-445 209.5,-445 209.5,-442 212.5,-439 215.5,-439 215.5,-439 285.5,-439 285.5,-439 288.5,-439 291.5,-442 291.5,-445 291.5,-445 291.5,-451 291.5,-451 291.5,-454 288.5,-457 285.5,-457"/>
<text text-anchor="start" x="217.5" y="-445.8" font-family="Helvetica,sans-Serif" font-size="9.00">timer&#45;page.tsx</text>
</a>
</g>
</g>
<!-- src/client/components/router.tsx&#45;&gt;src/client/components/timer&#45;page.tsx -->
<g id="edge17" class="edge">
<title>src/client/components/router.tsx&#45;&gt;src/client/components/timer&#45;page.tsx</title>
<path fill="none" stroke="#000000" stroke-width="2" stroke-opacity="0.200000" d="M187.54,-381.52C192.09,-383.23 196.58,-385.35 200.5,-388 218.06,-399.84 232.56,-419.82 241.12,-433.45"/>
<polygon fill="#000000" fill-opacity="0.200000" stroke="#000000" stroke-width="2" stroke-opacity="0.200000" points="239.5,-434.82 244.42,-438.85 243.09,-432.64 239.5,-434.82"/>
</g>
<!-- src/app/timer/layout.tsx -->
<g id="node10" class="node">
<title>src/app/timer/layout.tsx</title>
<g id="a_node10"><a xlink:href="src/app/timer/layout.tsx" xlink:title="no&#45;orphans">
<path fill="#ccffcc" stroke="orange" d="M87,-230C87,-230 38,-230 38,-230 35,-230 32,-227 32,-224 32,-224 32,-218 32,-218 32,-215 35,-212 38,-212 38,-212 87,-212 87,-212 90,-212 93,-215 93,-218 93,-218 93,-224 93,-224 93,-227 90,-230 87,-230"/>
<text text-anchor="start" x="40" y="-218.8" font-family="Helvetica,sans-Serif" font-size="9.00" fill="orange">layout.tsx</text>
</a>
</g>
</g>
<!-- src/app/timer/page.tsx -->
<g id="node11" class="node">
<title>src/app/timer/page.tsx</title>
<g id="a_node11"><a xlink:href="src/app/timer/page.tsx" xlink:title="page.tsx">
<path fill="#bbfeff" stroke="black" d="M84.5,-200C84.5,-200 40.5,-200 40.5,-200 37.5,-200 34.5,-197 34.5,-194 34.5,-194 34.5,-188 34.5,-188 34.5,-185 37.5,-182 40.5,-182 40.5,-182 84.5,-182 84.5,-182 87.5,-182 90.5,-185 90.5,-188 90.5,-188 90.5,-194 90.5,-194 90.5,-197 87.5,-200 84.5,-200"/>
<text text-anchor="start" x="42.5" y="-188.8" font-family="Helvetica,sans-Serif" font-size="9.00">page.tsx</text>
</a>
</g>
</g>
<!-- src/app/timer/page.tsx&#45;&gt;src/client/components/router.tsx -->
<g id="edge7" class="edge">
<title>src/app/timer/page.tsx&#45;&gt;src/client/components/router.tsx</title>
<path fill="none" stroke="#000000" stroke-width="2" stroke-opacity="0.200000" d="M90.73,-197.5C94.73,-199.59 98.38,-202.35 101,-206 120.07,-232.58 90.64,-325.92 109,-353 112.22,-357.75 116.74,-361.5 121.73,-364.44"/>
<polygon fill="#000000" fill-opacity="0.200000" stroke="#000000" stroke-width="2" stroke-opacity="0.200000" points="120.99,-366.43 127.28,-367.34 122.93,-362.7 120.99,-366.43"/>
</g>
<!-- src/app/timer/page.tsx&#45;&gt;src/client/db.ts -->
<g id="edge8" class="edge">
<title>src/app/timer/page.tsx&#45;&gt;src/client/db.ts</title>
<path fill="none" stroke="#000000" stroke-width="2" stroke-opacity="0.200000" d="M90.83,-197.43C94.82,-199.53 98.45,-202.31 101,-206 113.24,-223.68 93.64,-577.95 109,-593 171,-653.73 430.49,-594.49 495.5,-537 527.39,-508.8 539.38,-457.11 543.52,-431.39"/>
<polygon fill="#000000" fill-opacity="0.200000" stroke="#000000" stroke-width="2" stroke-opacity="0.200000" points="545.64,-431.39 544.45,-425.15 541.49,-430.77 545.64,-431.39"/>
</g>
<!-- src/app/timer/page.tsx&#45;&gt;src/lib/error.ts -->
<g id="edge10" class="edge">
<title>src/app/timer/page.tsx&#45;&gt;src/lib/error.ts</title>
<path fill="none" stroke="#000000" stroke-width="2" stroke-opacity="0.200000" d="M90.83,-197.43C94.83,-199.53 98.45,-202.31 101,-206 113.74,-224.42 94.86,-591.63 109,-609 149.44,-658.66 185.46,-641 249.5,-641 249.5,-641 249.5,-641 349,-641 406.74,-641 474,-639.25 512.97,-638.07"/>
<polygon fill="#000000" fill-opacity="0.200000" stroke="#000000" stroke-width="2" stroke-opacity="0.200000" points="513.51,-640.15 519.44,-637.87 513.38,-635.95 513.51,-640.15"/>
</g>
<!-- src/app/timer/page.tsx&#45;&gt;src/client/hooks/useUserId.ts -->
<g id="edge9" class="edge">
<title>src/app/timer/page.tsx&#45;&gt;src/client/hooks/useUserId.ts</title>
<path fill="none" stroke="#000000" stroke-width="2" stroke-opacity="0.200000" d="M90.82,-197.43C94.82,-199.53 98.44,-202.31 101,-206 112.06,-221.93 95.13,-541.44 109,-555 150.69,-595.74 333.83,-577.96 398.5,-529 432.66,-503.14 444.45,-450.06 448.28,-424.05"/>
<polygon fill="#000000" fill-opacity="0.200000" stroke="#000000" stroke-width="2" stroke-opacity="0.200000" points="450.37,-424.28 449.09,-418.05 446.21,-423.71 450.37,-424.28"/>
</g>
<!-- src/lib/time.ts -->
<g id="node13" class="node">
<title>src/lib/time.ts</title>
<g id="a_node13"><a xlink:href="src/lib/time.ts" xlink:title="time.ts">
<path fill="#ddfeff" stroke="black" d="M567.5,-616C567.5,-616 525.5,-616 525.5,-616 522.5,-616 519.5,-613 519.5,-610 519.5,-610 519.5,-604 519.5,-604 519.5,-601 522.5,-598 525.5,-598 525.5,-598 567.5,-598 567.5,-598 570.5,-598 573.5,-601 573.5,-604 573.5,-604 573.5,-610 573.5,-610 573.5,-613 570.5,-616 567.5,-616"/>
<text text-anchor="start" x="530.5" y="-604.8" font-family="Helvetica,sans-Serif" font-size="9.00">time.ts</text>
</a>
</g>
</g>
<!-- src/app/timer/page.tsx&#45;&gt;src/lib/time.ts -->
<g id="edge11" class="edge">
<title>src/app/timer/page.tsx&#45;&gt;src/lib/time.ts</title>
<path fill="none" stroke="#000000" stroke-width="2" stroke-opacity="0.200000" d="M90.83,-197.43C94.82,-199.53 98.44,-202.31 101,-206 112.52,-222.62 95.15,-555.26 109,-570 136.54,-599.33 416.78,-605.45 513.16,-606.69"/>
<polygon fill="#000000" fill-opacity="0.200000" stroke="#000000" stroke-width="2" stroke-opacity="0.200000" points="513.21,-608.79 519.23,-606.77 513.26,-604.59 513.21,-608.79"/>
</g>
<!-- src/client/components/timer&#45;form.tsx -->
<g id="node15" class="node">
<title>src/client/components/timer&#45;form.tsx</title>
<g id="a_node15"><a xlink:href="src/client/components/timer-form.tsx" xlink:title="timer&#45;form.tsx">
<path fill="#bbfeff" stroke="black" d="M382,-384C382,-384 314,-384 314,-384 311,-384 308,-381 308,-378 308,-378 308,-372 308,-372 308,-369 311,-366 314,-366 314,-366 382,-366 382,-366 385,-366 388,-369 388,-372 388,-372 388,-378 388,-378 388,-381 385,-384 382,-384"/>
<text text-anchor="start" x="316" y="-372.8" font-family="Helvetica,sans-Serif" font-size="9.00">timer&#45;form.tsx</text>
</a>
</g>
</g>
<!-- src/client/components/home&#45;page.tsx&#45;&gt;src/client/components/timer&#45;form.tsx -->
<g id="edge12" class="edge">
<title>src/client/components/home&#45;page.tsx&#45;&gt;src/client/components/timer&#45;form.tsx</title>
<path fill="none" stroke="#000000" stroke-width="2" stroke-opacity="0.200000" d="M292.55,-375C295.56,-375 298.59,-375 301.62,-375"/>
<polygon fill="#000000" fill-opacity="0.200000" stroke="#000000" stroke-width="2" stroke-opacity="0.200000" points="301.79,-377.1 307.79,-375 301.79,-372.9 301.79,-377.1"/>
</g>
<!-- src/client/components/ui/link.tsx -->
<g id="node16" class="node">
<title>src/client/components/ui/link.tsx</title>
<g id="a_node16"><a xlink:href="src/client/components/ui/link.tsx" xlink:title="link.tsx">
<path fill="#bbfeff" stroke="black" d="M369,-448C369,-448 327,-448 327,-448 324,-448 321,-445 321,-442 321,-442 321,-436 321,-436 321,-433 324,-430 327,-430 327,-430 369,-430 369,-430 372,-430 375,-433 375,-436 375,-436 375,-442 375,-442 375,-445 372,-448 369,-448"/>
<text text-anchor="start" x="331.5" y="-436.8" font-family="Helvetica,sans-Serif" font-size="9.00">link.tsx</text>
</a>
</g>
</g>
<!-- src/client/components/home&#45;page.tsx&#45;&gt;src/client/components/ui/link.tsx -->
<g id="edge13" class="edge">
<title>src/client/components/home&#45;page.tsx&#45;&gt;src/client/components/ui/link.tsx</title>
<path fill="none" stroke="#000000" stroke-width="2" stroke-opacity="0.200000" d="M259.45,-384.12C269.3,-394.93 287.06,-412.9 305.5,-424 308.45,-425.78 311.65,-427.39 314.92,-428.85"/>
<polygon fill="#000000" fill-opacity="0.200000" stroke="#000000" stroke-width="2" stroke-opacity="0.200000" points="314.48,-430.94 320.83,-431.3 316.09,-427.06 314.48,-430.94"/>
</g>
<!-- src/client/components/timer&#45;form.tsx&#45;&gt;src/client/db.ts -->
<g id="edge21" class="edge">
<title>src/client/components/timer&#45;form.tsx&#45;&gt;src/client/db.ts</title>
<path fill="none" stroke="#000000" stroke-width="2" stroke-opacity="0.200000" d="M388.36,-381.3C392.19,-383.25 395.69,-385.77 398.5,-389 415.58,-408.63 386.88,-429.9 406.5,-447 436.32,-472.99 457.46,-457.84 495.5,-447 508.1,-443.41 520.62,-435.64 529.98,-428.77"/>
<polygon fill="#000000" fill-opacity="0.200000" stroke="#000000" stroke-width="2" stroke-opacity="0.200000" points="531.33,-430.39 534.84,-425.09 528.79,-427.04 531.33,-430.39"/>
</g>
<!-- src/client/components/timer&#45;form.tsx&#45;&gt;src/lib/error.ts -->
<g id="edge23" class="edge">
<title>src/client/components/timer&#45;form.tsx&#45;&gt;src/lib/error.ts</title>
<path fill="none" stroke="#000000" stroke-width="2" stroke-opacity="0.200000" d="M388.11,-380.86C392.09,-382.88 395.69,-385.53 398.5,-389 415.46,-409.94 396.03,-485.17 406.5,-510 429.49,-564.52 460.07,-561.61 495.5,-609 499.56,-614.43 498.23,-617.73 503.5,-622 506.5,-624.43 509.93,-626.48 513.5,-628.22"/>
<polygon fill="#000000" fill-opacity="0.200000" stroke="#000000" stroke-width="2" stroke-opacity="0.200000" points="512.85,-630.22 519.19,-630.68 514.51,-626.37 512.85,-630.22"/>
</g>
<!-- src/client/components/timer&#45;form.tsx&#45;&gt;src/client/hooks/useUserId.ts -->
<g id="edge22" class="edge">
<title>src/client/components/timer&#45;form.tsx&#45;&gt;src/client/hooks/useUserId.ts</title>
<path fill="none" stroke="#000000" stroke-width="2" stroke-opacity="0.200000" d="M385.38,-384C389.87,-385.49 394.34,-387.15 398.5,-389 402.33,-390.7 402.72,-392.19 406.5,-394 409.15,-395.27 411.94,-396.48 414.78,-397.63"/>
<polygon fill="#000000" fill-opacity="0.200000" stroke="#000000" stroke-width="2" stroke-opacity="0.200000" points="414.27,-399.68 420.62,-399.89 415.78,-395.76 414.27,-399.68"/>
</g>
<!-- src/client/components/timer&#45;form.tsx&#45;&gt;src/lib/time.ts -->
<g id="edge24" class="edge">
<title>src/client/components/timer&#45;form.tsx&#45;&gt;src/lib/time.ts</title>
<path fill="none" stroke="#000000" stroke-width="2" stroke-opacity="0.200000" d="M388.09,-380.89C392.07,-382.9 395.68,-385.54 398.5,-389 413.72,-407.64 390.49,-479.03 406.5,-497 433.3,-527.06 468.28,-484.32 495.5,-514 507.28,-526.84 492.75,-578.29 503.5,-592 506.13,-595.36 509.58,-597.96 513.36,-599.99"/>
<polygon fill="#000000" fill-opacity="0.200000" stroke="#000000" stroke-width="2" stroke-opacity="0.200000" points="512.76,-602.02 519.1,-602.56 514.48,-598.19 512.76,-602.02"/>
</g>
<!-- src/client/hooks/sync.ts&#45;&gt;src/client/db.ts -->
<g id="edge29" class="edge">
<title>src/client/hooks/sync.ts&#45;&gt;src/client/db.ts</title>
<path fill="none" stroke="#000000" stroke-width="2" stroke-opacity="0.200000" d="M478.35,-387.7C484.04,-389.68 490,-391.84 495.5,-394 503.52,-397.14 512.15,-400.82 519.94,-404.27"/>
<polygon fill="#000000" fill-opacity="0.200000" stroke="#000000" stroke-width="2" stroke-opacity="0.200000" points="519.37,-406.32 525.71,-406.84 521.08,-402.48 519.37,-406.32"/>
</g>
<!-- src/client/hooks/sync.ts&#45;&gt;src/lib/error.ts -->
<g id="edge30" class="edge">
<title>src/client/hooks/sync.ts&#45;&gt;src/lib/error.ts</title>
<path fill="none" stroke="#000000" stroke-width="2" stroke-opacity="0.200000" d="M478.21,-382.6C484.87,-384.81 491.32,-388.35 495.5,-394 510.58,-414.38 488.54,-601.54 503.5,-622 506.14,-625.61 509.73,-628.35 513.7,-630.44"/>
<polygon fill="#000000" fill-opacity="0.200000" stroke="#000000" stroke-width="2" stroke-opacity="0.200000" points="512.96,-632.41 519.3,-632.89 514.65,-628.56 512.96,-632.41"/>
</g>
<!-- src/client/hooks/sync.ts&#45;&gt;src/lib/time.ts -->
<g id="edge31" class="edge">
<title>src/client/hooks/sync.ts&#45;&gt;src/lib/time.ts</title>
<path fill="none" stroke="#000000" stroke-width="2" stroke-opacity="0.200000" d="M478.19,-382.61C484.85,-384.82 491.3,-388.36 495.5,-394 508.64,-411.67 490.46,-574.26 503.5,-592 506.15,-595.6 509.74,-598.34 513.71,-600.43"/>
<polygon fill="#000000" fill-opacity="0.200000" stroke="#000000" stroke-width="2" stroke-opacity="0.200000" points="512.98,-602.4 519.32,-602.88 514.66,-598.55 512.98,-602.4"/>
</g>
<!-- src/server/actions/index.ts -->
<g id="node22" class="node">
<title>src/server/actions/index.ts</title>
<g id="a_node22"><a xlink:href="src/server/actions/index.ts" xlink:title="index.ts">
<path fill="#ddfeff" stroke="black" d="M567.5,-204C567.5,-204 525.5,-204 525.5,-204 522.5,-204 519.5,-201 519.5,-198 519.5,-198 519.5,-192 519.5,-192 519.5,-189 522.5,-186 525.5,-186 525.5,-186 567.5,-186 567.5,-186 570.5,-186 573.5,-189 573.5,-192 573.5,-192 573.5,-198 573.5,-198 573.5,-201 570.5,-204 567.5,-204"/>
<text text-anchor="start" x="528" y="-192.8" font-family="Helvetica,sans-Serif" font-size="9.00">index.ts</text>
</a>
</g>
</g>
<!-- src/client/hooks/sync.ts&#45;&gt;src/server/actions/index.ts -->
<g id="edge32" class="edge">
<title>src/client/hooks/sync.ts&#45;&gt;src/server/actions/index.ts</title>
<path fill="none" stroke="#000000" stroke-width="2" stroke-opacity="0.200000" d="M456.64,-369.88C471.68,-340.26 519.26,-246.64 537.9,-209.95"/>
<polygon fill="#000000" fill-opacity="0.200000" stroke="#000000" stroke-width="2" stroke-opacity="0.200000" points="539.99,-210.48 540.84,-204.18 536.25,-208.58 539.99,-210.48"/>
</g>
<!-- src/client/components/timer&#45;page.tsx&#45;&gt;src/client/db.ts -->
<g id="edge26" class="edge">
<title>src/client/components/timer&#45;page.tsx&#45;&gt;src/client/db.ts</title>
<path fill="none" stroke="#000000" stroke-width="2" stroke-opacity="0.200000" d="M258.79,-438.95C267.52,-427.85 282.23,-408.27 292.5,-390 299.62,-377.33 293.39,-368.04 305.5,-360 375.86,-313.31 418.58,-324.15 495.5,-359 514.59,-367.65 529.28,-387.6 537.66,-401.44"/>
<polygon fill="#000000" fill-opacity="0.200000" stroke="#000000" stroke-width="2" stroke-opacity="0.200000" points="536.02,-402.81 540.85,-406.94 539.66,-400.7 536.02,-402.81"/>
</g>
<!-- src/client/components/timer&#45;page.tsx&#45;&gt;src/lib/time.ts -->
<g id="edge27" class="edge">
<title>src/client/components/timer&#45;page.tsx&#45;&gt;src/lib/time.ts</title>
<path fill="none" stroke="#000000" stroke-width="2" stroke-opacity="0.200000" d="M257.85,-457.03C267.06,-469.55 285.27,-492.2 305.5,-506 380.5,-557.15 423.72,-525.41 495.5,-581 500.28,-584.7 498.66,-588.38 503.5,-592 506.59,-594.31 510.07,-596.3 513.67,-597.99"/>
<polygon fill="#000000" fill-opacity="0.200000" stroke="#000000" stroke-width="2" stroke-opacity="0.200000" points="513.05,-600 519.39,-600.41 514.69,-596.14 513.05,-600"/>
</g>
<!-- src/client/components/visual&#45;timer.tsx -->
<g id="node19" class="node">
<title>src/client/components/visual&#45;timer.tsx</title>
<g id="a_node19"><a xlink:href="src/client/components/visual-timer.tsx" xlink:title="visual&#45;timer.tsx">
<path fill="#bbfeff" stroke="black" d="M384.5,-500C384.5,-500 311.5,-500 311.5,-500 308.5,-500 305.5,-497 305.5,-494 305.5,-494 305.5,-488 305.5,-488 305.5,-485 308.5,-482 311.5,-482 311.5,-482 384.5,-482 384.5,-482 387.5,-482 390.5,-485 390.5,-488 390.5,-488 390.5,-494 390.5,-494 390.5,-497 387.5,-500 384.5,-500"/>
<text text-anchor="start" x="313.5" y="-488.8" font-family="Helvetica,sans-Serif" font-size="9.00">visual&#45;timer.tsx</text>
</a>
</g>
</g>
<!-- src/client/components/timer&#45;page.tsx&#45;&gt;src/client/components/visual&#45;timer.tsx -->
<g id="edge25" class="edge">
<title>src/client/components/timer&#45;page.tsx&#45;&gt;src/client/components/visual&#45;timer.tsx</title>
<path fill="none" stroke="#000000" stroke-width="2" stroke-opacity="0.200000" d="M266.75,-457.08C277.39,-463.19 292.03,-471.16 305.5,-477 307.78,-477.99 310.15,-478.95 312.55,-479.88"/>
<polygon fill="#000000" fill-opacity="0.200000" stroke="#000000" stroke-width="2" stroke-opacity="0.200000" points="311.83,-481.85 318.19,-481.98 313.3,-477.92 311.83,-481.85"/>
</g>
<!-- src/client/components/ui/button.tsx -->
<g id="node20" class="node">
<title>src/client/components/ui/button.tsx</title>
<g id="a_node20"><a xlink:href="src/client/components/ui/button.tsx" xlink:title="button.tsx">
<path fill="#bbfeff" stroke="black" d="M374,-418C374,-418 322,-418 322,-418 319,-418 316,-415 316,-412 316,-412 316,-406 316,-406 316,-403 319,-400 322,-400 322,-400 374,-400 374,-400 377,-400 380,-403 380,-406 380,-406 380,-412 380,-412 380,-415 377,-418 374,-418"/>
<text text-anchor="start" x="324" y="-406.8" font-family="Helvetica,sans-Serif" font-size="9.00">button.tsx</text>
</a>
</g>
</g>
<!-- src/lib/utils.ts -->
<g id="node21" class="node">
<title>src/lib/utils.ts</title>
<g id="a_node21"><a xlink:href="src/lib/utils.ts" xlink:title="utils.ts">
<path fill="#ddfeff" stroke="black" d="M567.5,-586C567.5,-586 525.5,-586 525.5,-586 522.5,-586 519.5,-583 519.5,-580 519.5,-580 519.5,-574 519.5,-574 519.5,-571 522.5,-568 525.5,-568 525.5,-568 567.5,-568 567.5,-568 570.5,-568 573.5,-571 573.5,-574 573.5,-574 573.5,-580 573.5,-580 573.5,-583 570.5,-586 567.5,-586"/>
<text text-anchor="start" x="531" y="-574.8" font-family="Helvetica,sans-Serif" font-size="9.00">utils.ts</text>
</a>
</g>
</g>
<!-- src/client/components/ui/button.tsx&#45;&gt;src/lib/utils.ts -->
<g id="edge28" class="edge">
<title>src/client/components/ui/button.tsx&#45;&gt;src/lib/utils.ts</title>
<path fill="none" stroke="#000000" stroke-width="2" stroke-opacity="0.200000" d="M380.11,-412.72C387.05,-414.97 393.75,-418.49 398.5,-424 414.35,-442.37 393.95,-457.23 406.5,-478 431.83,-519.92 461.61,-507.63 495.5,-543 499.93,-547.63 498.73,-550.71 503.5,-555 507.72,-558.8 512.72,-562.15 517.77,-565.02"/>
<polygon fill="#000000" fill-opacity="0.200000" stroke="#000000" stroke-width="2" stroke-opacity="0.200000" points="516.96,-566.96 523.24,-567.94 518.94,-563.26 516.96,-566.96"/>
</g>
<!-- src/server/db/schema.ts -->
<g id="node23" class="node">
<title>src/server/db/schema.ts</title>
<g id="a_node23"><a xlink:href="src/server/db/schema.ts" xlink:title="schema.ts">
<path fill="#ddfeff" stroke="black" d="M721.5,-204C721.5,-204 670.5,-204 670.5,-204 667.5,-204 664.5,-201 664.5,-198 664.5,-198 664.5,-192 664.5,-192 664.5,-189 667.5,-186 670.5,-186 670.5,-186 721.5,-186 721.5,-186 724.5,-186 727.5,-189 727.5,-192 727.5,-192 727.5,-198 727.5,-198 727.5,-201 724.5,-204 721.5,-204"/>
<text text-anchor="start" x="672.5" y="-192.8" font-family="Helvetica,sans-Serif" font-size="9.00">schema.ts</text>
</a>
</g>
</g>
<!-- src/server/actions/index.ts&#45;&gt;src/server/db/schema.ts -->
<g id="edge33" class="edge">
<title>src/server/actions/index.ts&#45;&gt;src/server/db/schema.ts</title>
<path fill="none" stroke="#000000" stroke-width="2" stroke-opacity="0.200000" d="M568.48,-185.92C575.08,-183.49 582.48,-181.22 589.5,-180 616.65,-175.3 624.32,-175.45 651.5,-180 656.71,-180.87 662.13,-182.3 667.31,-183.93"/>
<polygon fill="#000000" fill-opacity="0.200000" stroke="#000000" stroke-width="2" stroke-opacity="0.200000" points="666.88,-186 673.24,-185.91 668.22,-182.02 666.88,-186"/>
</g>
<!-- src/server/db/index.ts -->
<g id="node24" class="node">
<title>src/server/db/index.ts</title>
<g id="a_node24"><a xlink:href="src/server/db/index.ts" xlink:title="index.ts">
<path fill="#ddfeff" stroke="black" d="M645.5,-204C645.5,-204 603.5,-204 603.5,-204 600.5,-204 597.5,-201 597.5,-198 597.5,-198 597.5,-192 597.5,-192 597.5,-189 600.5,-186 603.5,-186 603.5,-186 645.5,-186 645.5,-186 648.5,-186 651.5,-189 651.5,-192 651.5,-192 651.5,-198 651.5,-198 651.5,-201 648.5,-204 645.5,-204"/>
<text text-anchor="start" x="606" y="-192.8" font-family="Helvetica,sans-Serif" font-size="9.00">index.ts</text>
</a>
</g>
</g>
<!-- src/server/actions/index.ts&#45;&gt;src/server/db/index.ts -->
<g id="edge34" class="edge">
<title>src/server/actions/index.ts&#45;&gt;src/server/db/index.ts</title>
<path fill="none" stroke="#000000" stroke-width="2" stroke-opacity="0.200000" d="M573.65,-195C579.27,-195 585.26,-195 591.08,-195"/>
<polygon fill="#000000" fill-opacity="0.200000" stroke="#000000" stroke-width="2" stroke-opacity="0.200000" points="591.3,-197.1 597.3,-195 591.3,-192.9 591.3,-197.1"/>
</g>
<!-- src/server/db/index.ts&#45;&gt;src/server/db/schema.ts -->
<g id="edge35" class="edge">
<title>src/server/db/index.ts&#45;&gt;src/server/db/schema.ts</title>
<path fill="none" stroke="#000000" stroke-width="2" stroke-opacity="0.200000" d="M651.77,-195C653.85,-195 655.97,-195 658.1,-195"/>
<polygon fill="#000000" fill-opacity="0.200000" stroke="#000000" stroke-width="2" stroke-opacity="0.200000" points="658.49,-197.1 664.49,-195 658.49,-192.9 658.49,-197.1"/>
</g>
<!-- src/server/env.ts -->
<g id="node25" class="node">
<title>src/server/env.ts</title>
<g id="a_node25"><a xlink:href="src/server/env.ts" xlink:title="env.ts">
<path fill="#ddfeff" stroke="black" d="M717,-256C717,-256 675,-256 675,-256 672,-256 669,-253 669,-250 669,-250 669,-244 669,-244 669,-241 672,-238 675,-238 675,-238 717,-238 717,-238 720,-238 723,-241 723,-244 723,-244 723,-250 723,-250 723,-253 720,-256 717,-256"/>
<text text-anchor="start" x="682" y="-244.8" font-family="Helvetica,sans-Serif" font-size="9.00">env.ts</text>
</a>
</g>
</g>
<!-- src/server/db/index.ts&#45;&gt;src/server/env.ts -->
<g id="edge36" class="edge">
<title>src/server/db/index.ts&#45;&gt;src/server/env.ts</title>
<path fill="none" stroke="#000000" stroke-width="2" stroke-opacity="0.200000" d="M633.14,-204.05C640.52,-212.37 652.34,-224.66 664.5,-233 665.47,-233.67 666.48,-234.32 667.52,-234.95"/>
<polygon fill="#000000" fill-opacity="0.200000" stroke="#000000" stroke-width="2" stroke-opacity="0.200000" points="666.58,-236.83 672.84,-237.93 668.64,-233.17 666.58,-236.83"/>
</g>
</g>
</svg>
